<?xml version="1.0" encoding="UTF-8" standalone="no"?>
<!-- Created with Inkscape (http://www.inkscape.org/) -->

<svg
   xmlns:dc="http://purl.org/dc/elements/1.1/"
   xmlns:cc="http://creativecommons.org/ns#"
   xmlns:rdf="http://www.w3.org/1999/02/22-rdf-syntax-ns#"
   xmlns:svg="http://www.w3.org/2000/svg"
   xmlns="http://www.w3.org/2000/svg"
   xmlns:sodipodi="http://sodipodi.sourceforge.net/DTD/sodipodi-0.dtd"
   xmlns:inkscape="http://www.inkscape.org/namespaces/inkscape"
   version="1.1"
   id="svg3775"
   width="220"
   height="275"
   viewBox="0 0 220 275"
   sodipodi:docname="Kcca.svg"
   inkscape:version="0.92.4 (5da689c313, 2019-01-14)">
  <metadata
     id="metadata3781">
    <rdf:RDF>
      <cc:Work
         rdf:about="">
        <dc:format>image/svg+xml</dc:format>
        <dc:type
           rdf:resource="http://purl.org/dc/dcmitype/StillImage" />
        <dc:title></dc:title>
      </cc:Work>
    </rdf:RDF>
  </metadata>
  <defs
     id="defs3779" />
  <sodipodi:namedview
     pagecolor="#ffffff"
     bordercolor="#666666"
     borderopacity="1"
     objecttolerance="10"
     gridtolerance="10"
     guidetolerance="10"
     inkscape:pageopacity="0"
     inkscape:pageshadow="2"
     inkscape:window-width="1366"
     inkscape:window-height="705"
     id="namedview3777"
     showgrid="false"
     fit-margin-top="0"
     fit-margin-left="0"
     fit-margin-right="0"
     fit-margin-bottom="0"
     inkscape:zoom="0.85818182"
     inkscape:cx="110"
     inkscape:cy="137.5"
     inkscape:window-x="-8"
     inkscape:window-y="-8"
     inkscape:window-maximized="1"
     inkscape:current-layer="svg3775" />
  <g
     id="g3785"
     transform="translate(-2.3305083,-3.4957628)">
    <path
       style="fill:#ead82b"
       d="M 98.947845,262.37683 C 92.10153,257.08409 77.5,246.7761 66.5,239.47018 44.322123,224.7402 38.314434,219.24668 30.063372,206.15195 18.61718,187.98644 17.72369,184.05035 17.884429,152.5 c 0.07683,-15.08097 -0.298517,-26.58704 -0.946033,-29 -0.590369,-2.2 -1.516637,-6.15528 -2.058373,-8.78952 C 13.643868,108.69959 10.878981,102.20858 6.4471641,94.913023 4.5512238,91.791968 3,88.774243 3,88.206967 3,87.639691 5.8441947,85.14598 9.3204327,82.665388 18.607785,76.038072 26.733131,66.762645 30.906779,58.023661 34.381066,50.74903 34.498148,50.132359 34.444048,39.392909 L 34.388097,28.285818 45.944048,27.682082 C 52.344246,27.347707 61.292324,26.127672 66,24.947533 76.943181,22.204253 92.652276,14.737227 101.30296,8.1669289 105.04458,5.325118 108.66576,3 109.35001,3 c 0.68425,0 3.02292,1.8325699 5.19704,4.0723776 5.14721,5.3027154 15.34807,12.0452374 23.19722,15.3327964 9.27748,3.885805 17.41014,5.555864 30.50573,6.264412 l 11.75,0.635745 0.0349,3.597334 c 0.10775,11.110273 4.62256,25.591297 10.7644,34.526237 3.58279,5.212119 12.93961,12.001246 19.45224,14.114159 6.78973,2.202815 7.1773,2.639729 4.91053,5.535619 -3.48519,4.452456 -8.27814,15.05691 -10.295,22.77779 -2.63359,10.08179 -3.51506,31.0706 -1.94459,46.30303 1.39883,13.56771 0.36241,24.22888 -3.41953,35.1751 -6.20921,17.97157 -15.01038,27.10493 -43.50294,45.14492 -17.79577,11.26734 -22.02779,14.46625 -32.08174,24.25 C 117.5483,266.92828 112.12483,272 111.86611,272 c -0.25873,0 -6.07195,-4.33043 -12.918265,-9.62317 z"
       id="path3793"
       inkscape:connector-curvature="0" />
    <path
       style="fill:#3b4fcf"
       d="M 98.947845,262.37683 C 92.10153,257.08409 77.5,246.7761 66.5,239.47018 44.322123,224.7402 38.314434,219.24668 30.063372,206.15195 18.61718,187.98644 17.72369,184.05035 17.884429,152.5 c 0.07683,-15.08097 -0.298517,-26.58704 -0.946033,-29 -0.590369,-2.2 -1.516637,-6.15528 -2.058373,-8.78952 C 13.643868,108.69959 10.878981,102.20858 6.4471641,94.913023 4.5512238,91.791968 3,88.774243 3,88.206967 3,87.639691 5.8441947,85.14598 9.3204327,82.665388 18.607785,76.038072 26.733131,66.762645 30.906779,58.023661 34.381066,50.74903 34.498148,50.132359 34.444048,39.392909 L 34.388097,28.285818 45.944048,27.682082 C 52.344246,27.347707 61.292324,26.127672 66,24.947533 76.943181,22.204253 92.652276,14.737227 101.30296,8.1669289 105.04458,5.325118 108.66576,3 109.35001,3 c 0.68425,0 3.02292,1.8325699 5.19704,4.0723776 5.14721,5.3027154 15.34807,12.0452374 23.19722,15.3327964 9.27748,3.885805 17.41014,5.555864 30.50573,6.264412 l 11.75,0.635745 0.0349,3.597334 c 0.10775,11.110273 4.62256,25.591297 10.7644,34.526237 3.58279,5.212119 12.93961,12.001246 19.45224,14.114159 6.78973,2.202815 7.1773,2.639729 4.91053,5.535619 -3.48519,4.452456 -8.27814,15.05691 -10.295,22.77779 -2.63359,10.08179 -3.51506,31.0706 -1.94459,46.30303 1.39883,13.56771 0.36241,24.22888 -3.41953,35.1751 -6.20921,17.97157 -15.01038,27.10493 -43.50294,45.14492 -17.79577,11.26734 -22.02779,14.46625 -32.08174,24.25 C 117.5483,266.92828 112.12483,272 111.86611,272 c -0.25873,0 -6.07195,-4.33043 -12.918265,-9.62317 z m 36.496065,-28.38935 c 5.46915,-3.56812 14.01915,-9.28098 19,-12.69527 4.98085,-3.41428 12.71138,-8.67943 17.17896,-11.70034 8.77144,-5.93111 12.90293,-11.0358 16.31689,-20.16041 4.27982,-11.43883 5.01788,-21.6994 3.5793,-49.75953 -1.09495,-21.35772 1.24219,-34.14669 8.08217,-44.225959 C 202.15403,91.684205 202.18697,89 199.68032,89 197.06138,89 188.49066,83.834811 184.20205,79.67194 176.53979,72.234329 172.42535,62.982007 171.18102,50.391007 L 170.5,43.5 160.31256,42.823847 c -18.68993,-1.240474 -31.8044,-6.309636 -43.7445,-16.908636 -6.48257,-5.754455 -6.87402,-5.949143 -8.92401,-4.438352 -18.806828,13.860098 -36.372813,20.49792 -54.351892,20.538454 -8.705908,0.01963 -9.755492,0.685693 -8.956285,5.683661 0.933769,5.839469 -0.916081,15.000185 -4.499526,22.282275 -3.154444,6.410297 -11.024474,15.237319 -19.217667,21.554527 l -3.88132,2.992619 3.624594,7.197485 c 8.119851,16.12387 11.542179,36.11034 9.611311,56.13027 -1.262644,13.09153 -0.534,17.39922 5.037457,29.78105 7.813126,17.36365 17.445794,26.57624 47.625821,45.54885 3.224901,2.02733 10.946559,7.72245 17.159239,12.65583 l 11.295778,8.96978 7.20422,-7.16835 c 3.96232,-3.9426 11.67898,-10.08772 17.14813,-13.65583 z M 99.52865,222.64461 c -2.576277,-1.88382 -1.406693,-4.15602 3.40202,-6.60924 6.17638,-3.15096 7.45837,-6.5497 7.20151,-19.09236 -0.19485,-9.51452 -0.0146,-10.73948 1.82581,-12.40499 1.12311,-1.0164 2.04201,-3.0511 2.04201,-4.52156 0,-5.53766 9.19684,-16.11789 18.59089,-21.38734 4.49289,-2.52021 7.6468,-8.82882 5.46217,-10.9257 -0.98767,-0.94799 -1.81618,-0.46673 -3.90342,2.26739 -3.83511,5.02369 -11.17756,11.91877 -14.64167,13.74957 -1.64561,0.86971 -6.14561,1.78771 -10,2.04 -8.09879,0.5301 -10.575334,1.80197 -13.9654,7.17219 -3.124325,4.94925 -7.59851,6.53818 -16.159421,5.73875 -7.783617,-0.72685 -14.118381,-3.76822 -14.977386,-7.19077 -0.961875,-3.83241 1.736874,-7.02723 7.070603,-8.37028 4.860297,-1.22384 13.569227,-8.0313 10.341022,-8.08321 -6.028708,-0.0969 1.017751,-10.63272 7.229417,-10.80933 1.734821,-0.0493 4.008989,-0.86324 5.053707,-1.80869 1.044718,-0.94546 1.897806,-1.31177 1.89575,-0.81403 -0.0089,2.15044 -4.254492,7.57951 -8.11321,10.37475 C 85.110547,153.97815 84.300846,155 85.481928,155 c 0.980102,0 3.303459,0.94031 5.163016,2.08958 3.234219,1.99886 3.583558,2.02057 8.046173,0.5 5.734213,-1.95384 11.301223,-2.18192 9.508883,-0.38958 -1.79011,1.79011 -1.45066,4.59548 0.69499,5.7438 2.53203,1.3551 4.55012,-1.0342 3.70789,-4.3899 -0.55741,-2.22092 -0.20471,-2.58403 3.47157,-3.57395 3.5867,-0.9658 4.38521,-1.74264 6.46633,-6.29091 1.30587,-2.85397 3.08195,-8.24251 3.94684,-11.97454 1.43186,-6.17849 1.43111,-7.08351 -0.008,-10.11697 -0.86949,-1.83231 -3.58303,-4.7693 -6.03008,-6.52664 -5.26785,-3.78308 -5.59841,-6.05809 -1.34329,-9.24483 1.70824,-1.27933 4.35543,-3.55462 5.88265,-5.0562 1.52722,-1.50157 3.9961,-3.19372 5.4864,-3.76033 5.33065,-2.026712 11.41919,3.45812 12.45513,11.22014 0.5468,4.097 0.7227,4.28296 4.33358,4.58151 3.25018,0.26872 4.31028,1.05112 7.77035,5.73484 2.20368,2.98301 5.26781,6.07581 6.80918,6.87288 6.72311,3.47666 6.56572,6.51713 -0.77136,14.90163 -3.25375,3.71825 -5.21945,6.99493 -5.66169,9.43763 -0.8585,4.74204 -2.63865,8.10961 -5.86591,11.0968 -3.08231,2.85302 -3.43531,8.02864 -0.71548,10.49005 1.45097,1.31311 3.94343,1.65499 12.06574,1.65499 13.60175,0 14.10552,0.31747 14.10552,8.88916 0,5.89975 -0.33926,7.18486 -2.51715,9.53484 -3.71194,4.00526 -5.98285,3.09161 -5.98285,-2.40707 0,-3.96388 -0.30265,-4.55151 -2.80277,-5.44192 -4.06118,-1.44639 -6.1308,0.23254 -6.50473,5.27683 L 156.885,198 h -4.88771 -4.88771 l -0.30479,-4.75 c -0.21945,-3.42009 -0.72476,-4.75 -1.80479,-4.75 -1.25333,0 -1.5,2.05556 -1.5,12.5 0,10.44444 0.24667,12.5 1.5,12.5 1,0 1.66667,-1.33333 2,-4 0.49768,-3.98147 0.52201,-4.00141 5.25,-4.30479 l 4.75,-0.30479 v 5.03901 c 0,4.09856 -0.5193,5.62022 -2.78244,8.15311 -5.10963,5.71866 -17.16804,4.71107 -20.079,-1.67778 -1.52344,-3.34358 -1.5032,-27.51036 0.0258,-30.86625 0.84387,-1.8521 0.86883,-3.17262 0.0907,-4.79705 -0.59056,-1.2328 -1.32542,-3.02896 -1.63303,-3.99146 -0.78508,-2.45647 -2.2957,-2.17773 -4.23458,0.78138 -1.20936,1.84571 -1.50935,3.80952 -1.10751,7.25 0.33777,2.8919 0.005,6.26714 -0.86009,8.71862 -2.49271,7.06546 -2.90615,14.10892 -0.99901,17.01958 1.08625,1.65782 1.58042,4.07805 1.38424,6.77934 -0.27688,3.81243 -0.57454,4.2318 -3.21747,4.53317 -1.60179,0.18265 -4.00613,-0.25328 -5.34297,-0.96874 -2.11927,-1.1342 -2.92445,-1.01662 -6.28576,0.91791 -4.35725,2.50772 -9.67623,2.87715 -12.43026,0.86335 z M 95,164 c 0,-1.31306 -0.666667,-2 -1.940983,-2 -2.197642,0 -3.482322,1.50606 -2.559017,3 1.152589,1.86493 4.5,1.12106 4.5,-1 z m 38.35052,-42.47106 C 133.90938,120.07256 131.64332,117 130.01036,117 128.13743,117 126,118.28287 126,119.40699 c 0,3.2403 6.23111,5.0391 7.35052,2.12195 z m 3.07804,-9.89703 c 0.84146,-1.37362 0.65478,-2.05845 -0.86969,-3.19048 -2.41677,-1.79463 -2.72435,-1.79107 -5.11774,0.0592 -1.9036,1.47165 -1.8947,1.53995 0.46025,3.53287 2.67982,2.26784 3.94837,2.17566 5.52718,-0.40163 z M 68.445214,219.71783 c -0.270609,-0.7052 -0.368985,-9.5927 -0.218615,-19.75 L 68.5,181.5 h 8.5 8.5 v 3.49018 c 0,3.09704 -0.337921,3.5481 -3,4.00437 -2.522689,0.43239 -3.049856,1.03059 -3.313358,3.75982 -0.256206,2.65366 0.04064,3.24563 1.627555,3.24563 4.66594,0 5.696107,6.95001 1.185803,8.00001 -2.282501,0.53137 -2.522394,1.10043 -2.757401,6.541 C 78.806263,220.64248 78.60824,221 73.449563,221 c -2.747764,0 -4.704738,-0.5014 -5.004349,-1.28217 z M 63,153.05966 c -3.908303,-2.06799 -10,-9.08811 -10,-11.52407 0,-1.42794 0.227208,-1.43282 2.337367,-0.0502 2.151025,1.4094 2.482017,1.37166 4.151791,-0.47342 1.134425,-1.25352 2.226006,-1.67474 2.912634,-1.12392 0.604014,0.48455 2.47209,1.17425 4.151279,1.53267 2.542542,0.5427 3.237863,1.344 4.158165,4.79192 1.294076,4.84826 0.190442,8.80857 -2.436485,8.74315 C 67.298638,154.9315 64.925,154.07823 63,153.05966 Z M 77.25,139.73783 C 73.7829,138.9041 73,138.29347 73,136.42302 c 0,-1.26105 -0.425387,-3.41167 -0.945305,-4.77916 -0.84841,-2.23149 -0.624436,-2.5982 2.185066,-3.5776 1.721704,-0.60019 3.909637,-1.79648 4.862073,-2.65842 1.594324,-1.44284 2.059139,-1.2494 5.859212,2.43845 l 4.127512,4.00561 -2.294279,4.54659 c -2.426452,4.80852 -2.837116,4.9522 -9.544279,3.33934 z m 18.159762,-7.61781 c -1.66374,-2.08542 -1.91611,-3.23215 -1.23685,-5.62002 1.3,-4.57002 0.177135,-7.36543 -3.701507,-9.21503 -3.342821,-1.59408 -3.588968,-1.57417 -6.420538,0.5193 -1.97786,1.4623 -3.168421,1.81454 -3.626709,1.07301 -0.375242,-0.60715 -2.596277,-1.95057 -4.935634,-2.98538 -3.180668,-1.40696 -4.386086,-2.5757 -4.779582,-4.63414 -0.862681,-4.51283 2.318844,-5.33071 10.859557,-2.79171 6.466846,1.92248 10.700778,5.7089 14.40842,12.8855 2.83082,5.4794 3.972321,11.98741 2.273081,12.95945 -0.4125,0.23597 -1.690607,-0.74997 -2.840238,-2.19098 z M 51.353546,129.5 c 0.092,-3.14086 0.592648,-5 1.346454,-5 2.036442,0 3.550701,-2.21669 3.535137,-5.175 -0.01474,-2.80077 1.301274,-5.325 2.776197,-5.325 0.421544,0 0.703944,0.7875 0.627555,1.75 -0.107504,1.35455 0.764993,1.8169 3.861111,2.04608 l 4,0.29608 -0.0384,4.29868 c -0.03299,3.69265 -0.567156,4.76294 -3.788913,7.59168 l -3.750511,3.293 -2.410206,-2.26428 c -2.785351,-2.6167 -5.150619,-2.13901 -5.830859,1.17761 C 51.4204,133.45998 51.272997,132.25 51.353546,129.5 Z M 55.25,95.337719 C 54.307588,94.957448 54,89.835725 54,74.523655 54,52.562865 53.888298,53 59.5,53 c 4.545273,0 5.5,0.973299 5.5,5.606989 0,5.381375 1.435406,5.685709 3.032789,0.643011 1.435401,-4.531343 3.412469,-6.25 7.189725,-6.25 4.170982,0 4.438067,2.237417 1.38587,11.609652 l -2.712837,8.330178 3.123716,10.122594 c 1.718044,5.567427 2.880669,10.755965 2.583612,11.530085 C 78.920936,96.369611 71.64587,96.491797 70.225719,94.75 69.665176,94.0625 68.638846,91.5875 67.944987,89.25 66.266161,83.594305 65,83.870759 65,89.893011 c 0,3.539296 -0.437622,5.060943 -1.581787,5.5 -1.838387,0.705455 -6.358716,0.674856 -8.168213,-0.05529 z M 86.116873,94.369307 C 82.14461,91.587027 80.999864,87.091759 81.001554,74.282119 81.003809,57.181528 83.597731,53.04744 94.345708,53.014742 103.09075,52.988137 107,56.981112 107,65.940064 107,71.149374 106.17438,72 101.11821,72 97.343486,72 96,70.285057 96,65.466667 96,60.741065 95.262156,59.537541 93.342009,61.131121 91.311015,62.816696 91.438745,86.28931 93.488167,87.990179 95.241895,89.445645 95.758063,88.499817 96.211463,83 96.497929,79.525123 96.537684,79.49783 101.75,79.19774 L 107,78.895481 v 5.152259 c 0,4.5261 -0.41321,5.565466 -3.4,8.55226 -3.09536,3.095363 -3.926619,3.4 -9.277494,3.4 -3.815329,0 -6.694339,-0.572141 -8.205633,-1.630693 z m 29.739187,0.114291 C 111.95384,92.363702 111,88.193092 111,73.250777 V 59.8 l 3.51551,-3.515508 c 3.42366,-3.423663 3.68561,-3.504677 10.02634,-3.10093 8.38358,0.533827 11.22047,3.013959 12.11825,10.594313 C 137.37786,69.838254 136.14195,72 131.95934,72 126.95613,72 126,71.120052 126,66.515456 c 0,-4.015693 -1.88042,-7.301702 -3.34201,-5.840113 -0.85894,0.858945 -0.85894,26.790369 0,27.649314 C 124.06987,89.73654 126,86.560467 126,82.825296 v -3.929815 l 5.25,0.302259 c 5.21562,0.300281 5.25179,0.325181 5.52359,3.80226 0.341,4.362392 -2.47096,10.071128 -5.77359,11.721347 -3.35194,1.674857 -11.86943,1.541139 -15.14394,-0.237749 z m 23.46965,-0.0772 c -1.02316,-2.666299 4.26635,-39.533379 5.81262,-40.513052 1.69259,-1.072382 11.92626,-1.139388 13.57948,-0.08891 1.85944,1.18151 7.53655,40.414404 5.99028,41.397138 -0.66445,0.422291 -2.90971,0.774692 -4.98947,0.783114 -2.73392,0.01107 -3.93374,-0.469451 -4.33136,-1.734687 -1.55903,-4.960834 -2.39749,-6.183305 -3.85684,-5.6233 C 150.68869,88.949703 150,90.200833 150,91.406989 150,94.604138 148.10622,96 143.76862,96 c -2.58321,0 -4.03061,-0.519161 -4.44291,-1.5936 z m 14.07775,-15.250196 c 0.78094,-1.263588 -0.56918,-8.40352 -1.41172,-7.465706 -1.04608,1.164366 -2.00791,6.959995 -1.27646,7.691446 0.86922,0.869226 2.07398,0.768057 2.68818,-0.22574 z"
       id="path3791"
       inkscape:connector-curvature="0" />
    <path
       style="fill:#be2e46"
       d="M 98.947845,262.37683 C 92.10153,257.08409 77.5,246.7761 66.5,239.47018 44.322123,224.7402 38.314434,219.24668 30.063372,206.15195 18.61718,187.98644 17.72369,184.05035 17.884429,152.5 c 0.07683,-15.08097 -0.298517,-26.58704 -0.946033,-29 -0.590369,-2.2 -1.516637,-6.15528 -2.058373,-8.78952 C 13.643868,108.69959 10.878981,102.20858 6.4471641,94.913023 4.5512238,91.791968 3,88.774243 3,88.206967 3,87.639691 5.8441947,85.14598 9.3204327,82.665388 18.607785,76.038072 26.733131,66.762645 30.906779,58.023661 34.381066,50.74903 34.498148,50.132359 34.444048,39.392909 L 34.388097,28.285818 45.944048,27.682082 C 52.344246,27.347707 61.292324,26.127672 66,24.947533 76.943181,22.204253 92.652276,14.737227 101.30296,8.1669289 105.04458,5.325118 108.66576,3 109.35001,3 c 0.68425,0 3.02292,1.8325699 5.19704,4.0723776 5.14721,5.3027154 15.34807,12.0452374 23.19722,15.3327964 9.27748,3.885805 17.41014,5.555864 30.50573,6.264412 l 11.75,0.635745 0.0349,3.597334 c 0.10775,11.110273 4.62256,25.591297 10.7644,34.526237 3.58279,5.212119 12.93961,12.001246 19.45224,14.114159 6.78973,2.202815 7.1773,2.639729 4.91053,5.535619 -3.48519,4.452456 -8.27814,15.05691 -10.295,22.77779 -2.63359,10.08179 -3.51506,31.0706 -1.94459,46.30303 1.39883,13.56771 0.36241,24.22888 -3.41953,35.1751 -6.20921,17.97157 -15.01038,27.10493 -43.50294,45.14492 -17.79577,11.26734 -22.02779,14.46625 -32.08174,24.25 C 117.5483,266.92828 112.12483,272 111.86611,272 c -0.25873,0 -6.07195,-4.33043 -12.918265,-9.62317 z m 36.496065,-28.38935 c 5.46915,-3.56812 14.01915,-9.28098 19,-12.69527 4.98085,-3.41428 12.71138,-8.67943 17.17896,-11.70034 8.77144,-5.93111 12.90293,-11.0358 16.31689,-20.16041 4.27982,-11.43883 5.01788,-21.6994 3.5793,-49.75953 -1.09495,-21.35772 1.24219,-34.14669 8.08217,-44.225959 C 202.15403,91.684205 202.18697,89 199.68032,89 197.06138,89 188.49066,83.834811 184.20205,79.67194 176.53979,72.234329 172.42535,62.982007 171.18102,50.391007 L 170.5,43.5 160.31256,42.823847 c -18.68993,-1.240474 -31.8044,-6.309636 -43.7445,-16.908636 -6.48257,-5.754455 -6.87402,-5.949143 -8.92401,-4.438352 -18.806828,13.860098 -36.372813,20.49792 -54.351892,20.538454 -8.705908,0.01963 -9.755492,0.685693 -8.956285,5.683661 0.933769,5.839469 -0.916081,15.000185 -4.499526,22.282275 -3.154444,6.410297 -11.024474,15.237319 -19.217667,21.554527 l -3.88132,2.992619 3.624594,7.197485 c 8.119851,16.12387 11.542179,36.11034 9.611311,56.13027 -1.262644,13.09153 -0.534,17.39922 5.037457,29.78105 7.813126,17.36365 17.445794,26.57624 47.625821,45.54885 3.224901,2.02733 10.946559,7.72245 17.159239,12.65583 l 11.295778,8.96978 7.20422,-7.16835 c 3.96232,-3.9426 11.67898,-10.08772 17.14813,-13.65583 z M 99.52865,222.64461 c -2.576277,-1.88382 -1.406693,-4.15602 3.40202,-6.60924 6.17638,-3.15096 7.45837,-6.5497 7.20151,-19.09236 -0.19485,-9.51452 -0.0146,-10.73948 1.82581,-12.40499 C 113.102,183.5027 114,183.19795 114,183.84501 114,184.59 116.12991,185 120,185 c 5.00935,0 6.01659,-0.28894 6.10045,-1.75 0.0553,-0.9625 0.50003,-0.0538 0.9884,2.01938 0.63981,2.71602 0.47308,4.95164 -0.59662,8 -2.56198,7.30093 -2.99734,14.31078 -1.07136,17.2502 1.08625,1.65782 1.58042,4.07805 1.38424,6.77934 -0.27688,3.81243 -0.57454,4.2318 -3.21747,4.53317 -1.60179,0.18265 -4.00613,-0.25328 -5.34297,-0.96874 -2.11927,-1.1342 -2.92445,-1.01662 -6.28576,0.91791 -4.35725,2.50772 -9.67623,2.87715 -12.43026,0.86335 z m 38.85429,-2.17123 C 133.77431,218.11601 133,215.35425 133,201.27394 c 0,-16.66607 0.7413,-18.65255 7.57218,-20.29126 2.8923,-0.69385 6.01238,-0.97234 6.93352,-0.61887 3.02992,1.16269 3.71221,-0.49825 1.31951,-3.21215 -1.86336,-2.1135 -1.91232,-2.29118 -0.24647,-0.89451 C 150.2584,177.66541 152.62278,178 160.89448,178 174.49623,178 175,178.31747 175,186.88916 c 0,5.89975 -0.33926,7.18486 -2.51715,9.53484 -3.71194,4.00526 -5.98285,3.09161 -5.98285,-2.40707 0,-3.96388 -0.30265,-4.55151 -2.80277,-5.44192 -4.06118,-1.44639 -6.1308,0.23254 -6.50473,5.27683 L 156.885,198 h -4.88771 -4.88771 l -0.30479,-4.75 c -0.21945,-3.42009 -0.72476,-4.75 -1.80479,-4.75 -1.25333,0 -1.5,2.05556 -1.5,12.5 0,10.44444 0.24667,12.5 1.5,12.5 1,0 1.66667,-1.33333 2,-4 0.49768,-3.98147 0.52201,-4.00141 5.25,-4.30479 l 4.75,-0.30479 v 5.03901 c 0,7.14317 -3.61807,11.16335 -10.55939,11.73295 -3.25571,0.26716 -6.00362,-0.13832 -8.05767,-1.189 z m -69.937726,-0.75555 c -0.270609,-0.7052 -0.368985,-9.5927 -0.218615,-19.75 L 68.5,181.5 h 8.5 8.5 v 3.49018 c 0,3.09704 -0.337921,3.5481 -3,4.00437 -2.522689,0.43239 -3.049856,1.03059 -3.313358,3.75982 -0.256206,2.65366 0.04064,3.24563 1.627555,3.24563 4.66594,0 5.696107,6.95001 1.185803,8.00001 -2.282501,0.53137 -2.522394,1.10043 -2.757401,6.541 C 78.806263,220.64248 78.60824,221 73.449563,221 c -2.747764,0 -4.704738,-0.5014 -5.004349,-1.28217 z M 74.5,178.06493 c -12.260607,-2.98483 -14.116021,-12.16157 -3.023634,-14.95466 4.860297,-1.22384 13.569227,-8.0313 10.341022,-8.08321 -6.028708,-0.0969 1.017751,-10.63272 7.229417,-10.80933 1.734821,-0.0493 4.008989,-0.86324 5.053707,-1.80869 1.044718,-0.94546 1.897806,-1.31177 1.89575,-0.81403 -0.0089,2.15044 -4.254492,7.57951 -8.11321,10.37475 C 85.110547,153.97815 84.300846,155 85.481928,155 c 0.980102,0 3.303459,0.94031 5.163016,2.08958 3.234219,1.99886 3.583558,2.02057 8.046173,0.5 5.734213,-1.95384 11.301223,-2.18192 9.508883,-0.38958 -1.79011,1.79011 -1.45066,4.59548 0.69499,5.7438 2.50587,1.3411 4.55015,-1.03408 3.72379,-4.32656 -0.42001,-1.67345 -0.12388,-2.59317 0.97012,-3.01298 2.40456,-0.92272 2.93384,-0.727 1.6111,0.59574 -1.60562,1.60562 -1.56602,7.79552 0.05,7.81531 0.83333,0.0102 0.75,0.33844 -0.25,0.98469 -0.825,0.53316 -4.02681,0.97627 -7.11514,0.98469 -6.2962,0.0172 -9.81349,2.04283 -12.471257,7.18238 C 92.802261,178.21685 83.7919,180.32703 74.5,178.06493 Z M 95,164 c 0,-1.31306 -0.666667,-2 -1.940983,-2 -2.197642,0 -3.482322,1.50606 -2.559017,3 1.152589,1.86493 4.5,1.12106 4.5,-1 z m 51.15789,8 c 0,-1.375 0.22698,-1.9375 0.50439,-1.25 0.27741,0.6875 0.27741,1.8125 0,2.5 -0.27741,0.6875 -0.50439,0.125 -0.50439,-1.25 z M 122,166.5 c 1.86578,-1.925 3.61733,-3.5 3.89233,-3.5 0.275,0 -1.02655,1.575 -2.89233,3.5 -1.86578,1.925 -3.61733,3.5 -3.89233,3.5 -0.275,0 1.02655,-1.575 2.89233,-3.5 z m 28,-1.87756 c 0,-0.20765 0.7875,-0.99515 1.75,-1.75 1.58606,-1.24387 1.62143,-1.2085 0.37756,0.37756 C 150.82119,164.91575 150,165.44548 150,164.62244 Z M 63,153.05966 c -3.908303,-2.06799 -10,-9.08811 -10,-11.52407 0,-1.42794 0.227208,-1.43282 2.337367,-0.0502 2.151025,1.4094 2.482017,1.37166 4.151791,-0.47342 1.134425,-1.25352 2.226006,-1.67474 2.912634,-1.12392 0.604014,0.48455 2.47209,1.17425 4.151279,1.53267 2.542542,0.5427 3.237863,1.344 4.158165,4.79192 1.294076,4.84826 0.190442,8.80857 -2.436485,8.74315 C 67.298638,154.9315 64.925,154.07823 63,153.05966 Z M 77.25,139.73783 C 73.7829,138.9041 73,138.29347 73,136.42302 c 0,-1.26105 -0.425387,-3.41167 -0.945305,-4.77916 -0.84841,-2.23149 -0.624436,-2.5982 2.185066,-3.5776 1.721704,-0.60019 3.909637,-1.79648 4.862073,-2.65842 1.594324,-1.44284 2.059139,-1.2494 5.859212,2.43845 l 4.127512,4.00561 -2.294279,4.54659 c -2.426452,4.80852 -2.837116,4.9522 -9.544279,3.33934 z m 18.159762,-7.61781 c -1.66374,-2.08542 -1.91611,-3.23215 -1.23685,-5.62002 1.3,-4.57002 0.177135,-7.36543 -3.701507,-9.21503 -3.342821,-1.59408 -3.588968,-1.57417 -6.420538,0.5193 -1.97786,1.4623 -3.168421,1.81454 -3.626709,1.07301 -0.375242,-0.60715 -2.596277,-1.95057 -4.935634,-2.98538 -3.180668,-1.40696 -4.386086,-2.5757 -4.779582,-4.63414 -0.862681,-4.51283 2.318844,-5.33071 10.859557,-2.79171 6.466846,1.92248 10.700778,5.7089 14.40842,12.8855 2.83082,5.4794 3.972321,11.98741 2.273081,12.95945 -0.4125,0.23597 -1.690607,-0.74997 -2.840238,-2.19098 z M 51.353546,129.5 c 0.092,-3.14086 0.592648,-5 1.346454,-5 2.036442,0 3.550701,-2.21669 3.535137,-5.175 -0.01474,-2.80077 1.301274,-5.325 2.776197,-5.325 0.421544,0 0.703944,0.7875 0.627555,1.75 -0.107504,1.35455 0.764993,1.8169 3.861111,2.04608 l 4,0.29608 -0.0384,4.29868 c -0.03299,3.69265 -0.567156,4.76294 -3.788913,7.59168 l -3.750511,3.293 -2.410206,-2.26428 c -2.785351,-2.6167 -5.150619,-2.13901 -5.830859,1.17761 -0.26071,1.27113 -0.408113,0.0611 -0.327565,-2.68885 z m 76.157884,2.77585 c 0.92615,-3.39393 -2.11746,-8.65388 -7.06225,-12.20496 -5.26785,-3.78308 -5.59841,-6.05809 -1.34329,-9.24483 1.70824,-1.27933 4.35543,-3.55462 5.88265,-5.0562 5.74654,-5.65004 10.93539,-5.50833 15.32069,0.41842 2.40265,3.24717 3.90811,11.51434 2.21509,12.16401 -0.62995,0.24174 -1.70515,2.30789 -2.38932,4.59144 -1.26502,4.22229 -5.69615,8.04453 -9.33531,8.05253 -0.93517,0.002 -2.19416,0.79124 -2.79775,1.75374 -0.95136,1.51706 -1.01665,1.45394 -0.49051,-0.47415 z m 5.83909,-10.74691 C 133.90938,120.07256 131.64332,117 130.01036,117 128.13743,117 126,118.28287 126,119.40699 c 0,3.2403 6.23111,5.0391 7.35052,2.12195 z m 3.07804,-9.89703 c 0.84146,-1.37362 0.65478,-2.05845 -0.86969,-3.19048 -2.41677,-1.79463 -2.72435,-1.79107 -5.11774,0.0592 -1.9036,1.47165 -1.8947,1.53995 0.46025,3.53287 2.67982,2.26784 3.94837,2.17566 5.52718,-0.40163 z M 55.25,95.337719 C 54.307588,94.957448 54,89.835725 54,74.523655 54,52.562865 53.888298,53 59.5,53 c 4.545273,0 5.5,0.973299 5.5,5.606989 0,5.381375 1.435406,5.685709 3.032789,0.643011 1.435401,-4.531343 3.412469,-6.25 7.189725,-6.25 4.170982,0 4.438067,2.237417 1.38587,11.609652 l -2.712837,8.330178 3.123716,10.122594 c 1.718044,5.567427 2.880669,10.755965 2.583612,11.530085 C 78.920936,96.369611 71.64587,96.491797 70.225719,94.75 69.665176,94.0625 68.638846,91.5875 67.944987,89.25 66.266161,83.594305 65,83.870759 65,89.893011 c 0,3.539296 -0.437622,5.060943 -1.581787,5.5 -1.838387,0.705455 -6.358716,0.674856 -8.168213,-0.05529 z M 86.116873,94.369307 C 82.14461,91.587027 80.999864,87.091759 81.001554,74.282119 81.003809,57.181528 83.597731,53.04744 94.345708,53.014742 103.09075,52.988137 107,56.981112 107,65.940064 107,71.149374 106.17438,72 101.11821,72 97.343486,72 96,70.285057 96,65.466667 96,60.741065 95.262156,59.537541 93.342009,61.131121 91.311015,62.816696 91.438745,86.28931 93.488167,87.990179 95.241895,89.445645 95.758063,88.499817 96.211463,83 96.497929,79.525123 96.537684,79.49783 101.75,79.19774 L 107,78.895481 v 5.152259 c 0,4.5261 -0.41321,5.565466 -3.4,8.55226 -3.09536,3.095363 -3.926619,3.4 -9.277494,3.4 -3.815329,0 -6.694339,-0.572141 -8.205633,-1.630693 z m 29.739187,0.114291 C 111.95384,92.363702 111,88.193092 111,73.250777 V 59.8 l 3.51551,-3.515508 c 3.42366,-3.423663 3.68561,-3.504677 10.02634,-3.10093 8.38358,0.533827 11.22047,3.013959 12.11825,10.594313 C 137.37786,69.838254 136.14195,72 131.95934,72 126.95613,72 126,71.120052 126,66.515456 c 0,-4.015693 -1.88042,-7.301702 -3.34201,-5.840113 -0.85894,0.858945 -0.85894,26.790369 0,27.649314 C 124.06987,89.73654 126,86.560467 126,82.825296 v -3.929815 l 5.25,0.302259 c 5.21562,0.300281 5.25179,0.325181 5.52359,3.80226 0.341,4.362392 -2.47096,10.071128 -5.77359,11.721347 -3.35194,1.674857 -11.86943,1.541139 -15.14394,-0.237749 z m 23.46965,-0.0772 c -1.02316,-2.666299 4.26635,-39.533379 5.81262,-40.513052 1.69259,-1.072382 11.92626,-1.139388 13.57948,-0.08891 1.85944,1.18151 7.53655,40.414404 5.99028,41.397138 -0.66445,0.422291 -2.90971,0.774692 -4.98947,0.783114 -2.73392,0.01107 -3.93374,-0.469451 -4.33136,-1.734687 -1.55903,-4.960834 -2.39749,-6.183305 -3.85684,-5.6233 C 150.68869,88.949703 150,90.200833 150,91.406989 150,94.604138 148.10622,96 143.76862,96 c -2.58321,0 -4.03061,-0.519161 -4.44291,-1.5936 z m 14.07775,-15.250196 c 0.78094,-1.263588 -0.56918,-8.40352 -1.41172,-7.465706 -1.04608,1.164366 -2.00791,6.959995 -1.27646,7.691446 0.86922,0.869226 2.07398,0.768057 2.68818,-0.22574 z"
       id="path3789"
       inkscape:connector-curvature="0" />
    <path
       style="fill:#221f07"
       d="m 99.294653,221.32547 c -0.422712,-1.10157 0.134197,-2.21359 1.627617,-3.25 1.24861,-0.86651 3.91439,-3.00257 5.92396,-4.74681 L 110.5,210.15732 111,197.82866 111.5,185.5 l 7.26446,-0.2941 c 8.4462,-0.34195 9.31695,0.50698 7.38222,7.19718 -0.65163,2.25331 -1.69238,6.61314 -2.31278,9.68852 -1.04316,5.17108 -0.9609,5.81761 1.09384,8.59679 1.52146,2.05789 2.11945,4.07795 1.89705,6.4084 -0.2879,3.01667 -0.68868,3.43841 -3.52858,3.71312 -1.76209,0.17045 -4.14269,-0.19256 -5.29022,-0.8067 -1.67805,-0.89807 -2.73776,-0.71407 -5.41424,0.94008 -4.25295,2.62847 -12.34586,2.86107 -13.297097,0.38218 z m 68.252627,-23.46166 c -0.26251,-0.75009 -0.60554,-3.16381 -0.76229,-5.36381 -0.28209,-3.95925 -0.32958,-4.0032 -4.66223,-4.31372 -3.50912,-0.25149 -5.04615,-1.02296 -7.75,-3.88987 C 152.51774,182.32952 151,180.33319 151,179.86012 151,179.38705 155.93417,179 161.96482,179 c 12.48224,0 13.04718,0.35511 13.02044,8.18426 -0.0171,5.01864 -1.57211,8.49916 -4.72297,10.57156 -1.86187,1.22461 -2.31788,1.24274 -2.71501,0.10799 z M 77.20323,177.88176 c -14.787297,-2.45332 -17.181959,-10.52344 -4.399278,-14.82578 2.917174,-0.98185 6.541797,-2.97111 8.054719,-4.42058 4.952845,-4.74512 11.359007,-2.63967 7.73052,2.54073 C 87.715136,162.42401 87,163.76274 87,164.15108 87,165.69434 90.273426,168 92.46444,168 c 2.730648,0 3.59138,1.64296 2.457949,4.6917 -1.743159,4.68881 -8.61257,6.70091 -17.719159,5.19006 z M 62.994756,152.55627 C 60.829241,151.37753 54,143.89215 54,142.69731 c 0,-0.23098 1.039868,-0.22118 2.310819,0.0218 1.281315,0.24494 2.843221,-0.19976 3.505847,-0.99818 0.963883,-1.1614 1.971147,-1.23276 5.20759,-0.3689 3.486883,0.9307 4.147941,1.57377 5.045935,4.90867 1.898775,7.05151 -0.980334,9.61329 -7.075435,6.2956 z M 80,152.24675 c 0,-2.94487 5.115063,-6.87496 9.75,-7.49129 2.3375,-0.31083 4.25,-0.24624 4.25,0.14353 0,1.03493 -6.136818,6.6748 -8.684259,7.98102 C 82.139821,154.50848 80,154.25357 80,152.24675 Z m -3.093261,-12.92743 c -2.136719,-0.34764 -2.772198,-1.20387 -3.609655,-4.86356 l -1.016394,-4.44165 4.55449,-2.54555 4.554489,-2.54556 3.555166,3.56589 3.555165,3.56589 -2.138349,3.72261 c -2.184551,3.80304 -3.900057,4.44569 -9.454912,3.54193 z m 18.835684,-8.03791 c -1.26699,-1.40977 -1.581008,-2.83848 -1.125,-5.11852 C 94.96534,124.4233 95.635177,123 96.105948,123 c 1.167234,0 2.122172,4.15754 1.722134,7.49769 -0.322419,2.69208 -0.358417,2.7056 -2.085659,0.78372 z m -38.293684,-1.33805 c -1.273618,-1.40733 -2.585406,-1.87489 -4.154988,-1.48095 C 51.931471,128.80432 51,128.58626 51,127.92543 c 0,-0.61197 0.868883,-1.33989 1.930852,-1.6176 1.066981,-0.27902 2.629068,-2.24994 3.491446,-4.40524 1.515774,-3.78829 1.682904,-3.88944 5.819149,-3.52194 4.184049,0.37176 4.263855,0.44887 4.561588,4.40752 0.268449,3.5693 -0.08472,4.3249 -3.094391,6.62049 -4.084048,3.11505 -3.936149,3.10242 -6.259905,0.5347 z m 18.888229,-14.13508 c -3.793237,-1.92992 -6.126868,-5.68505 -4.527137,-7.28478 0.914514,-0.91451 6.767988,-0.56493 10.290946,0.6146 C 85.657613,110.32898 92,114.5978 92,115.80089 c 0,0.38451 -1.6875,0.7438 -3.75,0.79841 -2.0625,0.0546 -4.65,0.37555 -5.75,0.71317 -1.161441,0.35648 -3.745474,-0.27419 -6.163032,-1.50419 z"
       id="path3787"
       inkscape:connector-curvature="0" />
  </g>
</svg>
