<?xml version="1.0" encoding="UTF-8" standalone="no"?>
<!-- Created with Inkscape (http://www.inkscape.org/) -->

<svg
   xmlns:dc="http://purl.org/dc/elements/1.1/"
   xmlns:cc="http://creativecommons.org/ns#"
   xmlns:rdf="http://www.w3.org/1999/02/22-rdf-syntax-ns#"
   xmlns:svg="http://www.w3.org/2000/svg"
   xmlns="http://www.w3.org/2000/svg"
   xmlns:sodipodi="http://sodipodi.sourceforge.net/DTD/sodipodi-0.dtd"
   xmlns:inkscape="http://www.inkscape.org/namespaces/inkscape"
   version="1.1"
   id="svg255"
   width="500"
   height="500"
   viewBox="0 0 500 500"
   sodipodi:docname="LUWEERO.svg"
   inkscape:version="0.92.4 (5da689c313, 2019-01-14)">
  <metadata
     id="metadata261">
    <rdf:RDF>
      <cc:Work
         rdf:about="">
        <dc:format>image/svg+xml</dc:format>
        <dc:type
           rdf:resource="http://purl.org/dc/dcmitype/StillImage" />
        <dc:title></dc:title>
      </cc:Work>
    </rdf:RDF>
  </metadata>
  <defs
     id="defs259" />
  <sodipodi:namedview
     pagecolor="#ffffff"
     bordercolor="#666666"
     borderopacity="1"
     objecttolerance="10"
     gridtolerance="10"
     guidetolerance="10"
     inkscape:pageopacity="0"
     inkscape:pageshadow="2"
     inkscape:window-width="1366"
     inkscape:window-height="705"
     id="namedview257"
     showgrid="false"
     fit-margin-top="0"
     fit-margin-left="0"
     fit-margin-right="0"
     fit-margin-bottom="0"
     inkscape:zoom="0.472"
     inkscape:cx="250"
     inkscape:cy="250"
     inkscape:window-x="-8"
     inkscape:window-y="-8"
     inkscape:window-maximized="1"
     inkscape:current-layer="svg255" />
  <g
     id="g265"
     transform="translate(4.2372897,31.779661)">
    <path
       style="fill:#a1d3e8"
       d="m 252.15883,412.30733 c -3.02306,-1.20541 -25.58298,-15.5179 -35.13433,-22.28996 -5.63381,-3.99446 -14.35657,-10.64254 -19.3839,-14.7735 -12.09007,-9.93441 -43.27869,-41.47694 -49.15739,-49.71519 C 145.92089,321.93791 143.48308,319 143.06586,319 c -0.41722,0 -2.20093,0.71954 -3.9638,1.59897 -1.83861,0.91722 -6.06121,1.66337 -9.90363,1.75 L 122.5,322.5 119.80177,314 c -5.04582,-15.89544 -9.97851,-34.90501 -9.32971,-35.95479 0.35566,-0.57547 2.68525,-1.55963 5.17687,-2.18703 5.28198,-1.33002 5.33693,0.44124 -0.58371,-18.81538 -6.8073,-22.1404 -10.81348,-45.04563 -12.60047,-72.0428 -0.8184,-12.36396 -0.89441,-12.23871 10.03525,-16.53542 18.67765,-7.34264 28.26317,-19.51751 30.39936,-38.61118 0.49756,-4.44729 1.51125,-8.66783 2.25265,-9.37896 2.66795,-2.55905 40.27284,-10.45327 64.00272,-13.43579 15.5554,-1.9551 45.42276,-2.85737 64.66952,-1.95362 27.52338,1.29238 44.08793,3.67912 72.99914,10.5182 17.50543,4.14099 16.33343,3.08497 18.04698,16.26119 2.37985,18.29966 12.15432,30.00976 31.08251,37.23775 6.49978,2.48203 8.1734,3.55281 8.67467,5.55002 2.44878,9.75672 -7.13732,71.46004 -14.52612,93.50097 C 388.05581,274.25527 388.58913,276 392.5,276 c 2.6816,0 4.51381,1.83215 4.45015,4.45 -0.0274,1.1275 -2.66668,11.04008 -5.86502,22.02796 -7.08653,24.34564 -7.23387,24.5306 -18.00729,22.60529 C 365.35633,323.70334 364,324.04336 364,327.35902 364,330.32443 362.19237,332 358.99324,332 c -2.03966,0 -4.7386,2.33869 -12.40596,10.75 -17.66357,19.37745 -36.46755,35.23159 -61.58728,51.92588 -9.78538,6.50326 -30.07988,18.42318 -31.06368,18.24517 -0.23998,-0.0434 -1.03985,-0.31959 -1.77749,-0.61372 z M 259.5,344 c 0.34463,-0.55763 -0.40341,-0.99323 -1.69098,-0.98469 -1.85764,0.0123 -2.01579,0.20481 -0.80902,0.98469 1.86074,1.2025 1.75681,1.2025 2.5,0 z m -8.5,-3 c 0,-1.88198 -0.51355,-3 -1.37803,-3 -0.75791,0 -2.08431,-1.0125 -2.94755,-2.25 -1.56701,-2.24641 -1.5696,-2.24481 -1.62197,1 -0.0357,2.2114 0.41566,3.25 1.41237,3.25 0.80565,0 1.94648,0.9 2.53518,2 1.48045,2.76624 2,2.50646 2,-1 z m 17,2.60699 c 0,-0.21616 -0.675,-0.65203 -1.5,-0.96862 -0.825,-0.31658 -1.5,-0.13972 -1.5,0.39301 0,0.53274 0.675,0.96862 1.5,0.96862 0.825,0 1.5,-0.17686 1.5,-0.39301 z m 12.36383,-1.10125 c -0.31537,-0.82184 -0.97625,-1.24528 -1.46861,-0.94098 -1.41193,0.87262 -1.04399,2.43524 0.5734,2.43524 0.89208,0 1.24351,-0.5866 0.89521,-1.49426 z m -44.81939,-3.43383 C 234.8051,337.87562 231,335.66007 231,336.42586 c 0,0.27293 0.97975,1.40901 2.17723,2.52462 2.18442,2.03511 3.59463,2.10744 2.36721,0.12143 z m 31.45064,-1.57784 c -0.56627,-0.68232 -0.72035,-2.04643 -0.34239,-3.03137 0.47181,-1.22953 0.32051,-1.56417 -0.48275,-1.06773 -0.64347,0.39769 -1.16994,2.32661 -1.16994,4.28649 0,3.06702 0.21068,3.38858 1.51233,2.30831 1.06867,-0.88692 1.21029,-1.61906 0.48275,-2.4957 z m -7.53835,-3.56409 C 258.84841,332.94571 256,333.83844 256,335.01337 c 0,0.43966 0.89494,0.56536 1.98875,0.27932 1.09382,-0.28604 1.75441,-0.89926 1.46798,-1.36271 z M 307,334.5 c 0,-0.825 -0.675,-1.5 -1.5,-1.5 -1.56157,0 -1.98397,1.1827 -0.83333,2.33333 C 305.8173,336.48397 307,336.06157 307,334.5 Z m 72.06574,-25.53518 c 3.07968,-1.6482 2.24541,-2.88957 -1.53019,-2.27688 -3.02372,0.49069 -3.61537,0.23097 -4.65079,-2.04151 -2.50927,-5.50725 1.91379,-12.50235 6.20916,-9.81985 3.01713,1.88423 3.84966,0.36088 1.0453,-1.91266 -2.98612,-2.42089 -4.63932,-2.41382 -7.08344,0.0303 -4.21707,4.21707 -3.47058,13.57739 1.2654,15.86705 2.81231,1.35964 2.50929,1.34983 4.74456,0.15355 z M 134.5,305.61167 c 1.78381,-0.99151 1.59497,-1.1452 -1.74703,-1.42186 -4.20067,-0.34774 -5.17229,-1.58642 -6.22385,-7.93457 C 125.79292,291.81091 124,289.42651 124,292.89176 c 0,1.95505 1.71664,11.32232 2.54416,13.8828 0.44759,1.38493 4.41552,0.80494 7.95584,-1.16289 z M 364,304 c 0,-0.55 -0.45,-1 -1,-1 -0.55,0 -1,0.45 -1,1 0,0.55 0.45,1 1,1 0.55,0 1,-0.45 1,-1 z m -215.09841,-2.64362 c 2.17372,-1.52254 2.31007,-2.15401 1.8509,-8.5716 -0.73735,-10.30542 -2.93836,-11.52975 -2.55259,-1.41991 0.25605,6.71037 0.034,8.03151 -1.51255,9 -2.615,1.63758 -5.24177,-1.94824 -6.0853,-8.30709 C 140.23304,289.276 139.44476,287 138.85033,287 c -1.49692,0 -0.11526,10.83531 1.75332,13.75 1.70311,2.65658 5.02436,2.89928 8.29794,0.60638 z m 205.26373,-2.34995 c 0.25075,-1.86825 1.087,-2.63436 3.33468,-3.05499 2.7469,-0.51406 2.81797,-0.62327 0.84238,-1.2945 -4.60329,-1.56402 -3.35324,-7.37845 1.33342,-6.20217 1.27831,0.32083 2.3242,0.14515 2.3242,-0.3904 0,-1.30544 -6.91874,-2.54817 -8.01515,-1.43967 -1.29837,1.31267 -2.48632,17.12021 -1.19305,15.8753 0.57137,-0.55 1.18945,-2.12211 1.37352,-3.49357 z M 162.68312,293.75 c 1.05014,-6.59734 3.25533,-7.02455 5.16177,-1 1.95533,6.17903 3.7473,5.42586 4.51265,-1.89669 0.82026,-7.84777 0.81587,-11.36005 -0.0132,-10.53102 -0.3606,0.36059 -0.93073,2.34809 -1.26697,4.41667 -0.7568,4.65598 -2.05198,4.62602 -4.33528,-0.10027 C 165.7753,282.63741 164.56428,281 164.05098,281 c -0.51331,0 -1.3115,1.9125 -1.77376,4.25 -1.01264,5.12057 -3.29296,5.62818 -4.49224,1 -0.46319,-1.7875 -1.32744,-3.25 -1.92056,-3.25 -0.59312,0 -0.81297,0.69169 -0.48856,1.53708 0.32441,0.8454 1.32766,4.1079 2.22945,7.25 2.65509,9.25111 3.84452,9.7109 5.07781,1.96292 z m 175.34442,3.71682 c 0.69983,-0.84325 1.47683,-3.66048 1.72666,-6.26051 0.56423,-5.87206 -1.62891,-9.00702 -6.89017,-9.84906 l -3.63598,-0.58193 -0.72874,8.23243 c -0.57312,6.47444 -0.43731,8.41706 0.63598,9.09702 2.21046,1.40042 7.51647,1.01976 8.89225,-0.63795 z m -6.94495,-1.86731 c -0.79401,-0.95672 -0.90583,-2.9371 -0.35289,-6.25 0.65055,-3.89766 1.23393,-4.91049 2.9722,-5.16019 2.80191,-0.4025 4.69968,3.0528 3.89273,7.08754 -1.05976,5.2988 -4.05296,7.28566 -6.51204,4.32265 z M 322,296 c 0,-0.55 -0.8632,-1 -1.91821,-1 C 316.65264,295 315,293.83317 315,291.41206 c 0,-1.77607 0.6926,-2.52671 2.75,-2.98048 4.27722,-0.94336 4.92135,-1.26711 2.69113,-1.35263 C 314.2964,286.84333 313.55132,281 319.66601,281 c 2.0467,0 3.20042,-0.4071 2.83399,-1 -0.71498,-1.15686 -8.16257,-1.36773 -8.82943,-0.25 -0.24611,0.4125 -0.61017,4.10078 -0.80902,8.19617 -0.35064,7.22158 -0.28614,7.46742 2.13845,8.15032 3.78634,1.06646 7,1.02216 7,-0.0965 z m -135.91821,-1 c 4.26412,0 3.57075,-1.82526 -0.83179,-2.18963 -3.2105,-0.26572 -3.75,-0.6572 -3.75,-2.72115 0,-1.85616 0.8052,-2.69141 3.5,-3.63061 l 3.5,-1.21983 -3.49181,-0.36939 c -5.83009,-0.61675 -5.17153,-5.81383 0.74181,-5.85408 1.2375,-0.008 2.25,-0.50486 2.25,-1.10321 0,-1.01418 -7.25936,-0.41536 -9.25142,0.76314 -0.71777,0.42464 -0.0439,13.35091 0.84346,16.17851 0.24028,0.7657 1.10827,1.09149 1.99818,0.75 C 182.45556,295.27169 184.47677,295 186.08179,295 Z m 16,-2 c 4.26412,0 3.57075,-1.82526 -0.83179,-2.18963 -3.24461,-0.26854 -3.75,-0.64545 -3.75,-2.79667 0,-1.69939 0.633,-2.60049 2,-2.84707 C 203.08485,284.52 203.57593,283 200.2,283 c -2.69426,0 -3.2,-0.37225 -3.2,-2.35534 0,-1.76938 0.80853,-2.62368 3.25,-3.43398 3.2415,-1.07582 3.23824,-1.07815 -1.25,-0.89466 l -4.5,0.18398 0.21267,7.43152 c 0.25165,8.79404 0.75521,10.48665 2.87755,9.67223 C 198.45556,293.27169 200.47677,293 202.08179,293 Z m 101.11093,-5.89701 c 0.23714,-4.16507 0.7638,-5.64877 2.30728,-6.5 1.1,-0.60664 2.21197,-1.23996 2.47104,-1.40736 1.24951,-0.8074 -2.94064,-2.1667 -6.72104,-2.18032 -4.39934,-0.0159 -5.75761,1.35718 -2.25,2.27444 1.76939,0.4627 2,1.36401 2,7.81663 0,8.44585 1.7118,8.4432 2.19272,-0.003 z M 291,283.94098 C 291,279.57344 290.61603,276 290.14674,276 c -0.98369,0 -2.42303,14.74394 -1.57352,16.11847 C 290.0249,294.46735 291,291.18159 291,283.94098 Z M 213,288.5 c 0,-4.82098 3.01403,-4.79081 5.32403,0.0533 0.93195,1.95431 2.12064,3.2899 2.64154,2.96797 1.00041,-0.61829 0.39294,-3.15815 -1.26783,-5.30089 -0.66323,-0.85571 -0.6118,-2.11359 0.15524,-3.79706 2.65712,-5.83175 0.27444,-8.8051 -6.21239,-7.75243 L 210,275.26168 v 7.7025 c 0,4.23637 0.3,8.00249 0.66667,8.36915 C 212.16115,292.82781 213,291.80921 213,288.5 Z m -0.38951,-8.07265 c -0.86832,-2.26283 1.22852,-4.5933 3.802,-4.22561 1.48048,0.21153 2.08751,1.02525 2.08751,2.79826 0,1.95377 -0.57294,2.56644 -2.62225,2.8041 -1.73288,0.20095 -2.84102,-0.26599 -3.26726,-1.37675 z m 25.13951,8.82679 c 1.82464,-2.38867 1.60457,-11.75672 -0.32143,-13.68271 C 236.56429,274.70714 234.32584,274 232.45425,274 c -2.80849,0 -3.68858,0.55245 -5.03841,3.16275 -2.17548,4.20691 -1.33469,10.67479 1.70794,13.13856 2.5651,2.0771 6.61524,1.58543 8.62622,-1.04717 z m -8.48138,-1.99652 C 227.33973,282.23102 229.3621,276 232.92244,276 c 2.73538,0 4.07756,2.13956 4.07756,6.5 0,2.255 -0.54,4.64 -1.2,5.3 -1.7855,1.7855 -5.7649,1.45503 -6.53138,-0.54238 z m 32.50887,3.18568 c 1.95819,-1.37157 2.22251,-2.44193 2.22251,-9 0,-4.29553 -0.4229,-7.4433 -1,-7.4433 -0.55402,0 -1,2.6394 -1,5.91821 C 262,287.39223 261.36768,289 258.42819,289 255.27547,289 254,286.28262 254,279.56574 254,276.50458 253.55,274 253,274 c -1.3757,0 -1.26621,11.32164 0.13933,14.40646 1.02971,2.25996 2.39218,3.1393 5.38816,3.47754 0.56513,0.0638 2.02763,-0.58452 3.25,-1.4407 z M 273.78808,283.5 c 0.70844,0 2.28344,1.76502 3.5,3.92226 1.21655,2.15724 2.7083,4.0852 3.31498,4.28435 1.41243,0.46365 2.68058,-14.80977 1.34148,-16.15661 C 281.3508,274.95283 281,275.92871 281,278.17756 c 0,1.96765 -0.66776,4.13174 -1.4839,4.80908 -1.23262,1.02299 -1.78298,0.69236 -3.25,-1.95243 -4.70409,-8.48064 -6.2661,-7.8928 -6.2661,2.35814 0,8.23977 1.24515,11.01172 2,4.4524 0.30138,-2.61885 1.01167,-4.34475 1.78808,-4.34475 z"
       id="path279"
       inkscape:connector-curvature="0" />
    <path
       style="fill:#f5ee03"
       d="m 239.66151,402.96243 c -30.30067,-18.78037 -52.09201,-36.72899 -76.22978,-62.78728 -6.78853,-7.32867 -13.59917,-15.31076 -15.13475,-17.73798 -1.53557,-2.42722 -3.27939,-4.60018 -3.87516,-4.8288 -0.59577,-0.22862 -3.5219,0.42629 -6.50252,1.45534 -2.98061,1.02905 -7.34294,1.88569 -9.69405,1.90364 -3.7464,0.0286 -4.40941,-0.30724 -5.36425,-2.71735 -2.19503,-5.54048 -10.91115,-38.35985 -10.40503,-39.17876 0.28707,-0.46448 2.05669,-1.13244 3.9325,-1.48434 6.14942,-1.15364 6.25551,-2.15616 1.72614,-16.31137 -7.21907,-22.5611 -10.86685,-41.2076 -13.06316,-66.77553 -1.71759,-19.99494 -1.68556,-20.25793 2.69855,-22.15527 19.40745,-8.39909 25.92013,-13.3703 31.51959,-24.05929 3.40983,-6.50914 5.71325,-15.21616 5.74572,-21.7191 0.008,-1.68649 0.41232,-3.69329 0.89754,-4.45956 1.06202,-1.67718 33.69193,-9.16274 50.08715,-11.4904 43.30979,-6.14877 90.72495,-5.59969 127,1.47069 12.95636,2.52533 36.57708,8.22853 37.45947,9.04456 0.52771,0.48802 1.71476,5.38939 2.63791,10.89194 1.04952,6.2559 2.73949,12.10177 4.51019,15.6015 5.1438,10.16653 16.80559,19.60529 28.89243,23.38479 2.2,0.68793 4.5625,1.69724 5.25,2.24291 3.95576,3.13968 -1.66923,49.02785 -9.88636,80.65201 -2.22872,8.57737 -4.12229,17.17022 -4.20793,19.09522 -0.14487,3.25627 0.10543,3.56451 3.59429,4.42637 2.58611,0.63884 3.75,1.48016 3.75,2.71066 0,0.98137 -2.55174,10.85599 -5.67052,21.94361 -5.32748,18.93975 -5.84262,20.23167 -8.51521,21.35541 -2.19568,0.92321 -4.15306,0.92747 -8.57948,0.0186 -6.6635,-1.36813 -8.60932,-0.68767 -10.07759,3.5242 -0.84882,2.43495 -1.62195,3.02111 -3.98472,3.02111 -2.2906,0 -3.77282,1.03854 -6.77926,4.75 -11.83014,14.60436 -33.46159,34.57127 -51.89322,47.90005 -16.53599,11.95796 -43.35109,28.42994 -46.08617,28.30981 -0.50261,-0.0221 -6.69115,-3.62092 -13.75232,-7.99743 z m -3.50901,-58.60044 c 1.46872,-1.32918 2.09411,-1.40221 3.31691,-0.38738 2.01277,1.67046 2.76176,-0.28222 2.34368,-6.11021 -0.35996,-5.01778 -2.07471,-5.46961 -2.81309,-0.74123 -0.43798,2.80471 -0.6626,3.00485 -1.81087,1.61354 -0.72098,-0.87358 -1.17098,-2.34953 -1,-3.27988 0.17098,-0.93035 -0.46819,-2.19361 -1.42037,-2.80724 -1.35381,-0.87246 -2.10984,-0.73709 -3.46788,0.62096 -1.4374,1.4374 -1.5471,2.2388 -0.63663,4.65091 0.76138,2.01713 0.77994,3.23435 0.0603,3.95402 -0.71967,0.71967 -0.6457,1.51457 0.24031,2.58214 1.6363,1.97162 2.92973,1.94778 5.18767,-0.0956 z m 24.36299,0.25034 c 1.62515,-1.18833 2.22016,-1.17642 4.14217,0.0829 2.23787,1.46631 6.34234,1.00492 6.34234,-0.71296 0,-0.4856 -0.7875,-1.34705 -1.75,-1.91431 -1.22475,-0.72183 -1.40558,-1.262 -0.6025,-1.79969 1.86905,-1.25141 1.09231,-7.69473 -0.97561,-8.09297 -2.77697,-0.5348 -4.91705,1.84885 -4.32367,4.81575 0.66517,3.32587 -0.22057,4.51367 -3.34822,4.49002 -1.98984,-0.015 -2.5,-0.5252 -2.5,-2.5 0,-1.81164 0.6071,-2.56732 2.25,-2.80065 2.52206,-0.35819 2.82171,-1.20874 1.05,-2.98045 -1.6364,-1.6364 -3.351,-1.50615 -5.25645,0.39931 -1.30102,1.30102 -1.88177,1.36488 -3.11381,0.34238 -1.08958,-0.90427 -1.81919,-0.95224 -2.60045,-0.17098 -0.78127,0.78127 -1.61964,0.75535 -2.98813,-0.0924 -2.46138,-1.52473 -3.80448,0.38829 -3.82585,5.44923 -0.0178,4.22648 1.92192,6.49426 3.93348,4.59865 1.02808,-0.96882 1.39742,-0.96383 1.75954,0.0238 0.63586,1.73415 3.0159,1.56518 4.05285,-0.28773 0.7468,-1.33446 1.10433,-1.26836 2.70467,0.5 2.18527,2.41469 2.56884,2.46407 5.04964,0.65006 z m 21.54013,0.3579 c 1.61107,-0.86222 1.72857,-1.34294 0.72212,-2.95452 -0.66112,-1.05861 -0.9115,-2.21528 -0.55642,-2.57037 1.06077,-1.06076 2.77868,0.53339 2.77868,2.57849 0,2.78355 3.45477,4.37854 5.35913,2.47419 C 291.18304,343.67411 292.14643,343 292.5,343 c 0.35357,0 1.31696,0.67411 2.14087,1.49802 1.12158,1.12158 1.98315,1.23838 3.42858,0.46481 C 299.57604,344.15653 300,342.84707 300,339 c 0,-5.88659 -2.22282,-7.93309 -5.85405,-5.38967 -1.94219,1.36036 -2.32756,1.35092 -3.77084,-0.0924 -1.40236,-1.40237 -1.87871,-1.42754 -3.73169,-0.1972 -1.83642,1.21933 -2.43087,1.20938 -4.38878,-0.0735 -1.81766,-1.19098 -2.55973,-1.23897 -3.75965,-0.24313 -1.91721,1.5912 -1.91486,2.9959 0.005,2.9959 1.95051,0 1.89268,1.1423 -0.25,4.93801 -1.53917,2.7266 -1.56929,3.21642 -0.25,4.06573 1.86873,1.20301 1.74323,1.20405 4.05562,-0.0335 z M 288.15789,339 c 0,-1.375 0.22698,-1.9375 0.50439,-1.25 0.27741,0.6875 0.27741,1.8125 0,2.5 -0.27741,0.6875 -0.50439,0.125 -0.50439,-1.25 z m 8,0 c 0,-1.375 0.22698,-1.9375 0.50439,-1.25 0.27741,0.6875 0.27741,1.8125 0,2.5 -0.27741,0.6875 -0.50439,0.125 -0.50439,-1.25 z m 10.52594,0.11591 C 308.36471,334.14337 307.88476,332 305.0904,332 c -2.57479,0 -3.57447,1.7118 -2.06314,3.53284 0.75981,0.91552 0.9508,2.77059 0.52108,5.0612 -0.95664,5.09932 1.26633,4.05136 3.13549,-1.47813 z m 74.78246,-30.07866 c 2.75842,-3.04802 1.28127,-5.40007 -2.89887,-4.61588 -4.10414,0.76995 -4.99817,-0.31173 -4.12123,-4.98626 0.7214,-3.84535 2.7554,-4.46763 5.7487,-1.75874 2.44067,2.20878 4.3086,0.46583 3.3963,-3.16905 -0.88694,-3.53388 -6.62901,-6.08391 -9.86403,-4.38058 -6.00831,3.16355 -7.12161,13.46496 -2.05968,19.05833 2.20149,2.43261 7.53639,2.35213 9.79881,-0.14782 z M 132.32186,308.406 c 2.57298,-0.8767 4.74564,-2.0017 4.82814,-2.5 0.49109,-2.96619 0.0444,-3.4442 -3.65,-3.906 -3.92785,-0.49098 -4.01804,-0.59381 -5,-5.70067 -1.12965,-5.87495 -2.40899,-7.65522 -4.83278,-6.72512 -2.0524,0.78757 -2.07402,2.36119 -0.15762,11.47144 2.14267,10.1859 1.67243,9.79313 8.81226,7.36035 z M 365.5,304 c 0,-1.78639 -0.60592,-2.58645 -2.12272,-2.80287 -2.31674,-0.33056 -3.67923,1.85242 -2.71862,4.35574 C 361.65421,308.14723 365.5,306.91369 365.5,304 Z m -216.46483,-0.51819 c 3.62485,-1.87448 4.38909,-4.69575 3.50594,-12.94251 -0.71806,-6.70516 -2.15341,-9.00904 -4.94529,-7.9377 -1.42037,0.54505 -1.5637,1.67323 -1.0012,7.88065 0.46659,5.14895 0.31166,7.45764 -0.5356,7.98127 -1.78191,1.10128 -2.29287,0.12957 -3.53056,-6.71422 -0.84624,-4.67932 -1.5807,-6.32826 -2.93481,-6.58904 -3.29826,-0.63519 -3.8446,1.20462 -2.66767,8.98328 1.54881,10.23654 5.09049,12.96778 12.10919,9.33827 z m 206.40819,-2.18613 c 0.69952,-2.37297 1.60199,-3.27712 3.49145,-3.49792 3.5655,-0.41665 3.939,-3.51504 0.57778,-4.79297 -2.7657,-1.05152 -2.52535,-3.21724 0.326,-2.93749 3.2915,0.32294 4.16141,-0.0994 4.16141,-2.0203 0,-1.40498 -1.05225,-2.24522 -3.75,-2.99442 -5.87013,-1.63022 -7.96429,-1.33784 -8.57662,1.19742 -1.07586,4.45443 -1.8973,16.57868 -1.1997,17.70741 1.27933,2.07 4.00521,0.61003 4.96968,-2.66173 z M 162.8,299.8 c 0.66,-0.66 1.2,-2.20844 1.2,-3.44098 0,-3.54239 1.94587,-3.81276 3.1237,-0.43403 0.77696,2.22881 1.70356,3.07501 3.36714,3.07501 2.87761,0 3.18251,-0.83101 4.08004,-11.12016 0.78984,-9.05454 2.23153,-8.5727 2.35883,0.78837 0.10628,7.81482 0.5076,8.3341 6.42728,8.31648 5.97934,-0.0178 7.98067,-0.98182 7.48309,-3.60452 -0.25963,-1.36846 -1.37505,-1.96464 -4.0984,-2.19054 -4.60551,-0.38201 -4.84749,-1.8459 -0.49168,-2.97461 2.25784,-0.58506 3.25,-1.43331 3.25,-2.77859 0,-1.45375 -0.81011,-2.01454 -3.25,-2.24979 C 182.79981,282.85398 181.67063,281 184.91821,281 188.11008,281 190,279.8843 190,278 c 0,-0.98231 -0.61959,-2.02378 -1.37686,-2.31437 -1.99047,-0.76382 -9.88162,0.39273 -11.51217,1.68725 -0.76396,0.60652 -2.45041,0.96368 -3.74765,0.79369 -1.78046,-0.23332 -2.60724,0.34479 -3.3728,2.35836 l -1.01416,2.66744 -1.83242,-2.26294 c -2.11422,-2.61096 -5.03159,-2.07505 -5.85551,1.07562 -0.6624,2.53301 -1.05098,2.50311 -3.31362,-0.25505 -1.64503,-2.00528 -2.01236,-2.08656 -3.37733,-0.74725 -1.37456,1.34871 -1.30429,2.32253 0.68548,9.5 1.21937,4.39849 2.5811,8.55975 3.02606,9.24725 1.02254,1.57992 2.93972,1.60126 4.49098,0.05 z m 176.01831,-1.1066 c 2.99428,-3.18726 3.88771,-10.42742 1.78784,-14.48813 -1.82917,-3.53722 -8.78752,-6.20936 -11.5854,-4.44902 -1.5413,0.96974 -3.37532,12.22503 -2.80337,17.2042 0.48884,4.25576 9.11623,5.44224 12.60093,1.73295 z m -6.35841,-4.75829 c -1.04547,-1.69159 0.50228,-8.11432 1.84746,-7.66646 1.50958,0.5026 2.0463,3.18611 1.26214,6.31044 -0.63986,2.54942 -2.00431,3.14442 -3.1096,1.35602 z m -8.54783,3.67084 C 325.45554,295.74618 322.78237,293 319.42857,293 c -3.75798,0 -3.03979,-2.8142 0.81324,-3.18664 4.50225,-0.4352 5.09447,-3.5961 0.83343,-4.44831 C 317.11958,284.57392 317.09039,283 321.03138,283 c 3.32493,0 4.99949,-2.36866 3.05213,-4.31722 -0.65014,-0.65053 -4.01533,-1.22573 -7.47822,-1.27823 -3.46288,-0.0525 -6.86268,-0.44559 -7.55511,-0.87354 -0.69242,-0.42794 -4.13698,-1.00909 -7.65457,-1.29145 C 295.06095,274.73107 295,274.75067 295,277.2957 c 0,1.69127 0.6836,2.78649 2,3.2043 1.76367,0.55977 2,1.51303 2,8.06739 0,7.15713 0.088,7.43261 2.375,7.43261 2.5531,0 3.625,-2.82443 3.625,-9.55176 0,-2.70265 0.57021,-3.58622 3.14251,-4.86945 l 3.14252,-1.56769 -0.54511,7.95285 c -0.58331,8.51035 -0.17916,9.48788 4.26008,10.30405 4.97121,0.91398 7.77707,0.70554 8.91207,-0.66205 z m -118.06368,-3.49109 c 0.74162,-0.46998 1.18788,-1.70059 0.99169,-2.73469 -0.25963,-1.36846 -1.37505,-1.96464 -4.0984,-2.19054 -4.50108,-0.37335 -4.91469,-2.00503 -0.72087,-2.84379 1.66144,-0.33229 3.2379,-0.95543 3.50324,-1.38476 1.07458,-1.7387 -0.88059,-3.86801 -3.85916,-4.20287 -2.68773,-0.30217 -2.86335,-0.47242 -1.16489,-1.12917 7.05101,-2.72643 6.91125,-5.01967 -0.33118,-5.43411 -7.85964,-0.44977 -8.46172,0.39848 -7.62252,10.73928 0.38232,4.71119 0.89237,8.90329 1.13344,9.31579 0.60198,1.03009 10.50348,0.92013 12.16865,-0.13514 z m 86.38275,-2.92704 c 0.47161,-1.82001 0.72504,-6.31932 0.56317,-9.99847 C 292.51316,274.79919 292.38818,274.5 290,274.5 c -2.45806,0 -2.50489,0.14966 -2.79142,8.92086 -0.16029,4.90647 -0.0491,9.55223 0.24697,10.3239 0.94345,2.4586 3.88389,0.88423 4.77559,-2.55694 z m -77.77156,-0.42953 1.36304,-3.2417 1.21059,2.65695 c 1.21979,2.67715 3.40911,3.85682 5.71679,3.08037 1.67413,-0.56328 1.57552,-2.72373 -0.28886,-6.32905 -1.33008,-2.57211 -1.34813,-3.24812 -0.13302,-4.98293 1.32131,-1.88643 1.44691,-1.75029 2.08886,2.26425 0.92387,5.77755 3.90272,8.79382 8.68475,8.79382 5.27695,0 7.89827,-3.4848 7.89827,-10.5 0,-7.40157 -2.68692,-10.71669 -8.34978,-10.30195 -3.39754,0.24883 -4.47716,0.86696 -6.13655,3.51343 -2.2912,3.6541 -3.51367,4.145 -3.51367,1.41096 0,-3.14154 -2.44176,-4.24747 -8.66563,-3.92486 L 208.5,273.5 l -0.29038,8.84889 c -0.29368,8.9496 0.50884,11.65111 3.4611,11.65111 0.7842,0 2.03919,-1.45877 2.78886,-3.24171 z m 15.96918,-6.18612 c -0.86016,-3.42714 0.39577,-6.75156 2.40668,-6.37041 1.17889,0.22344 1.75428,1.55301 1.97206,4.55687 0.26839,3.70193 0.0482,4.24137 -1.73095,4.24137 -1.32419,0 -2.25196,-0.85069 -2.64779,-2.42783 z M 214.5,279 c 0.33992,-0.55 1.04148,-1 1.55902,-1 0.51754,0 0.94098,0.45 0.94098,1 0,0.55 -0.70156,1 -1.55902,1 -0.85746,0 -1.2809,-0.45 -0.94098,-1 z m 59.06842,12.25 c 0.33359,-1.5125 0.70423,-3.1612 0.82364,-3.66378 0.11942,-0.50258 1.20811,0.76582 2.41932,2.81866 1.66474,2.82152 2.74966,3.65467 4.44541,3.41378 2.15349,-0.30591 2.24321,-0.71862 2.24321,-10.31866 0,-9.33333 -0.13333,-10 -2,-10 -1.43844,0 -2.08884,0.77214 -2.31642,2.75 -0.41391,3.5972 -1.75223,3.48483 -3.71563,-0.31199 -1.15536,-2.23422 -2.17607,-2.97764 -3.77568,-2.75 -1.98234,0.28211 -2.27834,1.14685 -3.09103,9.03029 -0.68751,6.66909 -0.59996,9.07831 0.37245,10.25 1.95024,2.34989 3.92312,1.82678 4.59473,-1.2183 z m -9.12512,-0.47251 c 2.18193,-3.11514 2.21647,-17.58708 0.044,-18.42075 -3.01129,-1.15553 -4.4873,1.58746 -4.4873,8.33903 0,5.6037 -0.22982,6.40721 -1.75,6.11836 -1.40781,-0.2675 -1.84777,-1.69947 -2.25,-7.32332 -0.44871,-6.2737 -0.72718,-7.02311 -2.71465,-7.30573 -2.85507,-0.40598 -3.7425,2.8368 -3.00428,10.97801 0.69172,7.6284 2.55904,9.83691 8.31721,9.83691 3.2978,0 4.64788,-0.51335 5.84502,-2.22251 z"
       id="path277"
       inkscape:connector-curvature="0" />
    <path
       style="fill:#0f96d2"
       d="m 239.66151,402.96243 c -30.30067,-18.78037 -52.09201,-36.72899 -76.22978,-62.78728 -6.78853,-7.32867 -13.59917,-15.31076 -15.13475,-17.73798 -1.53557,-2.42722 -3.27939,-4.60018 -3.87516,-4.8288 -0.59577,-0.22862 -3.5219,0.42629 -6.50252,1.45534 -2.98061,1.02905 -7.34294,1.88569 -9.69405,1.90364 -3.7464,0.0286 -4.40941,-0.30724 -5.36425,-2.71735 -2.19503,-5.54048 -10.91115,-38.35985 -10.40503,-39.17876 0.28707,-0.46448 2.05669,-1.13244 3.9325,-1.48434 6.14942,-1.15364 6.25551,-2.15616 1.72614,-16.31137 -7.21907,-22.5611 -10.86685,-41.2076 -13.06316,-66.77553 -1.71759,-19.99494 -1.68556,-20.25793 2.69855,-22.15527 19.40745,-8.39909 25.92013,-13.3703 31.51959,-24.05929 3.40983,-6.50914 5.71325,-15.21616 5.74572,-21.7191 0.008,-1.68649 0.41232,-3.69329 0.89754,-4.45956 1.06202,-1.67718 33.69193,-9.16274 50.08715,-11.4904 43.30979,-6.14877 90.72495,-5.59969 127,1.47069 12.95636,2.52533 36.57708,8.22853 37.45947,9.04456 0.52771,0.48802 1.71476,5.38939 2.63791,10.89194 1.04952,6.2559 2.73949,12.10177 4.51019,15.6015 5.1438,10.16653 16.80559,19.60529 28.89243,23.38479 2.2,0.68793 4.5625,1.69724 5.25,2.24291 3.95576,3.13968 -1.66923,49.02785 -9.88636,80.65201 -2.22872,8.57737 -4.12229,17.17022 -4.20793,19.09522 -0.14487,3.25627 0.10543,3.56451 3.59429,4.42637 2.58611,0.63884 3.75,1.48016 3.75,2.71066 0,0.98137 -2.55174,10.85599 -5.67052,21.94361 -5.32748,18.93975 -5.84262,20.23167 -8.51521,21.35541 -2.19568,0.92321 -4.15306,0.92747 -8.57948,0.0186 -6.6635,-1.36813 -8.60932,-0.68767 -10.07759,3.5242 -0.84882,2.43495 -1.62195,3.02111 -3.98472,3.02111 -2.2906,0 -3.77282,1.03854 -6.77926,4.75 -11.83014,14.60436 -33.46159,34.57127 -51.89322,47.90005 -16.53599,11.95796 -43.35109,28.42994 -46.08617,28.30981 -0.50261,-0.0221 -6.69115,-3.62092 -13.75232,-7.99743 z m -3.50901,-58.60044 c 1.46872,-1.32918 2.09411,-1.40221 3.31691,-0.38738 2.01277,1.67046 2.76176,-0.28222 2.34368,-6.11021 -0.35996,-5.01778 -2.07471,-5.46961 -2.81309,-0.74123 -0.43798,2.80471 -0.6626,3.00485 -1.81087,1.61354 -0.72098,-0.87358 -1.17098,-2.34953 -1,-3.27988 0.17098,-0.93035 -0.46819,-2.19361 -1.42037,-2.80724 -1.35381,-0.87246 -2.10984,-0.73709 -3.46788,0.62096 -1.4374,1.4374 -1.5471,2.2388 -0.63663,4.65091 0.76138,2.01713 0.77994,3.23435 0.0603,3.95402 -0.71967,0.71967 -0.6457,1.51457 0.24031,2.58214 1.6363,1.97162 2.92973,1.94778 5.18767,-0.0956 z m 24.36299,0.25034 c 1.62515,-1.18833 2.22016,-1.17642 4.14217,0.0829 2.23787,1.46631 6.34234,1.00492 6.34234,-0.71296 0,-0.4856 -0.7875,-1.34705 -1.75,-1.91431 -1.22475,-0.72183 -1.40558,-1.262 -0.6025,-1.79969 1.86905,-1.25141 1.09231,-7.69473 -0.97561,-8.09297 -2.77697,-0.5348 -4.91705,1.84885 -4.32367,4.81575 0.66517,3.32587 -0.22057,4.51367 -3.34822,4.49002 -1.98984,-0.015 -2.5,-0.5252 -2.5,-2.5 0,-1.81164 0.6071,-2.56732 2.25,-2.80065 2.52206,-0.35819 2.82171,-1.20874 1.05,-2.98045 -1.6364,-1.6364 -3.351,-1.50615 -5.25645,0.39931 -1.30102,1.30102 -1.88177,1.36488 -3.11381,0.34238 -1.08958,-0.90427 -1.81919,-0.95224 -2.60045,-0.17098 -0.78127,0.78127 -1.61964,0.75535 -2.98813,-0.0924 -2.46138,-1.52473 -3.80448,0.38829 -3.82585,5.44923 -0.0178,4.22648 1.92192,6.49426 3.93348,4.59865 1.02808,-0.96882 1.39742,-0.96383 1.75954,0.0238 0.63586,1.73415 3.0159,1.56518 4.05285,-0.28773 0.7468,-1.33446 1.10433,-1.26836 2.70467,0.5 2.18527,2.41469 2.56884,2.46407 5.04964,0.65006 z m 21.54013,0.3579 c 1.61107,-0.86222 1.72857,-1.34294 0.72212,-2.95452 -0.66112,-1.05861 -0.9115,-2.21528 -0.55642,-2.57037 1.06077,-1.06076 2.77868,0.53339 2.77868,2.57849 0,2.78355 3.45477,4.37854 5.35913,2.47419 C 291.18304,343.67411 292.14643,343 292.5,343 c 0.35357,0 1.31696,0.67411 2.14087,1.49802 1.12158,1.12158 1.98315,1.23838 3.42858,0.46481 C 299.57604,344.15653 300,342.84707 300,339 c 0,-5.88659 -2.22282,-7.93309 -5.85405,-5.38967 -1.94219,1.36036 -2.32756,1.35092 -3.77084,-0.0924 -1.40236,-1.40237 -1.87871,-1.42754 -3.73169,-0.1972 -1.83642,1.21933 -2.43087,1.20938 -4.38878,-0.0735 -1.81766,-1.19098 -2.55973,-1.23897 -3.75965,-0.24313 -1.91721,1.5912 -1.91486,2.9959 0.005,2.9959 1.95051,0 1.89268,1.1423 -0.25,4.93801 -1.53917,2.7266 -1.56929,3.21642 -0.25,4.06573 1.86873,1.20301 1.74323,1.20405 4.05562,-0.0335 z M 288.15789,339 c 0,-1.375 0.22698,-1.9375 0.50439,-1.25 0.27741,0.6875 0.27741,1.8125 0,2.5 -0.27741,0.6875 -0.50439,0.125 -0.50439,-1.25 z m 8,0 c 0,-1.375 0.22698,-1.9375 0.50439,-1.25 0.27741,0.6875 0.27741,1.8125 0,2.5 -0.27741,0.6875 -0.50439,0.125 -0.50439,-1.25 z m 10.52594,0.11591 C 308.36471,334.14337 307.88476,332 305.0904,332 c -2.57479,0 -3.57447,1.7118 -2.06314,3.53284 0.75981,0.91552 0.9508,2.77059 0.52108,5.0612 -0.95664,5.09932 1.26633,4.05136 3.13549,-1.47813 z m 74.78246,-30.07866 c 2.75842,-3.04802 1.28127,-5.40007 -2.89887,-4.61588 -4.10414,0.76995 -4.99817,-0.31173 -4.12123,-4.98626 0.7214,-3.84535 2.7554,-4.46763 5.7487,-1.75874 2.44067,2.20878 4.3086,0.46583 3.3963,-3.16905 -0.88694,-3.53388 -6.62901,-6.08391 -9.86403,-4.38058 -6.00831,3.16355 -7.12161,13.46496 -2.05968,19.05833 2.20149,2.43261 7.53639,2.35213 9.79881,-0.14782 z M 132.32186,308.406 c 2.57298,-0.8767 4.74564,-2.0017 4.82814,-2.5 0.49109,-2.96619 0.0444,-3.4442 -3.65,-3.906 -3.92785,-0.49098 -4.01804,-0.59381 -5,-5.70067 -1.12965,-5.87495 -2.40899,-7.65522 -4.83278,-6.72512 -2.0524,0.78757 -2.07402,2.36119 -0.15762,11.47144 2.14267,10.1859 1.67243,9.79313 8.81226,7.36035 z M 365.5,304 c 0,-1.78639 -0.60592,-2.58645 -2.12272,-2.80287 -2.31674,-0.33056 -3.67923,1.85242 -2.71862,4.35574 C 361.65421,308.14723 365.5,306.91369 365.5,304 Z m -216.46483,-0.51819 c 3.62485,-1.87448 4.38909,-4.69575 3.50594,-12.94251 -0.71806,-6.70516 -2.15341,-9.00904 -4.94529,-7.9377 -1.42037,0.54505 -1.5637,1.67323 -1.0012,7.88065 0.46659,5.14895 0.31166,7.45764 -0.5356,7.98127 -1.78191,1.10128 -2.29287,0.12957 -3.53056,-6.71422 -0.84624,-4.67932 -1.5807,-6.32826 -2.93481,-6.58904 -3.29826,-0.63519 -3.8446,1.20462 -2.66767,8.98328 1.54881,10.23654 5.09049,12.96778 12.10919,9.33827 z m 206.40819,-2.18613 c 0.69952,-2.37297 1.60199,-3.27712 3.49145,-3.49792 3.5655,-0.41665 3.939,-3.51504 0.57778,-4.79297 -2.7657,-1.05152 -2.52535,-3.21724 0.326,-2.93749 3.2915,0.32294 4.16141,-0.0994 4.16141,-2.0203 0,-1.40498 -1.05225,-2.24522 -3.75,-2.99442 -5.87013,-1.63022 -7.96429,-1.33784 -8.57662,1.19742 -1.07586,4.45443 -1.8973,16.57868 -1.1997,17.70741 1.27933,2.07 4.00521,0.61003 4.96968,-2.66173 z M 162.8,299.8 c 0.66,-0.66 1.2,-2.20844 1.2,-3.44098 0,-3.54239 1.94587,-3.81276 3.1237,-0.43403 0.77696,2.22881 1.70356,3.07501 3.36714,3.07501 2.87761,0 3.18251,-0.83101 4.08004,-11.12016 0.78984,-9.05454 2.23153,-8.5727 2.35883,0.78837 0.10628,7.81482 0.5076,8.3341 6.42728,8.31648 5.97934,-0.0178 7.98067,-0.98182 7.48309,-3.60452 -0.25963,-1.36846 -1.37505,-1.96464 -4.0984,-2.19054 -4.60551,-0.38201 -4.84749,-1.8459 -0.49168,-2.97461 2.25784,-0.58506 3.25,-1.43331 3.25,-2.77859 0,-1.45375 -0.81011,-2.01454 -3.25,-2.24979 C 182.79981,282.85398 181.67063,281 184.91821,281 188.11008,281 190,279.8843 190,278 c 0,-0.98231 -0.61959,-2.02378 -1.37686,-2.31437 -1.99047,-0.76382 -9.88162,0.39273 -11.51217,1.68725 -0.76396,0.60652 -2.45041,0.96368 -3.74765,0.79369 -1.78046,-0.23332 -2.60724,0.34479 -3.3728,2.35836 l -1.01416,2.66744 -1.83242,-2.26294 c -2.11422,-2.61096 -5.03159,-2.07505 -5.85551,1.07562 -0.6624,2.53301 -1.05098,2.50311 -3.31362,-0.25505 -1.64503,-2.00528 -2.01236,-2.08656 -3.37733,-0.74725 -1.37456,1.34871 -1.30429,2.32253 0.68548,9.5 1.21937,4.39849 2.5811,8.55975 3.02606,9.24725 1.02254,1.57992 2.93972,1.60126 4.49098,0.05 z m 176.01831,-1.1066 c 2.99428,-3.18726 3.88771,-10.42742 1.78784,-14.48813 -1.82917,-3.53722 -8.78752,-6.20936 -11.5854,-4.44902 -1.5413,0.96974 -3.37532,12.22503 -2.80337,17.2042 0.48884,4.25576 9.11623,5.44224 12.60093,1.73295 z m -6.35841,-4.75829 c -1.04547,-1.69159 0.50228,-8.11432 1.84746,-7.66646 1.50958,0.5026 2.0463,3.18611 1.26214,6.31044 -0.63986,2.54942 -2.00431,3.14442 -3.1096,1.35602 z m -8.54783,3.67084 C 325.45554,295.74618 322.78237,293 319.42857,293 c -3.75798,0 -3.03979,-2.8142 0.81324,-3.18664 4.50225,-0.4352 5.09447,-3.5961 0.83343,-4.44831 C 317.11958,284.57392 317.09039,283 321.03138,283 c 3.32493,0 4.99949,-2.36866 3.05213,-4.31722 -0.65014,-0.65053 -4.01533,-1.22573 -7.47822,-1.27823 -3.46288,-0.0525 -6.86268,-0.44559 -7.55511,-0.87354 -0.69242,-0.42794 -4.13698,-1.00909 -7.65457,-1.29145 C 295.06095,274.73107 295,274.75067 295,277.2957 c 0,1.69127 0.6836,2.78649 2,3.2043 1.76367,0.55977 2,1.51303 2,8.06739 0,7.15713 0.088,7.43261 2.375,7.43261 2.5531,0 3.625,-2.82443 3.625,-9.55176 0,-2.70265 0.57021,-3.58622 3.14251,-4.86945 l 3.14252,-1.56769 -0.54511,7.95285 c -0.58331,8.51035 -0.17916,9.48788 4.26008,10.30405 4.97121,0.91398 7.77707,0.70554 8.91207,-0.66205 z m -118.06368,-3.49109 c 0.74162,-0.46998 1.18788,-1.70059 0.99169,-2.73469 -0.25963,-1.36846 -1.37505,-1.96464 -4.0984,-2.19054 -4.50108,-0.37335 -4.91469,-2.00503 -0.72087,-2.84379 1.66144,-0.33229 3.2379,-0.95543 3.50324,-1.38476 1.07458,-1.7387 -0.88059,-3.86801 -3.85916,-4.20287 -2.68773,-0.30217 -2.86335,-0.47242 -1.16489,-1.12917 7.05101,-2.72643 6.91125,-5.01967 -0.33118,-5.43411 -7.85964,-0.44977 -8.46172,0.39848 -7.62252,10.73928 0.38232,4.71119 0.89237,8.90329 1.13344,9.31579 0.60198,1.03009 10.50348,0.92013 12.16865,-0.13514 z m 86.38275,-2.92704 c 0.47161,-1.82001 0.72504,-6.31932 0.56317,-9.99847 C 292.51316,274.79919 292.38818,274.5 290,274.5 c -2.45806,0 -2.50489,0.14966 -2.79142,8.92086 -0.16029,4.90647 -0.0491,9.55223 0.24697,10.3239 0.94345,2.4586 3.88389,0.88423 4.77559,-2.55694 z m -77.77156,-0.42953 1.36304,-3.2417 1.21059,2.65695 c 1.21979,2.67715 3.40911,3.85682 5.71679,3.08037 1.67413,-0.56328 1.57552,-2.72373 -0.28886,-6.32905 -1.33008,-2.57211 -1.34813,-3.24812 -0.13302,-4.98293 1.32131,-1.88643 1.44691,-1.75029 2.08886,2.26425 0.92387,5.77755 3.90272,8.79382 8.68475,8.79382 5.27695,0 7.89827,-3.4848 7.89827,-10.5 0,-7.40157 -2.68692,-10.71669 -8.34978,-10.30195 -3.39754,0.24883 -4.47716,0.86696 -6.13655,3.51343 -2.2912,3.6541 -3.51367,4.145 -3.51367,1.41096 0,-3.14154 -2.44176,-4.24747 -8.66563,-3.92486 L 208.5,273.5 l -0.29038,8.84889 c -0.29368,8.9496 0.50884,11.65111 3.4611,11.65111 0.7842,0 2.03919,-1.45877 2.78886,-3.24171 z m 15.96918,-6.18612 c -0.86016,-3.42714 0.39577,-6.75156 2.40668,-6.37041 1.17889,0.22344 1.75428,1.55301 1.97206,4.55687 0.26839,3.70193 0.0482,4.24137 -1.73095,4.24137 -1.32419,0 -2.25196,-0.85069 -2.64779,-2.42783 z M 214.5,279 c 0.33992,-0.55 1.04148,-1 1.55902,-1 0.51754,0 0.94098,0.45 0.94098,1 0,0.55 -0.70156,1 -1.55902,1 -0.85746,0 -1.2809,-0.45 -0.94098,-1 z m 59.06842,12.25 c 0.33359,-1.5125 0.70423,-3.1612 0.82364,-3.66378 0.11942,-0.50258 1.20811,0.76582 2.41932,2.81866 1.66474,2.82152 2.74966,3.65467 4.44541,3.41378 2.15349,-0.30591 2.24321,-0.71862 2.24321,-10.31866 0,-9.33333 -0.13333,-10 -2,-10 -1.43844,0 -2.08884,0.77214 -2.31642,2.75 -0.41391,3.5972 -1.75223,3.48483 -3.71563,-0.31199 -1.15536,-2.23422 -2.17607,-2.97764 -3.77568,-2.75 -1.98234,0.28211 -2.27834,1.14685 -3.09103,9.03029 -0.68751,6.66909 -0.59996,9.07831 0.37245,10.25 1.95024,2.34989 3.92312,1.82678 4.59473,-1.2183 z m -9.12512,-0.47251 c 2.18193,-3.11514 2.21647,-17.58708 0.044,-18.42075 -3.01129,-1.15553 -4.4873,1.58746 -4.4873,8.33903 0,5.6037 -0.22982,6.40721 -1.75,6.11836 -1.40781,-0.2675 -1.84777,-1.69947 -2.25,-7.32332 -0.44871,-6.2737 -0.72718,-7.02311 -2.71465,-7.30573 -2.85507,-0.40598 -3.7425,2.8368 -3.00428,10.97801 0.69172,7.6284 2.55904,9.83691 8.31721,9.83691 3.2978,0 4.64788,-0.51335 5.84502,-2.22251 z M 159.88638,257.01943 c 17.76552,-3.39136 35.36405,-5.80576 48.88025,-6.70604 13.34049,-0.88857 13.08125,-0.52821 10.95096,-15.22281 -1.67856,-11.57861 -2.04954,-12.6639 -8.7353,-25.55501 C 207.14203,202.131 204,195.15635 204,194.03636 204,192.91636 203.77401,192 203.4978,192 c -0.27621,0 -3.21794,1.4625 -6.53719,3.25 -4.32895,2.33125 -6.18727,3.95673 -6.57367,5.75 -0.29628,1.375 -1.81206,5.425 -3.36841,9 -4.05478,9.31402 -4.38285,10.69051 -4.45761,18.70314 -0.037,3.96173 -0.5442,7.68014 -1.12719,8.26313 -1.24794,1.24794 -6.91575,-0.36914 -9.68373,-2.76286 -1.96138,-1.69619 -2.3397,-5.72092 -0.63668,-6.77344 2.06149,-1.27408 4.89816,-9.2075 7.00917,-19.60281 1.15344,-5.67994 2.54374,-11.17103 3.08956,-12.20243 1.96553,-3.71412 7.41189,-10.21933 12.63654,-15.09325 2.92933,-2.73269 5.95085,-6.17674 6.71449,-7.65346 C 202.34206,169.43785 207.8971,166 211.6769,166 c 5.23583,0 6.88128,-2.09897 6.40485,-8.17019 -1.06313,-13.54768 -0.86036,-14.72816 3.16319,-18.41547 2.78289,-2.55033 4.62766,-3.41434 7.29003,-3.41434 3.9926,0 8.08057,1.81271 10.75668,4.76978 3.08349,3.40722 2.3788,18.54442 -1.04535,22.4547 -0.83055,0.94847 -1.60447,3.27903 -1.71982,5.17903 -0.16792,2.76568 0.35529,3.87229 2.62378,5.54946 1.55844,1.1522 3.84967,3.94309 5.09163,6.20197 1.24196,2.25888 2.84516,5.17311 3.56268,6.47606 0.71751,1.30295 1.73438,2.369 2.25971,2.369 0.52533,0 1.96727,2.1375 3.20431,4.75 2.13026,4.49889 2.48234,4.76669 6.66007,5.06579 6.73973,0.48253 8.90584,-0.46375 14.58029,-6.36947 2.87817,-2.99547 5.98906,-5.44632 6.91307,-5.44632 2.05489,0 4.81266,6.17133 4.38446,9.81154 -0.24617,2.09271 -1.21833,2.9305 -4.94009,4.25728 -2.54848,0.90851 -6.14898,2.80768 -8.0011,4.22036 -3.6947,2.81808 -12.14302,6.71082 -14.56435,6.71082 -0.84329,0 -4.39632,-2.25 -7.89563,-5 -8.07045,-6.34232 -10.12973,-6.64054 -6.90531,-1 0.78602,1.375 1.45185,4.075 1.47962,6 0.0278,1.925 0.68566,5.3 1.46198,7.5 l 1.41149,4 7.95547,-0.29597 c 4.37551,-0.16278 11.72107,0.18292 16.32346,0.76823 7.90593,1.00544 8.44374,0.95276 9.73995,-0.95403 2.84556,-4.18594 8.78262,-1.04116 7.75305,4.10669 -0.30773,1.53864 -0.12425,3.06654 0.40773,3.39532 1.48116,0.91541 1.14923,8.61929 -0.44814,10.40102 -0.77846,0.86831 -1.72146,3.22849 -2.09555,5.24485 l -0.68016,3.6661 5.34555,0.55571 c 2.94005,0.30564 10.74555,1.04861 17.34555,1.65104 14.05007,1.28247 27.28006,3.11335 44.13462,6.10773 6.67404,1.18571 12.79353,1.90299 13.59886,1.59396 1.91022,-0.73302 8.10344,-19.51224 10.63269,-32.24065 2.3738,-11.94613 3.54717,-29.25964 2.40517,-35.48905 -0.76043,-4.14802 -1.35276,-4.83904 -7.79715,-9.09627 -12.58878,-8.31628 -21.92323,-20.2754 -26.87248,-34.42853 -1.27559,-3.64775 -2.94531,-7.22806 -3.71048,-7.95626 -0.76518,-0.72819 -8.36623,-2.6978 -16.89123,-4.37691 -53.11173,-10.46103 -96.47324,-10.47465 -144.80053,-0.0455 -14.28215,3.08213 -15.86072,3.91258 -17.23493,9.06685 -1.77235,6.64756 -7.19303,17.01254 -12.29041,23.50069 -4.53762,5.77566 -10.7315,11.07293 -19.30336,16.50904 L 127,187.95595 l 0.004,12.27203 c 0.006,17.83763 3.17771,34.66464 10.18306,54.02202 2.51656,6.95383 1.45678,6.82453 22.6993,2.76943 z M 296,229.15499 C 296,227.75885 299.53821,225 301.32874,225 c 2.33755,0 2.08152,1.59923 -0.55125,3.4433 C 298.35292,230.14153 296,230.49204 296,229.15499 Z m -3.37276,-10.684 c -1.32198,-3.44502 -0.63137,-6.14808 1.86091,-7.28364 3.16702,-1.44299 5.37081,-0.59746 6.10904,2.34386 1.09107,4.34717 0.13969,5.94755 -3.72826,6.27157 -2.61689,0.21921 -3.78756,-0.14835 -4.24169,-1.33179 z M 280,212 c 0,-2.3805 3.62595,-6.29115 5.3125,-5.72963 1.93091,0.64287 1.99488,3.7325 0.12017,5.80403 C 283.11027,214.64062 280,214.59802 280,212 Z m 14.69385,-6.63948 c -0.35171,-0.35171 -0.4123,-1.00706 -0.13464,-1.45633 0.62351,-1.00885 3.44079,-0.024 3.44079,1.2028 0,1.0261 -2.35313,1.20654 -3.30615,0.25353 z M 242,196.46862 c 0,-1.61208 -2.66157,-3.14038 -3.68563,-2.11632 -0.71223,0.71222 1.54756,3.6477 2.80807,3.6477 C 241.6051,198 242,197.31088 242,196.46862 Z M 210.5,188 c 0.33992,-0.55 0.16803,-1 -0.38197,-1 -0.55,0 -1.27811,0.45 -1.61803,1 -0.33992,0.55 -0.16803,1 0.38197,1 0.55,0 1.27811,-0.45 1.61803,-1 z"
       id="path275"
       inkscape:connector-curvature="0" />
    <path
       style="fill:#cf2b20"
       d="M 245.4151,393.19064 C 223.04349,379.59725 194.01095,356.4566 178.42647,339.79675 171.11756,331.98349 158,316.48522 158,315.66305 c 0,-1.41706 4.49098,-2.696 16.09261,-4.58283 15.56171,-2.53087 26.04281,-3.83678 36.90739,-4.59852 4.675,-0.32778 12.55,-1.03644 17.5,-1.57481 11.96339,-1.30116 57.69953,0.43584 80,3.03829 19.11545,2.23076 39.57095,5.73773 40.84264,7.00223 1.17097,1.16435 -0.68935,4.40131 -7.21411,12.55259 -14.37685,17.96075 -34.83354,36.261 -58.39033,52.23512 C 271.94496,387.73224 255.12441,398 253.81683,398 c -0.26765,0 -4.04843,-2.16421 -8.40173,-4.80936 z m -9.2626,-48.82865 c 1.46872,-1.32918 2.09411,-1.40221 3.31691,-0.38738 2.01277,1.67046 2.76176,-0.28222 2.34368,-6.11021 -0.35996,-5.01778 -2.07471,-5.46961 -2.81309,-0.74123 -0.43798,2.80471 -0.6626,3.00485 -1.81087,1.61354 -0.72098,-0.87358 -1.17098,-2.34953 -1,-3.27988 0.17098,-0.93035 -0.46819,-2.19361 -1.42037,-2.80724 -1.35381,-0.87246 -2.10984,-0.73709 -3.46788,0.62096 -1.4374,1.4374 -1.5471,2.2388 -0.63663,4.65091 0.76138,2.01713 0.77994,3.23435 0.0603,3.95402 -0.71967,0.71967 -0.6457,1.51457 0.24031,2.58214 1.6363,1.97162 2.92973,1.94778 5.18767,-0.0956 z m 24.36299,0.25034 c 1.62515,-1.18833 2.22016,-1.17642 4.14217,0.0829 2.23787,1.46631 6.34234,1.00492 6.34234,-0.71296 0,-0.4856 -0.7875,-1.34705 -1.75,-1.91431 -1.22475,-0.72183 -1.40558,-1.262 -0.6025,-1.79969 1.86905,-1.25141 1.09231,-7.69473 -0.97561,-8.09297 -2.77697,-0.5348 -4.91705,1.84885 -4.32367,4.81575 0.66517,3.32587 -0.22057,4.51367 -3.34822,4.49002 -1.98984,-0.015 -2.5,-0.5252 -2.5,-2.5 0,-1.81164 0.6071,-2.56732 2.25,-2.80065 2.52206,-0.35819 2.82171,-1.20874 1.05,-2.98045 -1.6364,-1.6364 -3.351,-1.50615 -5.25645,0.39931 -1.30102,1.30102 -1.88177,1.36488 -3.11381,0.34238 -1.08958,-0.90427 -1.81919,-0.95224 -2.60045,-0.17098 -0.78127,0.78127 -1.61964,0.75535 -2.98813,-0.0924 -2.46138,-1.52473 -3.80448,0.38829 -3.82585,5.44923 -0.0178,4.22648 1.92192,6.49426 3.93348,4.59865 1.02808,-0.96882 1.39742,-0.96383 1.75954,0.0238 0.63586,1.73415 3.0159,1.56518 4.05285,-0.28773 0.7468,-1.33446 1.10433,-1.26836 2.70467,0.5 2.18527,2.41469 2.56884,2.46407 5.04964,0.65006 z m 21.54013,0.3579 c 1.61107,-0.86222 1.72857,-1.34294 0.72212,-2.95452 -0.66112,-1.05861 -0.9115,-2.21528 -0.55642,-2.57037 1.06077,-1.06076 2.77868,0.53339 2.77868,2.57849 0,2.78355 3.45477,4.37854 5.35913,2.47419 C 291.18304,343.67411 292.14643,343 292.5,343 c 0.35357,0 1.31696,0.67411 2.14087,1.49802 1.12158,1.12158 1.98315,1.23838 3.42858,0.46481 C 299.57604,344.15653 300,342.84707 300,339 c 0,-5.88659 -2.22282,-7.93309 -5.85405,-5.38967 -1.94219,1.36036 -2.32756,1.35092 -3.77084,-0.0924 -1.40236,-1.40237 -1.87871,-1.42754 -3.73169,-0.1972 -1.83642,1.21933 -2.43087,1.20938 -4.38878,-0.0735 -1.81766,-1.19098 -2.55973,-1.23897 -3.75965,-0.24313 -1.91721,1.5912 -1.91486,2.9959 0.005,2.9959 1.95051,0 1.89268,1.1423 -0.25,4.93801 -1.53917,2.7266 -1.56929,3.21642 -0.25,4.06573 1.86873,1.20301 1.74323,1.20405 4.05562,-0.0335 z M 288.15789,339 c 0,-1.375 0.22698,-1.9375 0.50439,-1.25 0.27741,0.6875 0.27741,1.8125 0,2.5 -0.27741,0.6875 -0.50439,0.125 -0.50439,-1.25 z m 8,0 c 0,-1.375 0.22698,-1.9375 0.50439,-1.25 0.27741,0.6875 0.27741,1.8125 0,2.5 -0.27741,0.6875 -0.50439,0.125 -0.50439,-1.25 z m 10.52594,0.11591 C 308.36471,334.14337 307.88476,332 305.0904,332 c -2.57479,0 -3.57447,1.7118 -2.06314,3.53284 0.75981,0.91552 0.9508,2.77059 0.52108,5.0612 -0.95664,5.09932 1.26633,4.05136 3.13549,-1.47813 z M 358,327.47856 c 0,-1.41951 5.43228,-8.47871 6.86177,-8.9168 2.28796,-0.70119 15.74941,2.85749 15.13823,4.00196 -0.5766,1.07971 -4.47834,1.06262 -11.2208,-0.0491 -4.56928,-0.75343 -4.7779,-0.6781 -6.5,2.34719 -1.50327,2.64085 -4.2792,4.33838 -4.2792,2.6168 z m -1,-58.50266 c -17.40126,-3.69245 -36.385,-6.51495 -56.76471,-8.43975 -18.96791,-1.79146 -66.45715,-2.06228 -87.73529,-0.50033 -23.21684,1.70427 -52.18437,5.85773 -66.85782,9.58632 -3.2218,0.81867 -7.26048,1.3511 -8.97484,1.18318 -3.51801,-0.3446 -4.40496,-2.1299 -9.83942,-19.80532 -5.5142,-17.93479 -11.4376,-54.16258 -10.64029,-65.07656 0.31131,-4.26124 0.3395,-4.28949 8.27055,-8.28481 15.99172,-8.05593 26.83913,-22.11278 30.84901,-39.97633 0.84418,-3.76073 1.68291,-6.96699 1.86384,-7.12501 0.18093,-0.15802 5.50397,-1.516 11.82897,-3.01773 28.22289,-6.7009 54.36954,-9.68287 85.5,-9.75108 30.78754,-0.0674 57.30686,2.77124 81.5,8.72396 14.21811,3.49836 14.79256,3.80255 15.50903,8.21236 1.11072,6.83641 5.65687,18.69058 9.24291,24.10107 4.74956,7.16595 12.48942,13.78623 21.91995,18.74917 l 7.82811,4.11965 0.3055,5.85033 c 0.63304,12.12257 -4.62531,43.30907 -12.05138,71.47498 -3.06242,11.61526 -3.47116,12.51205 -5.7749,12.67026 C 371.61565,271.76391 364.425,270.55145 357,268.9759 Z M 159.88638,257.01943 c 17.76552,-3.39136 35.36405,-5.80576 48.88025,-6.70604 13.34049,-0.88857 13.08125,-0.52821 10.95096,-15.22281 -1.67856,-11.57861 -2.04954,-12.6639 -8.7353,-25.55501 C 207.14203,202.131 204,195.15635 204,194.03636 204,192.91636 203.77401,192 203.4978,192 c -0.27621,0 -3.21794,1.4625 -6.53719,3.25 -4.32895,2.33125 -6.18727,3.95673 -6.57367,5.75 -0.29628,1.375 -1.81206,5.425 -3.36841,9 -4.05478,9.31402 -4.38285,10.69051 -4.45761,18.70314 -0.037,3.96173 -0.5442,7.68014 -1.12719,8.26313 -1.24794,1.24794 -6.91575,-0.36914 -9.68373,-2.76286 -1.96138,-1.69619 -2.3397,-5.72092 -0.63668,-6.77344 2.06149,-1.27408 4.89816,-9.2075 7.00917,-19.60281 1.15344,-5.67994 2.54374,-11.17103 3.08956,-12.20243 1.96553,-3.71412 7.41189,-10.21933 12.63654,-15.09325 2.92933,-2.73269 5.95085,-6.17674 6.71449,-7.65346 C 202.34206,169.43785 207.8971,166 211.6769,166 c 5.23583,0 6.88128,-2.09897 6.40485,-8.17019 -1.06313,-13.54768 -0.86036,-14.72816 3.16319,-18.41547 2.78289,-2.55033 4.62766,-3.41434 7.29003,-3.41434 3.9926,0 8.08057,1.81271 10.75668,4.76978 3.08349,3.40722 2.3788,18.54442 -1.04535,22.4547 -0.83055,0.94847 -1.60447,3.27903 -1.71982,5.17903 -0.16792,2.76568 0.35529,3.87229 2.62378,5.54946 1.55844,1.1522 3.84967,3.94309 5.09163,6.20197 1.24196,2.25888 2.84516,5.17311 3.56268,6.47606 0.71751,1.30295 1.73438,2.369 2.25971,2.369 0.52533,0 1.96727,2.1375 3.20431,4.75 2.13026,4.49889 2.48234,4.76669 6.66007,5.06579 6.73973,0.48253 8.90584,-0.46375 14.58029,-6.36947 2.87817,-2.99547 5.98906,-5.44632 6.91307,-5.44632 2.05489,0 4.81266,6.17133 4.38446,9.81154 -0.24617,2.09271 -1.21833,2.9305 -4.94009,4.25728 -2.54848,0.90851 -6.14898,2.80768 -8.0011,4.22036 -3.6947,2.81808 -12.14302,6.71082 -14.56435,6.71082 -0.84329,0 -4.39632,-2.25 -7.89563,-5 -8.07045,-6.34232 -10.12973,-6.64054 -6.90531,-1 0.78602,1.375 1.45185,4.075 1.47962,6 0.0278,1.925 0.68566,5.3 1.46198,7.5 l 1.41149,4 7.95547,-0.29597 c 4.37551,-0.16278 11.72107,0.18292 16.32346,0.76823 7.90593,1.00544 8.44374,0.95276 9.73995,-0.95403 2.84556,-4.18594 8.78262,-1.04116 7.75305,4.10669 -0.30773,1.53864 -0.12425,3.06654 0.40773,3.39532 1.48116,0.91541 1.14923,8.61929 -0.44814,10.40102 -0.77846,0.86831 -1.72146,3.22849 -2.09555,5.24485 l -0.68016,3.6661 5.34555,0.55571 c 2.94005,0.30564 10.74555,1.04861 17.34555,1.65104 14.05007,1.28247 27.28006,3.11335 44.13462,6.10773 6.67404,1.18571 12.79353,1.90299 13.59886,1.59396 1.91022,-0.73302 8.10344,-19.51224 10.63269,-32.24065 2.3738,-11.94613 3.54717,-29.25964 2.40517,-35.48905 -0.76043,-4.14802 -1.35276,-4.83904 -7.79715,-9.09627 -12.58878,-8.31628 -21.92323,-20.2754 -26.87248,-34.42853 -1.27559,-3.64775 -2.94531,-7.22806 -3.71048,-7.95626 -0.76518,-0.72819 -8.36623,-2.6978 -16.89123,-4.37691 -53.11173,-10.46103 -96.47324,-10.47465 -144.80053,-0.0455 -14.28215,3.08213 -15.86072,3.91258 -17.23493,9.06685 -1.77235,6.64756 -7.19303,17.01254 -12.29041,23.50069 -4.53762,5.77566 -10.7315,11.07293 -19.30336,16.50904 L 127,187.95595 l 0.004,12.27203 c 0.006,17.83763 3.17771,34.66464 10.18306,54.02202 2.51656,6.95383 1.45678,6.82453 22.6993,2.76943 z M 296,229.15499 C 296,227.75885 299.53821,225 301.32874,225 c 2.33755,0 2.08152,1.59923 -0.55125,3.4433 C 298.35292,230.14153 296,230.49204 296,229.15499 Z m -3.37276,-10.684 c -1.32198,-3.44502 -0.63137,-6.14808 1.86091,-7.28364 3.16702,-1.44299 5.37081,-0.59746 6.10904,2.34386 1.09107,4.34717 0.13969,5.94755 -3.72826,6.27157 -2.61689,0.21921 -3.78756,-0.14835 -4.24169,-1.33179 z M 280,212 c 0,-2.3805 3.62595,-6.29115 5.3125,-5.72963 1.93091,0.64287 1.99488,3.7325 0.12017,5.80403 C 283.11027,214.64062 280,214.59802 280,212 Z m 14.69385,-6.63948 c -0.35171,-0.35171 -0.4123,-1.00706 -0.13464,-1.45633 0.62351,-1.00885 3.44079,-0.024 3.44079,1.2028 0,1.0261 -2.35313,1.20654 -3.30615,0.25353 z M 242,196.46862 c 0,-1.61208 -2.66157,-3.14038 -3.68563,-2.11632 -0.71223,0.71222 1.54756,3.6477 2.80807,3.6477 C 241.6051,198 242,197.31088 242,196.46862 Z M 210.5,188 c 0.33992,-0.55 0.16803,-1 -0.38197,-1 -0.55,0 -1.27811,0.45 -1.61803,1 -0.33992,0.55 -0.16803,1 0.38197,1 0.55,0 1.27811,-0.45 1.61803,-1 z"
       id="path273"
       inkscape:connector-curvature="0" />
    <path
       style="fill:#008f54"
       d="M 245.4151,393.19064 C 223.04349,379.59725 194.01095,356.4566 178.42647,339.79675 171.11756,331.98349 158,316.48522 158,315.66305 c 0,-1.41706 4.49098,-2.696 16.09261,-4.58283 15.56171,-2.53087 26.04281,-3.83678 36.90739,-4.59852 4.675,-0.32778 12.55,-1.03644 17.5,-1.57481 11.96339,-1.30116 57.69953,0.43584 80,3.03829 19.11545,2.23076 39.57095,5.73773 40.84264,7.00223 1.17097,1.16435 -0.68935,4.40131 -7.21411,12.55259 -14.37685,17.96075 -34.83354,36.261 -58.39033,52.23512 C 271.94496,387.73224 255.12441,398 253.81683,398 c -0.26765,0 -4.04843,-2.16421 -8.40173,-4.80936 z m 21.2032,-13.78438 c 15.06669,-9.6293 22.50265,-14.89178 34.3817,-24.33214 11.98618,-9.52549 34.33984,-31.55241 33.76861,-33.27501 -0.76786,-2.31554 -36.97142,-6.03001 -71.89058,-7.37594 -16.47336,-0.63495 -17.72756,-0.55682 -19.24187,1.1988 -0.89095,1.03292 -4.96479,5.75453 -9.05298,10.49247 -8.10937,9.3982 -10.07262,13.97256 -8.96627,20.89132 0.48676,3.04402 1.54449,4.83566 4.02175,6.81227 4.03191,3.21706 4.14405,3.93389 0.81351,5.20016 -3.13015,1.19008 -8.65332,-0.8802 -12.70714,-4.76309 -1.51523,-1.45134 -4.66523,-3.59808 -7,-4.77053 -2.81814,-1.41519 -4.35675,-2.89619 -4.57741,-4.40602 -0.36797,-2.5179 3.03497,-6.78914 6.46575,-8.11556 2.90678,-1.12382 12.29795,-19.43167 10.75773,-20.97189 -1.80386,-1.80386 -48.56474,2.78254 -50.76092,4.97872 -1.86155,1.86155 25.16006,27.80219 42.86982,41.15486 12.94745,9.76202 36.34205,24.8247 38.6183,24.86451 0.34007,0.006 5.96507,-3.40637 12.5,-7.58293 z M 358,327.47856 c 0,-1.41951 5.43228,-8.47871 6.86177,-8.9168 2.28796,-0.70119 15.74941,2.85749 15.13823,4.00196 -0.5766,1.07971 -4.47834,1.06262 -11.2208,-0.0491 -4.56928,-0.75343 -4.7779,-0.6781 -6.5,2.34719 -1.50327,2.64085 -4.2792,4.33838 -4.2792,2.6168 z m -1,-58.50266 c -17.40126,-3.69245 -36.385,-6.51495 -56.76471,-8.43975 -18.96791,-1.79146 -66.45715,-2.06228 -87.73529,-0.50033 -23.21684,1.70427 -52.18437,5.85773 -66.85782,9.58632 -3.2218,0.81867 -7.26048,1.3511 -8.97484,1.18318 -3.51801,-0.3446 -4.40496,-2.1299 -9.83942,-19.80532 -5.5142,-17.93479 -11.4376,-54.16258 -10.64029,-65.07656 0.31131,-4.26124 0.3395,-4.28949 8.27055,-8.28481 15.99172,-8.05593 26.83913,-22.11278 30.84901,-39.97633 0.84418,-3.76073 1.68291,-6.96699 1.86384,-7.12501 0.18093,-0.15802 5.50397,-1.516 11.82897,-3.01773 28.22289,-6.7009 54.36954,-9.68287 85.5,-9.75108 30.78754,-0.0674 57.30686,2.77124 81.5,8.72396 14.21811,3.49836 14.79256,3.80255 15.50903,8.21236 1.11072,6.83641 5.65687,18.69058 9.24291,24.10107 4.74956,7.16595 12.48942,13.78623 21.91995,18.74917 l 7.82811,4.11965 0.3055,5.85033 c 0.63304,12.12257 -4.62531,43.30907 -12.05138,71.47498 -3.06242,11.61526 -3.47116,12.51205 -5.7749,12.67026 C 371.61565,271.76391 364.425,270.55145 357,268.9759 Z M 159.88638,257.01943 c 17.51763,-3.34404 35.19704,-5.77485 48.61362,-6.68407 12.0198,-0.81457 12.5,-1.11917 12.5,-7.92899 0,-12.33173 -1.82813,-18.98152 -8.64618,-31.45038 -3.55028,-6.49276 -6.71793,-13.42491 -7.03922,-15.40479 -0.32129,-1.97987 -0.91772,-3.80592 -1.3254,-4.05787 -0.40768,-0.25196 -2.70952,0.65144 -5.11522,2.00755 -2.40569,1.35611 -5.38648,2.91205 -6.62398,3.45764 -1.23972,0.54657 -2.25,1.87937 -2.25,2.96829 0,1.08698 -1.66616,5.71061 -3.70258,10.27475 -3.08864,6.92246 -3.79334,9.79075 -4.25,17.29844 l -0.54742,9 -3.45639,-0.2818 c -6.54192,-0.53335 -8.79307,-4.95256 -5.1378,-10.08592 2.10629,-2.95801 4.07621,-9.41914 6.65857,-21.83937 2.17374,-10.45491 4.16243,-13.19918 24.66991,-34.04291 2.4201,-2.45979 4.06354,-3.25 6.75913,-3.25 1.95886,0 4.61483,-0.73773 5.90215,-1.63941 2.25727,-1.58105 2.31565,-1.95816 1.64009,-10.59391 -0.83889,-10.7236 0.10546,-13.66983 5.27306,-16.45109 4.93146,-2.65417 10.55862,-1.70727 14.22243,2.39325 2.26954,2.54005 2.60896,3.73085 2.3875,8.37608 -0.3952,8.28917 -1.43972,12.62418 -3.48857,14.47836 -1.32756,1.20142 -1.60668,2.17247 -0.96768,3.36647 0.49393,0.92291 0.52656,2.2791 0.0725,3.01377 -0.5559,0.89946 0.36511,2.5237 2.81977,4.97278 2.00493,2.00036 5.16531,6.21252 7.02307,9.36036 1.85776,3.14784 3.78625,5.72334 4.28554,5.72334 0.49928,0 1.7799,2.03456 2.84582,4.52124 1.06591,2.48668 2.6322,4.78763 3.48065,5.1132 0.84844,0.32558 4.02487,0.28182 7.05874,-0.0972 4.98027,-0.62225 6.04612,-1.22345 10.97198,-6.18881 3.17968,-3.20519 6.14937,-5.36377 7.11819,-5.174 2.23157,0.43709 4.63799,7.44014 3.37046,9.80854 -0.52521,0.98137 -2.47933,2.07029 -4.34248,2.41982 -1.86315,0.34953 -5.36285,2.13587 -7.7771,3.96965 C 268.3656,207.80864 261.29377,211 258.20329,211 c -0.96593,0 -4.87399,-2.48446 -8.68458,-5.52103 -5.33052,-4.24776 -6.93876,-6.12382 -6.97352,-8.13486 -0.0527,-3.04717 -2.49719,-4.96024 -5.07443,-3.97126 -1.60968,0.61769 -1.46473,1.03816 1.36408,3.95675 1.74084,1.79609 3.16516,4.20525 3.16516,5.3537 0,1.14845 0.6782,3.37702 1.50712,4.95239 0.82892,1.57537 1.26342,4.00957 0.96556,5.40934 -0.31837,1.49619 0.32385,4.50143 1.55837,7.29225 l 2.09992,4.74722 6.18451,-0.78761 c 7.45312,-0.94917 11.14684,-0.85384 19.68452,0.50807 5.99804,0.95679 6.63502,0.88012 8.2484,-0.99286 1.29776,-1.50657 2.42482,-1.85995 4.37275,-1.37105 2.34971,0.58974 2.56607,1.01782 2.06745,4.09049 -0.3063,1.8875 -0.13654,3.69162 0.37724,4.00915 1.45368,0.89842 1.09835,8.61824 -0.47779,10.38057 -0.77657,0.86831 -1.56407,3.13244 -1.75,5.0314 -0.3254,3.32351 -0.18842,3.47872 3.66195,4.14929 2.2,0.38314 10.075,1.21297 17.5,1.84407 14.96076,1.27162 27.41687,2.96411 45.63462,6.20067 6.67404,1.18571 12.79353,1.90299 13.59886,1.59396 1.91022,-0.73302 8.10344,-19.51224 10.63269,-32.24065 2.3738,-11.94613 3.54717,-29.25964 2.40517,-35.48905 -0.76043,-4.14802 -1.35276,-4.83904 -7.79715,-9.09627 -12.58878,-8.31628 -21.92323,-20.2754 -26.87248,-34.42853 -1.27559,-3.64775 -2.94531,-7.22806 -3.71048,-7.95626 -0.76518,-0.72819 -8.36623,-2.6978 -16.89123,-4.37691 -53.11173,-10.46103 -96.47324,-10.47465 -144.80053,-0.0455 -14.28215,3.08213 -15.86072,3.91258 -17.23493,9.06685 -1.77235,6.64756 -7.19303,17.01254 -12.29041,23.50069 -4.53762,5.77566 -10.7315,11.07293 -19.30336,16.50904 L 127,187.95595 l 0.004,12.27203 c 0.006,17.83763 3.17771,34.66464 10.18306,54.02202 2.51656,6.95383 1.45678,6.82453 22.6993,2.76943 z M 298,227.5 c 0.68469,-0.825 1.91989,-1.5 2.74489,-1.5 1.21995,0 1.26758,0.28005 0.25511,1.5 -0.68469,0.825 -1.91989,1.5 -2.74489,1.5 -1.21995,0 -1.26758,-0.28005 -0.25511,-1.5 z m -3.75,-8.16228 c -0.6875,-0.27741 -1.25,-2.03331 -1.25,-3.902 0,-2.76906 0.45199,-3.51106 2.44316,-4.01081 2.88932,-0.72517 4.14447,-0.10983 4.78689,2.3468 1.14368,4.37343 -1.90448,7.21054 -5.98005,5.56601 z M 281,212.19113 c 0,-2.82035 2.48182,-5.60395 4.35539,-4.88499 2.22732,0.8547 2.06755,2.22192 -0.54395,4.6549 C 282.10969,214.47811 281,214.5451 281,212.19113 Z M 211.42857,188.42857 C 212.29286,187.56429 213,185.90509 213,184.74148 c 0,-1.9913 -0.17426,-1.94871 -2.96444,0.72445 -1.63045,1.56207 -2.72889,3.22126 -2.44099,3.68709 0.78603,1.27182 2.08275,1.0268 3.834,-0.72445 z"
       id="path271"
       inkscape:connector-curvature="0" />
    <path
       style="fill:#048f3a"
       d="m 248.41291,392.67053 c -2.7979,-1.74379 -6.70537,-4.40803 -8.68328,-5.92053 -1.9779,-1.5125 -3.83123,-2.75 -4.1185,-2.75 -1.27418,0 -7.86465,-4.89595 -14.72296,-10.93744 C 218.35166,370.82815 215.85172,369 215.33274,369 c -3.50707,0 -34.94143,-29.66069 -47.53252,-44.85052 -4.7679,-5.75196 -5.78929,-7.5428 -4.69659,-8.23469 0.768,-0.48629 1.67558,-0.89106 2.01684,-0.89948 0.34126,-0.008 5.74126,-0.88644 12,-1.95115 12.72708,-2.16509 25.49482,-3.75522 40.37953,-5.02898 5.5,-0.47066 12.24411,-1.4053 14.98691,-2.07698 3.83844,-0.93998 7.17775,-0.96078 14.5,-0.0903 5.2322,0.62201 16.89489,1.37603 25.9171,1.67558 9.0222,0.29956 19.8222,0.99596 24,1.54755 4.17779,0.55159 11.64599,1.42503 16.59599,1.94097 16.997,1.77162 33.5,4.6685 33.5,5.88048 0,0.86977 -0.4162,1.38371 -13.43296,16.58751 -11.34674,13.25318 -33.35459,33.5 -36.41377,33.5 -0.57964,0 -1.42146,0.65681 -1.87071,1.45959 -0.98507,1.76021 -27.80502,19.64673 -33.83972,22.56808 -2.35455,1.13982 -4.82251,2.72488 -5.48436,3.52236 -1.5456,1.86233 -1.53933,1.86389 -7.54557,-1.8795 z m 18.20539,-13.26427 c 15.06669,-9.6293 22.50265,-14.89178 34.3817,-24.33214 11.98618,-9.52549 34.33984,-31.55241 33.76861,-33.27501 -0.76786,-2.31554 -36.97142,-6.03001 -71.89058,-7.37594 -16.47336,-0.63495 -17.72756,-0.55682 -19.24187,1.1988 -0.89095,1.03292 -4.96479,5.75453 -9.05298,10.49247 -8.10937,9.3982 -10.07262,13.97256 -8.96627,20.89132 0.48676,3.04402 1.54449,4.83566 4.02175,6.81227 4.03191,3.21706 4.14405,3.93389 0.81351,5.20016 -3.13015,1.19008 -8.65332,-0.8802 -12.70714,-4.76309 -1.51523,-1.45134 -4.66523,-3.59808 -7,-4.77053 -2.81814,-1.41519 -4.35675,-2.89619 -4.57741,-4.40602 -0.36797,-2.5179 3.03497,-6.78914 6.46575,-8.11556 2.90678,-1.12382 12.29795,-19.43167 10.75773,-20.97189 -1.80386,-1.80386 -48.56474,2.78254 -50.76092,4.97872 -1.86155,1.86155 25.16006,27.80219 42.86982,41.15486 12.94745,9.76202 36.34205,24.8247 38.6183,24.86451 0.34007,0.006 5.96507,-3.40637 12.5,-7.58293 z M 367.5,321 l -3,-0.76337 3,-0.048 c 1.65,-0.0264 3.9,0.33871 5,0.8114 l 2,0.85943 -2,-0.048 c -1.1,-0.0264 -3.35,-0.39155 -5,-0.8114 z m -1,-52.64114 c -69.88424,-15.65414 -149.35035,-16.27246 -218.74595,-1.70203 -6.46028,1.35642 -12.19778,2.18697 -12.75,1.84567 C 134.45182,268.16121 134,266.98618 134,265.89132 c 0,-1.09485 -0.6494,-3.24643 -1.4431,-4.78129 -0.79371,-1.53486 -2.0946,-5.45001 -2.89087,-8.70034 C 128.86976,249.15936 126.8775,241.325 125.23878,235 c -3.174,-12.25075 -6.46858,-35.55903 -6.16641,-43.62562 0.10043,-2.68091 0.0127,-5.4992 -0.19489,-6.26288 -0.23008,-0.84631 1.81318,-2.60348 5.23265,-4.5 8.00158,-4.43785 16.05507,-10.77117 21.00709,-16.52011 C 150.07513,158.3356 156,147.68952 156,144.53669 c 0,-1.19553 0.69109,-4.50083 1.53575,-7.34511 1.14963,-3.87123 2.09245,-5.29165 3.75,-5.64964 1.21784,-0.26302 5.13925,-1.15007 8.71425,-1.97121 28.84895,-6.62633 55.11612,-9.56481 85.5,-9.56481 30.3353,0 56.26488,2.84025 79,8.65343 3.3,0.84378 7.90606,2.01495 10.23568,2.6026 3.80093,0.95879 4.29856,1.43639 4.84838,4.65325 3.30982,19.36526 14.3611,34.44316 32.05184,43.73021 6.3401,3.32835 7.34401,4.22206 7.35332,6.54619 0.0236,5.9002 -4.09551,37.33781 -5.90603,45.07521 -1.05959,4.52826 -2.46611,10.93319 -3.1256,14.23319 -0.6595,3.3 -2.04474,8.15416 -3.07834,10.78702 -1.03359,2.63286 -1.87925,6.03435 -1.87925,7.55887 0,5.15244 -1.67502,6.04177 -8.5,4.51297 z M 159.88638,257.01943 c 17.51763,-3.34404 35.19704,-5.77485 48.61362,-6.68407 12.0198,-0.81457 12.5,-1.11917 12.5,-7.92899 0,-12.33173 -1.82813,-18.98152 -8.64618,-31.45038 -3.55028,-6.49276 -6.71793,-13.42491 -7.03922,-15.40479 -0.32129,-1.97987 -0.91772,-3.80592 -1.3254,-4.05787 -0.40768,-0.25196 -2.70952,0.65144 -5.11522,2.00755 -2.40569,1.35611 -5.38648,2.91205 -6.62398,3.45764 -1.23972,0.54657 -2.25,1.87937 -2.25,2.96829 0,1.08698 -1.66616,5.71061 -3.70258,10.27475 -3.08864,6.92246 -3.79334,9.79075 -4.25,17.29844 l -0.54742,9 -3.45639,-0.2818 c -6.54192,-0.53335 -8.79307,-4.95256 -5.1378,-10.08592 2.10629,-2.95801 4.07621,-9.41914 6.65857,-21.83937 2.17374,-10.45491 4.16243,-13.19918 24.66991,-34.04291 2.4201,-2.45979 4.06354,-3.25 6.75913,-3.25 1.95886,0 4.61483,-0.73773 5.90215,-1.63941 2.25727,-1.58105 2.31565,-1.95816 1.64009,-10.59391 -0.83889,-10.7236 0.10546,-13.66983 5.27306,-16.45109 4.93146,-2.65417 10.55862,-1.70727 14.22243,2.39325 2.26954,2.54005 2.60896,3.73085 2.3875,8.37608 -0.3952,8.28917 -1.43972,12.62418 -3.48857,14.47836 -1.32756,1.20142 -1.60668,2.17247 -0.96768,3.36647 0.49393,0.92291 0.52656,2.2791 0.0725,3.01377 -0.5559,0.89946 0.36511,2.5237 2.81977,4.97278 2.00493,2.00036 5.16531,6.21252 7.02307,9.36036 1.85776,3.14784 3.78625,5.72334 4.28554,5.72334 0.49928,0 1.7799,2.03456 2.84582,4.52124 1.06591,2.48668 2.6322,4.78763 3.48065,5.1132 0.84844,0.32558 4.02487,0.28182 7.05874,-0.0972 4.98027,-0.62225 6.04612,-1.22345 10.97198,-6.18881 3.17968,-3.20519 6.14937,-5.36377 7.11819,-5.174 2.23157,0.43709 4.63799,7.44014 3.37046,9.80854 -0.52521,0.98137 -2.47933,2.07029 -4.34248,2.41982 -1.86315,0.34953 -5.36285,2.13587 -7.7771,3.96965 C 268.3656,207.80864 261.29377,211 258.20329,211 c -0.96593,0 -4.87399,-2.48446 -8.68458,-5.52103 -5.33052,-4.24776 -6.93876,-6.12382 -6.97352,-8.13486 -0.0527,-3.04717 -2.49719,-4.96024 -5.07443,-3.97126 -1.60968,0.61769 -1.46473,1.03816 1.36408,3.95675 1.74084,1.79609 3.16516,4.20525 3.16516,5.3537 0,1.14845 0.6782,3.37702 1.50712,4.95239 0.82892,1.57537 1.26342,4.00957 0.96556,5.40934 -0.31837,1.49619 0.32385,4.50143 1.55837,7.29225 l 2.09992,4.74722 6.18451,-0.78761 c 7.45312,-0.94917 11.14684,-0.85384 19.68452,0.50807 5.99804,0.95679 6.63502,0.88012 8.2484,-0.99286 1.29776,-1.50657 2.42482,-1.85995 4.37275,-1.37105 2.34971,0.58974 2.56607,1.01782 2.06745,4.09049 -0.3063,1.8875 -0.13654,3.69162 0.37724,4.00915 1.45368,0.89842 1.09835,8.61824 -0.47779,10.38057 -0.77657,0.86831 -1.56407,3.13244 -1.75,5.0314 -0.3254,3.32351 -0.18842,3.47872 3.66195,4.14929 2.2,0.38314 10.075,1.21297 17.5,1.84407 14.96076,1.27162 27.41687,2.96411 45.63462,6.20067 6.67404,1.18571 12.79353,1.90299 13.59886,1.59396 1.91022,-0.73302 8.10344,-19.51224 10.63269,-32.24065 2.3738,-11.94613 3.54717,-29.25964 2.40517,-35.48905 -0.76043,-4.14802 -1.35276,-4.83904 -7.79715,-9.09627 -12.58878,-8.31628 -21.92323,-20.2754 -26.87248,-34.42853 -1.27559,-3.64775 -2.94531,-7.22806 -3.71048,-7.95626 -0.76518,-0.72819 -8.36623,-2.6978 -16.89123,-4.37691 -53.11173,-10.46103 -96.47324,-10.47465 -144.80053,-0.0455 -14.28215,3.08213 -15.86072,3.91258 -17.23493,9.06685 -1.77235,6.64756 -7.19303,17.01254 -12.29041,23.50069 -4.53762,5.77566 -10.7315,11.07293 -19.30336,16.50904 L 127,187.95595 l 0.004,12.27203 c 0.006,17.83763 3.17771,34.66464 10.18306,54.02202 2.51656,6.95383 1.45678,6.82453 22.6993,2.76943 z M 298,227.5 c 0.68469,-0.825 1.91989,-1.5 2.74489,-1.5 1.21995,0 1.26758,0.28005 0.25511,1.5 -0.68469,0.825 -1.91989,1.5 -2.74489,1.5 -1.21995,0 -1.26758,-0.28005 -0.25511,-1.5 z m -3.75,-8.16228 c -0.6875,-0.27741 -1.25,-2.03331 -1.25,-3.902 0,-2.76906 0.45199,-3.51106 2.44316,-4.01081 2.88932,-0.72517 4.14447,-0.10983 4.78689,2.3468 1.14368,4.37343 -1.90448,7.21054 -5.98005,5.56601 z M 281,212.19113 c 0,-2.82035 2.48182,-5.60395 4.35539,-4.88499 2.22732,0.8547 2.06755,2.22192 -0.54395,4.6549 C 282.10969,214.47811 281,214.5451 281,212.19113 Z M 211.42857,188.42857 C 212.29286,187.56429 213,185.90509 213,184.74148 c 0,-1.9913 -0.17426,-1.94871 -2.96444,0.72445 -1.63045,1.56207 -2.72889,3.22126 -2.44099,3.68709 0.78603,1.27182 2.08275,1.0268 3.834,-0.72445 z"
       id="path269"
       inkscape:connector-curvature="0" />
    <path
       style="fill:#1a1d0c"
       d="m 224,358.39748 c -1.925,-0.82929 -4.73974,-2.69432 -6.25497,-4.14449 -1.51523,-1.45018 -4.66523,-3.59597 -7,-4.76842 -2.81814,-1.41519 -4.35675,-2.89619 -4.57741,-4.40602 -0.36685,-2.51021 3.0319,-6.78785 6.4405,-8.10595 2.19714,-0.84964 11.68195,-17.90406 11.24437,-20.21825 -0.13044,-0.68989 1.06568,-3.36218 2.65806,-5.93842 2.63648,-4.26543 3.32398,-4.74303 7.69234,-5.34383 4.53613,-0.62388 14.79711,0.18842 14.79711,1.1714 0,1.10098 -3.44726,7.03508 -5.14494,8.8565 -9.72981,10.43892 -16.84651,19.75453 -17.80179,23.30216 -1.73296,6.43573 -0.4059,11.76157 3.79311,15.22275 2.22636,1.83514 3.21502,3.29011 2.6162,3.85011 -1.92957,1.8045 -5.04077,1.99658 -8.46258,0.52246 z M 198.87244,349.25 c -1.24387,-1.58606 -1.2085,-1.62143 0.37756,-0.37756 1.66575,1.30637 2.19548,2.12756 1.37244,2.12756 -0.20765,0 -0.99515,-0.7875 -1.75,-1.75 z M 311,346.62244 c 0,-0.20765 0.7875,-0.99515 1.75,-1.75 1.58606,-1.24387 1.62143,-1.2085 0.37756,0.37756 C 311.82119,346.91575 311,347.44548 311,346.62244 Z M 182.96584,334.25 177.5,328.5 l 5.75,5.46584 c 5.34193,5.07794 6.20809,6.03416 5.46584,6.03416 -0.15629,0 -2.74379,-2.5875 -5.75,-5.75 z M 332,325.62244 c 0,-0.20765 0.7875,-0.99515 1.75,-1.75 1.58606,-1.24387 1.62143,-1.2085 0.37756,0.37756 C 332.82119,325.91575 332,326.44548 332,325.62244 Z M 367.5,321 l -3,-0.76337 3,-0.048 c 1.65,-0.0264 3.9,0.33871 5,0.8114 l 2,0.85943 -2,-0.048 c -1.1,-0.0264 -3.35,-0.39155 -5,-0.8114 z m -39.6875,-1.68311 c 0.72187,-0.28887 1.58438,-0.25335 1.91667,0.0789 0.33229,0.33229 -0.25834,0.56864 -1.3125,0.52522 -1.16495,-0.048 -1.4019,-0.28494 -0.60417,-0.60416 z m -145,-1 c 0.72187,-0.28887 1.58437,-0.25335 1.91667,0.0789 0.33229,0.33229 -0.25834,0.56864 -1.3125,0.52522 -1.16495,-0.048 -1.4019,-0.28494 -0.60417,-0.60416 z m 137,0 c 0.72187,-0.28887 1.58438,-0.25335 1.91667,0.0789 0.33229,0.33229 -0.25834,0.56864 -1.3125,0.52522 -1.16495,-0.048 -1.4019,-0.28494 -0.60417,-0.60416 z m -8,-1 c 0.72187,-0.28887 1.58438,-0.25335 1.91667,0.0789 0.33229,0.33229 -0.25834,0.56864 -1.3125,0.52522 -1.16495,-0.048 -1.4019,-0.28494 -0.60417,-0.60416 z m -111,-1 c 0.72187,-0.28887 1.58437,-0.25335 1.91667,0.0789 0.33229,0.33229 -0.25834,0.56864 -1.3125,0.52522 -1.16495,-0.048 -1.4019,-0.28494 -0.60417,-0.60416 z m 97.9375,0.0208 c 0.6875,-0.27741 1.8125,-0.27741 2.5,0 0.6875,0.27741 0.125,0.50439 -1.25,0.50439 -1.375,0 -1.9375,-0.22698 -1.25,-0.50439 z m -87.5,-1.02705 c 0.9625,-0.25152 2.5375,-0.25152 3.5,0 0.9625,0.25153 0.175,0.45733 -1.75,0.45733 -1.925,0 -2.7125,-0.2058 -1.75,-0.45733 z m 75.5,0.027 c 0.6875,-0.27741 1.8125,-0.27741 2.5,0 0.6875,0.27741 0.125,0.50439 -1.25,0.50439 -1.375,0 -1.9375,-0.22698 -1.25,-0.50439 z m -20.48625,-1.0553 c 1.52006,-0.22986 3.77006,-0.22371 5,0.0136 1.22994,0.23736 -0.0138,0.42542 -2.76375,0.41792 -2.75,-0.008 -3.75631,-0.20172 -2.23625,-0.43157 z m -44.6015,-65.7202 C 221.29801,247.61303 221,244.59693 221,241.85977 c 0,-11.7841 -1.90492,-18.57536 -8.69177,-30.98716 -3.59671,-6.57766 -6.73986,-13.67174 -7.03611,-15.88051 -0.2945,-2.19565 -0.85543,-3.9921 -1.24651,-3.9921 -0.39107,0 -2.69432,1.11747 -5.11833,2.48327 -2.424,1.3658 -5.41978,2.92966 -6.65728,3.47525 -1.23972,0.54657 -2.25,1.87937 -2.25,2.96829 0,1.08698 -1.66616,5.71061 -3.70258,10.27475 -3.08864,6.92246 -3.79334,9.79075 -4.25,17.29844 l -0.54742,9 -3.45639,-0.2818 c -6.54192,-0.53335 -8.79307,-4.95256 -5.1378,-10.08592 2.10629,-2.95801 4.07621,-9.41914 6.65857,-21.83937 2.17374,-10.45491 4.16243,-13.19918 24.66991,-34.04291 2.4201,-2.45979 4.06354,-3.25 6.75913,-3.25 1.95886,0 4.61483,-0.73773 5.90215,-1.63941 2.25727,-1.58105 2.31565,-1.95816 1.64009,-10.59391 -0.83889,-10.7236 0.10546,-13.66983 5.27306,-16.45109 4.93146,-2.65417 10.55862,-1.70727 14.22243,2.39325 2.26954,2.54005 2.60896,3.73085 2.3875,8.37608 -0.40854,8.56896 -1.48833,12.85048 -3.61685,14.34135 -1.56888,1.09889 -1.76086,1.78171 -0.93486,3.3251 0.72617,1.35686 0.71508,2.26661 -0.0368,3.01846 -0.76829,0.76829 0.0319,2.17882 2.79681,4.92985 2.13016,2.1195 5.39301,6.42914 7.25077,9.57698 1.85776,3.14784 3.78625,5.72334 4.28554,5.72334 0.49928,0 1.7799,2.03456 2.84582,4.52124 1.06591,2.48668 2.6322,4.78763 3.48065,5.1132 0.84844,0.32558 4.02487,0.28182 7.05874,-0.0972 4.98027,-0.62225 6.04612,-1.22345 10.97198,-6.18881 3.17968,-3.20519 6.14937,-5.36377 7.11819,-5.174 2.23157,0.43709 4.63799,7.44014 3.37046,9.80854 -0.52521,0.98137 -2.47933,2.07029 -4.34248,2.41982 -1.86315,0.34953 -5.36285,2.13587 -7.7771,3.96965 -4.5147,3.4292 -11.59438,6.62756 -14.67034,6.62756 -0.95719,0 -4.75996,-2.3625 -8.4506,-5.25 -5.20587,-4.073 -6.71679,-5.83907 -6.73941,-7.87756 -0.0379,-3.41862 -2.32556,-5.26585 -5.52637,-4.4625 l -2.52317,0.63328 3.56048,3.12614 c 1.95826,1.71938 3.35948,3.64991 3.11383,4.29008 -0.24566,0.64017 0.39697,2.93618 1.42807,5.10225 1.05573,2.21784 1.65069,5.05012 1.36192,6.48334 -0.2935,1.45662 0.38525,4.57524 1.58712,7.29225 l 2.09992,4.74722 6.18451,-0.78761 c 7.45312,-0.94917 11.14684,-0.85384 19.68452,0.50807 5.99804,0.95679 6.63502,0.88012 8.2484,-0.99286 1.29776,-1.50657 2.42482,-1.85995 4.37275,-1.37105 2.34971,0.58974 2.56607,1.01782 2.06745,4.09049 -0.3063,1.8875 -0.13654,3.69162 0.37724,4.00915 1.53794,0.9505 1.09823,9.07826 -0.56584,10.45931 -0.825,0.68469 -1.5,2.11937 -1.5,3.18819 0,4.81442 -1.63033,5.81181 -9.5,5.81181 -6.42182,0 -7.57575,-0.27302 -8.5068,-2.01271 -0.87421,-1.63347 -1.45001,-1.81318 -3.05585,-0.95376 -1.08828,0.58243 -2.4391,0.77441 -3.00182,0.42662 -0.56273,-0.34778 -1.66692,-0.098 -2.45377,0.55499 -0.93119,0.77282 -7.84136,1.37681 -19.79395,1.7301 -16.76549,0.49555 -18.42093,0.39261 -19.02556,-1.18302 z m -9.11419,-61.65515 c 2.18528,-4.22587 1.0444,-4.84886 -2.55849,-1.39708 C 206.5,188.85321 206.2407,190 208.97432,190 c 1.19546,0 2.60528,-1.22015 3.57374,-3.09293 z M 298,227.5 c 0.68469,-0.825 1.91989,-1.5 2.74489,-1.5 1.21995,0 1.26758,0.28005 0.25511,1.5 -0.68469,0.825 -1.91989,1.5 -2.74489,1.5 -1.21995,0 -1.26758,-0.28005 -0.25511,-1.5 z m -3.75,-8.16228 c -0.6875,-0.27741 -1.25,-2.03331 -1.25,-3.902 0,-2.76906 0.45199,-3.51106 2.44316,-4.01081 2.88932,-0.72517 4.14447,-0.10983 4.78689,2.3468 1.14368,4.37343 -1.90448,7.21054 -5.98005,5.56601 z M 281,212.19113 c 0,-2.82035 2.48182,-5.60395 4.35539,-4.88499 2.22732,0.8547 2.06755,2.22192 -0.54395,4.6549 C 282.10969,214.47811 281,214.5451 281,212.19113 Z"
       id="path267"
       inkscape:connector-curvature="0" />
  </g>
</svg>
