<?xml version="1.0" standalone="no"?>
<!DOCTYPE svg PUBLIC "-//W3C//DTD SVG 20010904//EN"
 "http://www.w3.org/TR/2001/REC-SVG-20010904/DTD/svg10.dtd">
<svg version="1.0" xmlns="http://www.w3.org/2000/svg"
 width="220.000000pt" height="293.000000pt" viewBox="0 0 220.000000 293.000000"
 preserveAspectRatio="xMidYMid meet">
<metadata>
Created by potrace 1.10, written by Peter Selinger 2001-2011
</metadata>
<g transform="translate(0.000000,293.000000) scale(0.100000,-0.100000)"
fill="#000000" stroke="none">
<path d="M168 2752 l-118 -118 0 -102 0 -103 45 -47 44 -48 3 -665 c4 -657 4
-665 26 -738 107 -350 381 -639 818 -862 l134 -68 52 19 c272 95 570 316 730
540 56 78 128 221 157 310 50 155 51 164 51 838 l0 632 24 10 c50 19 60 50 50
162 -8 93 -11 103 -36 121 -30 23 -129 29 -162 10 -14 -7 -29 -6 -58 5 -30 12
-46 13 -73 5 -26 -8 -44 -7 -80 5 -42 13 -50 13 -78 0 -22 -10 -50 -14 -89
-10 -52 4 -58 7 -58 27 0 39 -19 44 -165 46 -123 1 -140 -1 -152 -17 -7 -10
-13 -24 -13 -31 0 -9 -19 -13 -69 -13 -62 0 -70 2 -85 25 -14 21 -24 25 -70
25 -29 0 -67 7 -85 16 -53 26 -158 2 -184 -43 -6 -10 -36 13 -117 87 l-109
100 -108 0 -107 0 -118 -118z m403 12 c46 -42 97 -84 114 -95 29 -18 29 -18
73 7 37 22 51 25 100 20 143 -14 167 -19 197 -41 53 -41 145 -38 185 5 l28 30
121 0 c107 0 122 -2 128 -17 10 -30 35 -53 57 -54 13 0 4 -6 -22 -16 -49 -17
-59 -14 -41 15 11 18 10 24 -5 41 -17 18 -31 21 -109 21 -98 0 -127 -13 -127
-55 0 -13 -7 -28 -16 -36 -13 -10 -20 -10 -44 4 -33 20 -78 22 -115 5 -24 -11
-29 -9 -51 20 -25 32 -57 42 -69 22 -4 -6 -18 0 -37 15 -43 37 -114 35 -150
-2 -55 -58 -44 -113 30 -153 l37 -21 -32 5 c-26 4 -36 0 -52 -20 -24 -30 -20
-44 18 -67 38 -22 98 -22 137 2 29 18 31 18 53 0 26 -21 61 -25 78 -8 8 8 17
8 31 0 27 -14 97 -14 124 0 15 8 27 8 45 -2 21 -11 26 -10 44 7 12 12 22 38
24 63 5 59 15 64 15 9 0 -30 7 -54 19 -69 17 -21 23 -23 48 -13 21 8 34 8 46
0 12 -8 23 -7 38 2 15 10 24 11 32 3 19 -19 44 -12 66 17 15 20 20 23 21 10 0
-10 10 -22 21 -29 27 -14 69 3 69 27 0 12 5 10 21 -10 22 -28 39 -32 67 -15
14 9 25 8 50 -5 38 -20 59 -20 94 -2 23 12 32 12 71 -2 99 -36 184 41 130 117
-13 20 -14 27 -3 44 11 19 9 24 -21 49 -29 24 -30 28 -13 28 30 0 55 -32 61
-79 3 -23 10 -44 14 -47 25 -15 -7 -86 -58 -127 -20 -16 -23 -27 -23 -95 0
-79 -12 -119 -28 -94 -7 10 -199 12 -950 10 l-942 -3 0 78 c0 77 0 78 -42 123
l-42 46 2 102 3 101 103 103 103 102 95 0 95 0 84 -76z m350 -125 c16 -8 18
-13 9 -24 -9 -11 -17 -11 -35 -3 -35 16 -77 2 -73 -24 2 -14 18 -26 56 -40 57
-21 76 -44 66 -82 -13 -53 -71 -75 -134 -50 -42 17 -47 23 -29 41 8 8 19 7 39
-5 35 -20 83 -7 88 24 3 20 -31 44 -62 44 -25 0 -66 41 -66 66 0 53 83 85 141
53z m569 -9 c0 -17 -7 -20 -40 -20 l-40 0 0 -105 c0 -98 -1 -105 -20 -105 -19
0 -20 7 -20 105 l0 105 -40 0 c-33 0 -40 3 -40 20 0 19 7 20 100 20 93 0 100
-1 100 -20z m-470 -25 c0 -16 6 -25 15 -25 8 0 15 -7 15 -15 0 -8 -7 -15 -15
-15 -12 0 -15 -13 -15 -55 0 -47 3 -55 19 -55 14 0 18 -5 14 -20 -6 -24 -30
-26 -55 -3 -15 13 -18 32 -18 109 0 89 4 100 33 103 4 1 7 -10 7 -24z m803 14
c9 0 38 -1 65 -1 26 -1 79 -1 117 0 54 0 62 -2 38 -8 -18 -4 -40 -13 -49 -21
-13 -11 -21 -10 -49 6 -39 20 -96 16 -125 -10 -16 -14 -20 -14 -53 5 -27 16
-45 20 -67 15 -18 -4 -30 -3 -30 3 0 16 30 21 85 16 28 -3 58 -5 68 -5z m-618
-55 c12 -12 15 -32 13 -83 l-3 -66 -42 -9 c-55 -11 -93 10 -93 54 0 34 23 50
69 50 25 0 31 4 31 21 0 20 -4 21 -44 16 -48 -7 -62 -1 -45 20 16 19 94 17
114 -3z m135 2 c0 -8 -10 -16 -22 -18 -21 -3 -23 -8 -23 -73 0 -58 -3 -70 -17
-73 -16 -3 -18 6 -18 81 0 46 3 87 7 90 13 14 73 7 73 -7z m150 -76 c0 -83 -1
-90 -20 -90 -19 0 -20 7 -20 90 0 83 1 90 20 90 19 0 20 -7 20 -90z m155 80
c4 -7 12 -7 25 0 28 15 71 12 92 -7 14 -13 18 -31 18 -90 0 -66 -2 -73 -20
-73 -18 0 -20 7 -20 69 0 75 -7 86 -46 77 -23 -6 -24 -11 -24 -76 0 -62 -2
-70 -19 -70 -17 0 -19 6 -14 60 6 67 -5 90 -43 90 -23 0 -24 -3 -24 -75 0 -68
-2 -75 -20 -75 -18 0 -20 7 -20 84 0 93 -1 93 72 95 20 0 40 -4 43 -9z m299
-12 c21 -30 20 -44 -4 -68 -13 -13 -33 -20 -56 -20 -28 0 -35 -3 -32 -17 4
-21 43 -29 62 -14 10 8 17 7 25 -3 26 -31 -66 -50 -105 -22 -28 21 -28 129 1
150 31 24 91 20 109 -6z m162 8 c16 -12 16 -15 4 -20 -8 -3 -31 -4 -50 -3 -26
1 -35 -2 -38 -15 -3 -14 3 -18 25 -18 37 0 73 -26 73 -52 0 -36 -29 -58 -74
-58 -49 0 -71 12 -63 34 7 18 23 21 32 6 9 -15 51 -12 64 4 14 17 8 22 -42 31
-55 11 -72 50 -37 85 24 24 77 27 106 6z m-53 -963 c-2 -618 -3 -619 -70 -783
-132 -322 -398 -573 -767 -725 l-90 -37 -110 55 c-257 128 -485 310 -626 502
-60 81 -132 223 -167 325 l-28 85 -3 568 -3 567 933 0 933 0 -2 -557z"/>
<path d="M232 2697 c-50 -51 -92 -95 -92 -97 0 -3 35 28 77 68 96 91 103 95
130 74 21 -17 44 -70 25 -58 -5 3 -12 -8 -16 -25 -6 -30 -44 -76 -81 -96 -35
-20 -7 -26 39 -9 38 14 47 24 66 67 13 32 19 61 15 78 -8 37 -42 91 -58 91 -7
0 -54 -42 -105 -93z"/>
<path d="M416 2633 c11 -47 23 -62 62 -79 51 -21 80 -20 135 4 52 23 55 31 30
59 -10 10 -14 13 -10 6 11 -16 4 -27 -36 -51 -32 -18 -36 -18 -77 -3 -29 11
-53 29 -68 51 -30 45 -45 50 -36 13z"/>
<path d="M209 2516 c-41 -13 -69 -33 -69 -50 0 -7 14 -25 32 -42 18 -16 26
-20 18 -9 -8 11 -19 23 -24 26 -15 11 1 37 33 53 26 14 34 14 72 1 52 -19 75
-38 83 -71 8 -29 26 -32 26 -4 0 46 -28 79 -82 95 -28 8 -52 15 -52 14 -1 -1
-17 -6 -37 -13z"/>
<path d="M472 2505 c-24 -10 -39 -28 -54 -61 -20 -46 -20 -50 -4 -100 31 -97
48 -95 151 23 57 65 37 57 -26 -9 -9 -10 -22 -18 -28 -18 -7 0 -10 -4 -7 -9 7
-11 -31 -22 -51 -14 -18 7 -37 54 -25 62 5 3 15 23 23 44 8 23 27 46 51 62 21
14 38 27 38 30 0 9 -35 4 -68 -10z"/>
<path d="M1115 2470 c-11 -17 5 -30 36 -30 22 0 29 5 29 20 0 15 -7 20 -29 20
-17 0 -33 -4 -36 -10z"/>
<path d="M1863 2544 c-7 -3 -13 -15 -13 -25 0 -17 6 -20 33 -17 24 2 32 8 32
23 0 20 -27 29 -52 19z"/>
<path d="M330 1955 c0 -116 10 -149 51 -171 57 -29 134 -9 157 41 7 15 12 71
12 130 l0 105 -35 0 -34 0 -3 -106 c-3 -89 -6 -109 -20 -118 -13 -8 -23 -8
-35 0 -15 9 -18 29 -21 118 l-3 106 -34 0 -35 0 0 -105z"/>
<path d="M629 2031 c-27 -28 -29 -34 -29 -111 0 -92 8 -113 50 -135 47 -24 95
-19 131 13 27 24 33 37 37 85 l4 57 -56 0 c-56 0 -56 0 -56 -30 0 -24 4 -30
21 -30 25 0 23 -27 -3 -44 -13 -8 -23 -8 -35 0 -15 9 -18 26 -18 85 0 72 1 74
26 77 14 2 31 -4 39 -12 11 -15 80 -23 80 -11 0 17 -33 66 -49 75 -11 5 -41
10 -66 10 -38 0 -52 -5 -76 -29z"/>
<path d="M895 1928 c-27 -73 -50 -139 -53 -145 -3 -9 7 -13 32 -13 28 0 38 5
45 22 6 17 16 21 51 21 35 0 45 -4 51 -21 7 -17 17 -22 44 -22 42 0 44 -16
-22 168 -43 116 -47 122 -73 122 -26 0 -29 -6 -75 -132z m85 72 c0 -5 0 -13
-1 -16 0 -4 5 -10 11 -14 7 -4 1 -7 -14 -7 -27 0 -30 5 -20 31 7 18 24 22 24
6z m19 -122 c1 -5 -12 -8 -29 -8 -19 0 -28 4 -25 13 2 6 10 26 16 42 l11 30
13 -35 c8 -19 14 -38 14 -42z"/>
<path d="M1130 1915 l0 -145 39 0 39 0 -4 78 c-5 86 -8 87 58 -19 32 -51 42
-59 68 -59 l30 0 0 145 0 145 -35 0 -34 0 -3 -72 -3 -73 -43 73 c-40 67 -45
72 -77 72 l-35 0 0 -145z m90 46 c33 -53 55 -68 76 -50 20 16 34 2 34 -34 0
-47 -13 -62 -32 -40 -8 10 -21 28 -27 41 -17 33 -59 58 -74 43 -21 -21 -27
-11 -27 39 0 28 5 50 10 50 6 0 24 -22 40 -49z"/>
<path d="M1420 1914 l0 -146 80 4 c70 3 83 6 106 30 22 22 27 37 31 95 6 81
-12 133 -53 152 -14 6 -56 11 -94 11 l-70 0 0 -146z m141 65 c15 -29 7 -128
-12 -140 -8 -5 -24 -9 -36 -9 -22 0 -23 3 -23 85 l0 85 30 0 c20 0 33 -7 41
-21z"/>
<path d="M1755 2048 c-2 -7 -26 -73 -53 -145 l-49 -133 38 0 c32 0 40 4 44 23
5 20 12 23 53 21 39 -2 48 -5 50 -23 3 -17 10 -21 44 -21 22 0 38 4 36 8 -1 5
-25 70 -52 145 -48 132 -51 137 -78 137 -16 0 -31 -6 -33 -12z m49 -54 c10
-25 7 -30 -14 -31 -13 -1 -20 4 -20 16 0 32 24 42 34 15z m3 -84 l10 -40 -29
0 c-25 0 -29 3 -23 18 4 9 10 27 12 40 8 33 18 27 30 -18z"/>
<path d="M270 1615 c0 -68 2 -75 20 -75 14 0 20 7 20 23 0 17 8 25 33 32 67
20 36 95 -40 95 l-33 0 0 -75z m69 36 c16 -10 6 -31 -15 -31 -8 0 -14 9 -14
20 0 22 7 25 29 11z"/>
<path d="M400 1615 c0 -68 2 -75 19 -75 15 0 21 8 24 33 l4 32 13 -32 c10 -24
21 -33 38 -33 23 0 23 0 6 29 -15 25 -15 32 -5 45 8 9 11 26 7 40 -6 24 -30
36 -78 36 l-28 0 0 -75z m69 36 c16 -10 6 -31 -15 -31 -8 0 -14 9 -14 20 0 22
7 25 29 11z"/>
<path d="M540 1615 l0 -75 50 0 c38 0 50 4 50 15 0 10 -11 15 -35 15 -24 0
-35 5 -35 15 0 10 10 15 30 15 20 0 30 5 30 15 0 10 -10 15 -31 15 -20 0 -29
4 -26 13 2 7 17 11 35 9 27 -3 32 0 32 17 0 18 -6 21 -50 21 l-50 0 0 -75z"/>
<path d="M668 1615 c-3 -66 -1 -75 15 -75 13 0 17 9 18 38 0 34 1 35 11 15 6
-13 16 -23 23 -23 7 0 17 10 23 23 10 20 11 19 11 -15 1 -27 5 -38 16 -38 12
0 15 15 15 75 0 60 -3 75 -15 75 -9 0 -23 -16 -32 -35 l-17 -36 -18 36 c-30
58 -46 46 -50 -40z"/>
<path d="M830 1615 c0 -68 2 -75 20 -75 18 0 20 7 20 75 0 68 -2 75 -20 75
-18 0 -20 -7 -20 -75z"/>
<path d="M900 1615 l0 -75 50 0 c38 0 50 4 50 15 0 11 -11 15 -36 15 -42 0
-43 23 -1 28 39 5 35 32 -4 32 -20 0 -29 4 -26 13 2 7 17 11 35 9 27 -3 32 0
32 17 0 18 -6 21 -50 21 l-50 0 0 -75z"/>
<path d="M1030 1615 c0 -60 3 -75 15 -75 9 0 15 9 15 25 0 14 5 25 10 25 6 0
15 -11 20 -25 6 -15 17 -25 30 -25 23 0 25 8 5 34 -12 16 -12 21 0 40 19 27
19 32 -5 56 -12 12 -33 20 -55 20 l-35 0 0 -75z m65 24 c0 -7 -8 -15 -17 -17
-18 -3 -25 18 -11 32 10 10 28 1 28 -15z"/>
<path d="M1210 1615 l0 -75 50 0 c38 0 50 4 50 15 0 11 -11 15 -36 15 l-37 0
6 60 c6 55 5 60 -13 60 -18 0 -20 -7 -20 -75z"/>
<path d="M1330 1615 l0 -75 50 0 c38 0 50 4 50 15 0 10 -11 15 -35 15 -24 0
-35 5 -35 15 0 10 10 15 30 15 20 0 30 5 30 15 0 10 -10 15 -31 15 -20 0 -29
4 -26 13 2 7 17 11 35 9 27 -3 32 0 32 17 0 18 -6 21 -50 21 l-50 0 0 -75z"/>
<path d="M1468 1615 c-26 -72 -26 -75 -8 -75 11 0 20 5 20 10 0 6 11 10 25 10
14 0 25 -4 25 -10 0 -5 9 -10 20 -10 11 0 20 3 20 8 -1 24 -50 137 -61 140 -9
2 -24 -24 -41 -73z"/>
<path d="M1604 1676 c-23 -17 -27 -94 -5 -119 20 -25 67 -21 85 5 26 37 21 58
-14 58 -21 0 -30 -5 -30 -16 0 -8 5 -12 10 -9 6 3 10 -1 10 -9 0 -9 -9 -16
-20 -16 -17 0 -20 7 -20 39 0 44 13 59 35 41 8 -6 22 -10 32 -8 16 3 16 5 -5
26 -25 25 -50 28 -78 8z"/>
<path d="M1720 1634 c0 -73 12 -94 53 -94 47 0 57 15 57 87 0 48 -3 63 -15 63
-10 0 -15 -15 -17 -57 -2 -46 -7 -59 -20 -61 -16 -3 -18 5 -18 57 0 54 -2 61
-20 61 -18 0 -20 -7 -20 -56z"/>
<path d="M1860 1615 l0 -75 50 0 c38 0 50 4 50 15 0 11 -11 15 -36 15 -42 0
-43 23 -1 28 39 5 35 32 -4 32 -20 0 -29 4 -26 13 2 7 17 11 35 9 27 -3 32 0
32 17 0 18 -6 21 -50 21 l-50 0 0 -75z"/>
<path d="M1000 1464 c-91 -24 -162 -64 -225 -128 -204 -206 -206 -515 -5 -716
73 -73 144 -112 253 -139 58 -14 68 -19 49 -25 -32 -11 -143 25 -221 71 -128
76 -219 213 -246 371 -27 153 24 316 138 439 l40 43 -164 0 c-155 0 -162 -1
-146 -17 15 -15 33 -17 122 -14 70 2 105 -1 105 -8 0 -6 -15 -34 -33 -63 -78
-124 -107 -244 -89 -363 30 -191 124 -334 280 -422 71 -41 55 -43 -31 -4 -95
43 -182 105 -274 198 -79 79 -119 135 -109 152 5 7 -55 41 -74 41 -5 0 10 -28
34 -62 104 -149 258 -285 399 -352 79 -38 205 -76 252 -76 37 0 91 32 99 58 5
14 22 23 66 31 260 51 442 309 401 569 -46 296 -337 491 -621 416z m326 -48
c172 -86 284 -256 284 -433 0 -223 -158 -431 -362 -478 -39 -9 -72 -14 -74
-12 -2 1 -1 13 2 25 6 20 10 21 65 15 53 -5 63 -3 101 22 116 76 194 166 185
214 -6 31 14 89 47 138 30 44 32 80 11 172 -23 95 -70 178 -109 191 -39 13
-120 72 -166 123 -41 44 -81 56 -186 57 -88 0 -169 -23 -189 -54 -16 -25 -129
-116 -144 -116 -4 0 -25 -11 -46 -25 l-37 -26 21 30 c54 76 189 168 277 190
22 6 85 9 141 7 95 -2 108 -5 179 -40z m-88 3 c31 -11 49 -36 35 -50 -4 -4
-42 -18 -84 -30 l-76 -22 -72 22 c-63 19 -72 25 -69 43 2 14 15 26 38 34 44
16 186 18 228 3z m-214 -109 l86 -31 99 31 c54 16 104 30 111 30 7 0 33 -16
57 -36 l44 -37 -6 -97 -7 -97 61 -92 c53 -78 61 -97 56 -122 -7 -33 -24 -43
-135 -83 l-76 -27 -59 -94 c-33 -52 -64 -96 -70 -98 -6 -3 -11 26 -11 72 -1
49 -9 97 -23 135 -27 77 -27 82 10 90 30 6 31 8 26 40 -8 48 15 66 83 66 57 0
59 8 7 26 -29 10 -31 14 -29 47 4 47 -21 62 -95 53 l-53 -6 0 60 c0 56 -2 60
-22 60 -47 -1 -102 -43 -130 -99 -33 -64 -35 -110 -9 -167 24 -54 37 -61 65
-35 30 29 36 27 36 -14 0 -19 14 -69 30 -110 29 -73 59 -209 49 -219 -16 -17
-56 16 -108 88 l-59 81 -105 33 -105 32 -16 46 -15 45 60 85 61 86 -7 108 -7
108 47 36 c27 20 54 36 61 36 7 0 51 -14 98 -30z m-234 -168 c0 -84 -1 -89
-37 -142 -42 -64 -53 -73 -70 -58 -19 15 -16 83 8 168 25 93 42 120 74 120 25
0 25 -1 25 -88z m730 48 c28 -54 49 -120 56 -174 5 -37 3 -51 -11 -66 -18 -19
-19 -18 -66 49 -49 69 -49 69 -49 150 0 80 0 81 25 81 19 0 29 -10 45 -40z
m-836 -37 c-16 -42 -28 -99 -31 -146 -5 -69 -4 -80 15 -100 26 -28 62 -131 62
-178 0 -33 7 -44 62 -94 84 -76 175 -120 225 -110 98 19 93 19 93 -4 0 -30
-22 -35 -88 -22 -80 16 -174 65 -236 126 -144 138 -189 394 -100 568 25 48 24
29 -2 -40z m388 -30 c2 -30 -3 -45 -24 -71 -20 -23 -28 -44 -28 -71 0 -36 -12
-51 -39 -51 -13 0 -31 49 -31 81 0 52 47 126 90 142 27 10 29 8 32 -30z m143
-102 c0 -19 -5 -36 -12 -38 -7 -3 -10 3 -6 15 3 12 -4 28 -19 42 l-23 22 30
-4 c27 -3 30 -7 30 -37z m-115 0 c0 -23 5 -30 22 -33 44 -6 30 -68 -15 -68
-47 0 -73 62 -47 111 16 30 40 24 40 -10z m76 -2 c10 -17 -13 -36 -27 -22 -12
12 -4 33 11 33 5 0 12 -5 16 -11z m-46 -138 c0 -5 -7 -14 -15 -21 -8 -7 -15
-24 -15 -39 -1 -25 -1 -25 -15 8 -22 50 -19 61 15 61 17 0 30 -4 30 -9z m356
-138 c-4 -17 -39 -59 -87 -105 -69 -66 -87 -78 -115 -78 -19 0 -34 5 -34 11 0
16 65 122 87 141 21 19 109 55 137 57 15 1 17 -4 12 -26z m-631 -24 c33 -11
67 -25 75 -29 18 -10 90 -112 90 -128 0 -36 -72 -15 -167 49 -77 52 -109 89
-99 114 7 20 31 19 101 -6z m295 -208 c-10 -37 -58 -91 -82 -91 -6 0 1 9 16
21 33 26 58 73 50 93 -4 9 0 24 7 33 13 14 14 15 17 0 2 -8 -2 -34 -8 -56z"/>
<path d="M280 1297 l0 -82 70 -55 c39 -30 75 -57 80 -58 24 -8 -5 28 -61 77
l-60 53 3 57 c3 56 3 56 37 59 19 2 54 -2 78 -9 56 -15 64 -7 20 20 -26 16
-51 21 -101 21 l-66 0 0 -83z"/>
<path d="M1514 1324 c83 -86 136 -219 136 -339 -1 -239 -137 -425 -375 -511
-39 -14 -68 -32 -83 -53 -24 -30 -24 -31 -5 -31 46 0 218 51 298 89 111 52
198 114 271 194 63 69 140 190 125 195 -5 2 -27 -6 -48 -17 -21 -11 -32 -20
-25 -21 39 -1 -23 -97 -121 -186 -67 -61 -163 -121 -248 -155 -54 -22 -159
-51 -159 -44 0 2 21 14 48 25 72 32 180 109 220 157 92 110 127 224 120 385
-6 116 -25 178 -83 264 -19 30 -35 56 -35 60 0 3 46 3 103 0 118 -7 152 -7
227 -4 l55 3 3 -56 3 -56 -56 -49 c-55 -47 -90 -91 -66 -83 6 2 42 29 81 59
l70 55 0 82 0 83 -67 0 c-51 0 -76 -5 -98 -20 -39 -26 -53 -26 -30 0 18 20 17
20 -143 20 l-162 0 44 -46z"/>
<path d="M286 1123 c16 -95 35 -178 42 -184 4 -4 33 -23 65 -43 70 -45 81 -24
12 24 -47 32 -67 67 -78 132 -7 46 1 52 46 33 65 -27 48 2 -24 39 l-70 37 7
-38z"/>
<path d="M1895 1112 c-47 -24 -64 -37 -52 -40 10 -2 31 1 47 7 38 13 43 3 30
-55 -15 -64 -24 -78 -74 -115 -64 -45 -67 -67 -6 -32 88 50 89 50 111 157 11
54 19 102 17 106 -2 4 -34 -8 -73 -28z"/>
<path d="M845 353 c-4 -11 -17 -24 -28 -28 l-22 -6 23 -9 c12 -5 22 -16 22
-25 0 -8 5 -15 10 -15 6 0 10 7 10 15 0 9 10 19 22 24 18 7 19 8 4 14 -9 4
-21 17 -26 29 l-9 23 -6 -22z"/>
<path d="M1381 358 c-1 -10 -10 -22 -21 -28 -19 -10 -19 -11 3 -33 21 -21 23
-21 35 -5 7 10 21 18 30 19 13 0 12 3 -4 11 -12 5 -27 20 -32 32 -9 17 -11 18
-11 4z"/>
<path d="M1117 271 c-5 -21 -15 -32 -44 -43 -36 -15 -36 -16 -13 -23 34 -10
60 -35 60 -57 0 -28 14 -22 27 12 8 20 22 34 43 42 l32 11 -32 13 c-19 9 -36
25 -43 44 -14 38 -23 38 -30 1z"/>
</g>
</svg>
