<?xml version="1.0" encoding="UTF-8" standalone="no"?>
<!-- Created with Inkscape (http://www.inkscape.org/) -->

<svg
   xmlns:dc="http://purl.org/dc/elements/1.1/"
   xmlns:cc="http://creativecommons.org/ns#"
   xmlns:rdf="http://www.w3.org/1999/02/22-rdf-syntax-ns#"
   xmlns:svg="http://www.w3.org/2000/svg"
   xmlns="http://www.w3.org/2000/svg"
   xmlns:sodipodi="http://sodipodi.sourceforge.net/DTD/sodipodi-0.dtd"
   xmlns:inkscape="http://www.inkscape.org/namespaces/inkscape"
   version="1.1"
   id="svg4363"
   width="200"
   height="200"
   viewBox="0 0 200 200"
   sodipodi:docname="villa.svg"
   inkscape:version="0.92.4 (5da689c313, 2019-01-14)">
  <metadata
     id="metadata4369">
    <rdf:RDF>
      <cc:Work
         rdf:about="">
        <dc:format>image/svg+xml</dc:format>
        <dc:type
           rdf:resource="http://purl.org/dc/dcmitype/StillImage" />
        <dc:title></dc:title>
      </cc:Work>
    </rdf:RDF>
  </metadata>
  <defs
     id="defs4367" />
  <sodipodi:namedview
     pagecolor="#ffffff"
     bordercolor="#666666"
     borderopacity="1"
     objecttolerance="10"
     gridtolerance="10"
     guidetolerance="10"
     inkscape:pageopacity="0"
     inkscape:pageshadow="2"
     inkscape:window-width="1366"
     inkscape:window-height="705"
     id="namedview4365"
     showgrid="false"
     fit-margin-top="0"
     fit-margin-left="0"
     fit-margin-right="0"
     fit-margin-bottom="0"
     inkscape:zoom="1.18"
     inkscape:cx="100"
     inkscape:cy="100"
     inkscape:window-x="-8"
     inkscape:window-y="-8"
     inkscape:window-maximized="1"
     inkscape:current-layer="svg4363" />
  <g
     id="g4373"
     transform="translate(24.576273,15.254237)">
    <path
       style="fill:#d9183e"
       d="m 91.490158,198.25 c 0.387275,-0.9625 1.630346,-4.13203 2.762379,-7.0434 1.372206,-3.52904 2.55934,-5.1956 3.561628,-5 1.821511,0.35549 7.469755,13.13866 6.032605,13.65308 -0.55265,0.19782 -1.66978,-0.58968 -2.4825,-1.75 C 99.50573,195.45624 96.840605,195.41366 94.5,198 c -2.232235,2.46659 -3.959441,2.61006 -3.009842,0.25 z M 99,192.5 c 0,-0.825 -0.423442,-1.5 -0.940983,-1.5 -1.260978,0 -2.164095,1.56159 -1.365164,2.36052 C 97.820037,194.4867 99,194.04641 99,192.5 Z m 7.57709,2.75 c -0.35502,-2.0625 -0.89085,-4.9875 -1.19074,-6.5 -0.7167,-3.61466 2.03284,-3.75809 4.79231,-0.25 2.60717,3.31447 3.82134,3.15561 3.82134,-0.5 0,-4.93187 1.775,-3.40077 3.02219,2.60691 1.52213,7.33202 0.18552,8.97508 -3.69946,4.54767 C 109.78373,191.12146 109,191.18409 109,195.5 c 0,4.64464 -1.60897,4.47863 -2.42291,-0.25 z m -26.354584,1.1933 c -2.859816,-2.0031 -3.091365,-8.34702 -0.393765,-10.78831 2.292305,-2.07451 7.516488,-2.14887 9.191315,-0.13082 1.618148,1.94974 0.496699,3.14959 -1.440848,1.54157 -2.409581,-1.99978 -5.929513,-0.87821 -7.020684,2.23703 -1.243972,3.55148 0.27181,6.19723 3.550462,6.19723 1.948352,0 2.328695,-0.44252 2.0544,-2.39023 -0.26549,-1.88518 0.01591,-2.25495 1.331787,-1.75 0.917621,0.35213 1.856598,0.64023 2.086614,0.64023 0.935086,0 0.335229,3.68298 -0.781787,4.8 -1.673769,1.67377 -5.931372,1.49671 -8.577494,-0.3567 z m 40.294344,-6.41006 C 119.13258,187.30153 118,184.61308 118,184.05892 c 0,-1.7068 6.0538,-4.26223 8.58952,-3.62581 2.35563,0.59123 5.41048,5.08916 5.41048,7.96634 0,1.60156 -5.92826,6.60055 -7.82755,6.60055 -0.62631,0 -2.27134,-2.23504 -3.6556,-4.96676 z m 8.31028,-0.84106 C 129.20875,186.49993 126.56358,182 124.59939,182 c -2.96522,0 -3.7494,2.61758 -1.92826,6.43654 2.02486,4.24617 5.59903,4.6849 6.156,0.75564 z M 66.222506,190.4433 C 65.000128,189.58711 64,187.9238 64,186.74705 64,184.45939 68.695864,177 70.136001,177 c 1.199046,0 1.086981,2.74416 -0.143113,3.5044 -0.553911,0.34233 -1.707183,1.97621 -2.562827,3.63085 -1.212865,2.34542 -1.294504,3.32316 -0.370444,4.43658 1.980198,2.386 2.543871,2.08858 7.869269,-4.15215 3.702759,-4.33919 3.766919,-1.08601 0.07062,3.58094 -3.428999,4.32946 -5.3285,4.8581 -8.777004,2.44268 z m 66.910824,-7.57665 C 131.96,180.0433 131,177.1183 131,176.36665 c 0,-1.93859 3.00454,-1.69453 8.37288,0.68014 4.75042,2.10134 6.05369,3.95321 2.78211,3.95321 -2.23022,0 -5.15499,3.02335 -5.15499,5.32874 0,3.20149 -1.74775,1.63661 -3.86667,-3.46209 z m 3.80192,-3.44467 c -0.63902,-0.76998 -1.58273,-1.13985 -2.09712,-0.82194 -0.55309,0.34183 -0.46049,1.15007 0.22662,1.97798 0.63902,0.76998 1.58273,1.13985 2.09712,0.82194 0.55309,-0.34183 0.46049,-1.15007 -0.22662,-1.97798 z M 89.5,177.20288 c -6.405327,-2.21859 -8.802576,-3.94004 -12.397301,-8.90241 l -2.91439,-4.0232 -12.344155,-0.51463 C 46.737394,163.13284 39.81646,160.86909 33.409371,154.462 25.373669,146.4263 25.613997,148.91661 25.234219,69.75 L 24.899613,0 H 99.949807 175 l -0.008,65.75 c -0.005,39.91579 -0.40985,68.30395 -1.03141,72.25 -1.96532,12.47692 -8.23518,20.14868 -19.25517,23.56047 -2.86323,0.88646 -10.30006,1.91049 -16.52629,2.27564 -9.89997,0.58059 -11.45801,0.91484 -12.41691,2.66389 -0.60307,1.1 -2.72128,3.64034 -4.70713,5.6452 -6.41857,6.48 -20.79604,8.7844 -31.55554,5.05768 z M 79.180449,147.75 c 0.608617,-4.28535 6.806819,-6.22653 19.819551,-6.20717 14.32888,0.0213 19.74695,1.43282 21.17006,5.51517 l 1.02559,2.942 h 13.01875 13.01875 l -0.52045,-2.72258 c -0.41751,-2.18408 0.18551,-3.38838 3.04877,-6.08879 4.50971,-4.2532 3.39979,-5.15228 -6.38647,-5.17332 -10.7449,-0.0231 -12.6044,-0.64131 -14.6219,-4.86132 -1.31904,-2.75903 -1.4415,-3.75002 -0.5,-4.04607 0.68579,-0.21565 3.6094,-2.73467 6.4969,-5.59783 4.84772,-4.80686 5.25,-5.56526 5.25,-9.89775 C 140,103.01788 132.65029,93 126.34488,93 c -1.29701,0 -2.46052,-0.788982 -2.81622,-1.909695 -1.03572,-3.263267 -3.09186,-4.380038 -5.40482,-2.935571 -3.37819,2.109717 -3.63001,0.118391 -0.68459,-5.413679 8.71354,-16.365739 21.57468,-42.333699 22.91545,-46.268641 1.47342,-4.324244 1.45249,-4.665221 -0.39997,-6.517686 C 138.87963,28.879628 137.52851,28 136.95225,28 c -2.79489,0 -9.6638,10.983907 -23.98237,38.349626 L 105.82759,80 99.663795,79.9836 93.5,79.9672 87,67.313951 C 76.896412,47.645764 67.063107,31.087455 64.482364,29.396488 c -1.873168,-1.227347 -2.789734,-1.302356 -4.53044,-0.370759 -1.821897,0.97505 -2.086245,1.759121 -1.601076,4.74887 0.737977,4.547619 20.989459,45.221535 24.28767,48.780364 5.399623,5.826289 -0.559432,4.004689 -8.0186,-2.451175 C 67.876521,74.26742 62,74.673994 62,80.976912 c 0,2.963817 7.239451,13.156444 10.118587,14.246244 1.050777,0.397736 2.371649,1.936063 2.935273,3.418505 0.563623,1.482439 1.742618,3.220249 2.619988,3.861799 1.153265,0.84329 1.636462,3.013 1.744084,7.8315 0.08188,3.66577 -0.20776,6.66504 -0.643635,6.66504 -0.435875,0 -2.250905,1.40165 -4.033399,3.11477 L 71.5,123.22955 l 2.25,1.5072 c 2.968101,1.98822 2.851879,3.89537 -0.28537,4.68277 -1.394453,0.34999 -2.934252,1.68548 -3.421776,2.96776 C 68.979412,135.18435 65.681142,136 55.434017,136 c -4.327291,0 -7.599153,0.45818 -8.00915,1.12157 -0.384131,0.62153 0.738693,2.45976 2.518489,4.12312 2.372125,2.21694 3.065456,3.58407 2.652359,5.22997 -0.307614,1.22563 -0.267492,2.52023 0.08916,2.87688 0.356652,0.35665 6.39216,0.64846 13.412241,0.64846 12.475166,0 12.771008,-0.0509 13.083333,-2.25 z m -0.692438,-7.71223 c 0.342533,-1.07922 0.132025,-2.87922 -0.467796,-4 C 77.325479,134.73965 77.2926,134 77.929632,134 79.261671,134 81,137.35976 81,139.93426 81,141.14328 80.349961,142 79.432612,142 c -1.102255,0 -1.382571,-0.5823 -0.944601,-1.96223 z m 38.331889,-0.53371 c -0.93966,-2.06233 -0.82215,-2.84409 0.67642,-4.5 C 120.60308,131.57114 125,133.03368 125,137.5 c 0,4.80483 -6.21071,6.32641 -8.1801,2.00406 z m 6.74244,-3.40319 c -1.02721,-1.66206 -4.26438,-1.31971 -4.9726,0.52588 -0.34334,0.89471 -0.091,2.26925 0.5607,3.05452 1.01281,1.22036 1.46877,1.14396 3.13861,-0.52588 1.07452,-1.07451 1.64749,-2.44905 1.27329,-3.05452 z m -38.358719,1.3292 c -3.054282,-2.1393 -2.900009,-6.15565 0.292317,-7.61017 5.104869,-2.32594 8.665418,4.69342 3.957683,7.80227 -1.740938,1.14967 -2.375289,1.121 -4.25,-0.1921 z M 89.361626,135.5 c 0.858197,-2.23643 -0.390242,-4.64114 -2.22597,-4.28761 -2.0671,0.39809 -2.746988,3.78525 -0.984049,4.90247 1.916181,1.21434 2.555049,1.09197 3.210019,-0.61486 z M 107.2,136.8 c -1.65776,-1.65776 -1.50366,-5.3031 0.28701,-6.78922 3.7772,-3.1348 9.63701,2.72501 6.50221,6.50221 -1.48612,1.79067 -5.13146,1.94477 -6.78922,0.28701 z m 4.78943,-1.28727 C 113.50638,133.68493 112.62021,131 110.5,131 c -1.8349,0 -2.95814,2.36374 -2.13837,4.5 0.73129,1.90573 2.0529,1.91037 3.6278,0.0127 z m -15.939243,0.0477 c -0.657086,-0.79174 -1.049686,-2.70424 -0.872445,-4.25 0.265976,-2.31962 0.846206,-2.85138 3.322258,-3.04473 2.59062,-0.2023 2.71195,-0.11138 0.8891,0.66631 -2.607189,1.11232 -3.605538,3.45151 -2.110955,4.94609 C 98.839113,135.43911 100,135.27783 100,133.5 c 0,-0.825 0.675,-1.5 1.5,-1.5 1.99705,0 1.92964,3.62116 -0.0818,4.39301 -2.506703,0.96191 -4.081454,0.71768 -5.368023,-0.83254 z M 122.5,127 c 0.33992,-0.55 0.81648,-1 1.05902,-1 0.24254,0 0.44098,0.45 0.44098,1 0,0.55 -0.47656,1 -1.05902,1 -0.58246,0 -0.7809,-0.45 -0.44098,-1 z M 88.027904,123.53362 C 86.358576,121.5222 86.818273,120.74427 92,116.81172 l 4.5,-3.41516 4.5,3.416 c 5.18235,3.93397 5.64104,4.71011 3.9721,6.72106 C 104.10737,124.57555 101.6551,125 96.5,125 c -5.155103,0 -7.60737,-0.42445 -8.472096,-1.46638 z m 27.357086,-0.99844 c 2.16777,-3.30843 2.03373,-5.12849 -0.50885,-6.90938 -1.91425,-1.34079 -2.05242,-2.0619 -1.40007,-7.3067 0.39809,-3.20051 0.90369,-6.11342 1.12357,-6.47314 0.75801,-1.24009 10.69685,3.26309 15.0195,6.80518 l 4.333,3.55057 -2.96883,2.96883 c -2.08733,2.08733 -3.55361,2.78323 -4.9383,2.34375 -2.64567,-0.83971 -5.5626,0.86047 -7.70834,4.49291 -0.97234,1.64604 -2.39762,2.9928 -3.16729,2.9928 -1.14088,0 -1.10105,-0.45533 0.21561,-2.46482 z m -23.611839,-20.0262 -4.72685,-4.291879 1.200277,-5.052884 1.200277,-5.052883 6.351998,-0.680241 c 3.493599,-0.374133 6.716827,-0.286683 7.162727,0.194333 0.44591,0.481016 1.48421,3.22523 2.30735,6.098253 l 1.49661,5.223679 -4.34393,2.545712 c -2.38917,1.40015 -4.698913,3.16718 -5.132773,3.92675 -0.604774,1.05879 -1.891777,0.37959 -5.515686,-2.91084 z M 71,116.82874 c 0,-0.64419 -0.719083,-1.96584 -1.597961,-2.93699 -0.878879,-0.97115 -1.302321,-2.24408 -0.940983,-2.82874 1.066901,-1.72628 3.385325,-1.21857 4.573499,1.00156 0.86897,1.62368 1.402332,1.81774 2.497634,0.90872 1.171665,-0.9724 1.048206,-1.62182 -0.777854,-4.0917 -1.19381,-1.61471 -2.736668,-2.71861 -3.428573,-2.4531 -0.900311,0.34548 -1.098328,-0.31566 -0.69642,-2.3252 0.448166,-2.24083 0.01015,-3.2417 -2.168735,-4.955617 -5.809034,-4.569387 -9.845058,-1.065021 -6.990371,6.069547 C 64.530985,112.86678 71,120.74894 71,116.82874 Z M 102.25199,71.25 c 0.85907,-0.9625 2.09414,-3.747819 2.74458,-6.189597 1.15398,-4.332083 4.91635,-8.944819 9.89275,-12.12869 2.08504,-1.334004 2.42695,-2.413913 2.68491,-8.480193 0.39471,-9.282151 0.011,-10.216856 -4.71725,-11.490031 -4.64246,-1.250084 -8.12557,0.339137 -10.06303,4.591401 -2.25184,4.942251 -4.617286,2.771422 -9.319659,-8.55289 -3.497985,-8.42389 -5.725705,-10.09913 -7.438619,-5.593825 -0.662223,1.741779 -0.379267,3.81565 1.024751,7.510727 C 88.29874,34.175886 89,38.51424 89,42.916113 c 0,6.360998 0.260208,7.206109 3.361773,10.91844 2.439328,2.919685 3.547774,5.425922 4.039636,9.133766 C 97.189932,68.912495 98.582977,73 99.820262,73 c 0.478368,0 1.572648,-0.7875 2.431728,-1.75 z m -51.900347,-4.341653 1.465051,-2.091653 2.091653,2.091653 c 2.486971,2.486971 5.355072,2.685377 7.520224,0.520224 3.001921,-3.00192 1.302906,-9.110459 -1.814385,-6.523337 C 57.99754,62.246931 57,61.329125 57,58.5 57,55.670875 57.99754,54.753069 59.614186,56.094766 61.514582,57.671954 63,56.298446 63,52.964036 c 0,-2.008975 -0.778767,-3.428198 -2.5,-4.555993 -2.315871,-1.517417 -2.684129,-1.517417 -5,0 -1.375,0.900935 -2.57697,2.190189 -2.671044,2.86501 -0.199013,1.427572 -0.485814,4.411318 -0.687387,7.151261 C 52.009069,60.22535 51.839841,60.198167 49.5,58 46.477152,55.160182 46.387774,54.393363 49,53.710251 c 2.753516,-0.720061 2.507228,-3.331796 -0.5,-5.302208 -2.315871,-1.517417 -2.684129,-1.517417 -5,0 -2.957592,1.937889 -3.320426,5.975623 -0.85347,9.497696 1.528708,2.182536 1.528708,2.416689 0,3.272196 C 39.042112,63.19507 41.912786,69 46.514725,69 c 1.304527,0 3.03114,-0.941244 3.836918,-2.091653 z M 163.15919,67.35885 c 0.77107,-0.426522 0.17574,-12.007913 -0.6892,-13.407407 -0.82156,-1.329319 -3.8342,-1.187229 -5.26999,0.248557 -1.76299,1.762995 -1.46671,2.8 0.8,2.8 2.72368,0 2.51335,1.433619 -0.5,3.408043 -2.66574,1.746662 -3.31807,5.373891 -1.3249,7.367061 1.01359,1.013589 4.80804,0.787439 6.98409,-0.416254 z M 158.15,64.05 c 0.42971,-1.289135 1.80131,-1.520703 1.925,-0.325 0.0413,0.39875 -0.465,0.905 -1.125,1.125 -0.66,0.22 -1.02,-0.14 -0.8,-0.8 z M 142.80425,60.634246 C 142.63691,57.52276 142.05,54.869673 141.5,54.738499 c -1.11111,-0.264998 -1.95223,9.640634 -1.02401,12.059519 1.21378,3.163065 2.62845,-0.582091 2.32826,-6.163772 z m 4.987,-2.981545 c -0.37161,-11.055526 -2.19309,-11.402946 -2.58438,-0.492932 -0.3179,8.863504 0.22328,11.810078 1.86716,10.1662 0.57118,-0.571178 0.88218,-4.765666 0.71722,-9.673268 z M 153,57.440983 C 153,51.813661 152.59605,48 152,48 c -0.60039,0 -1,4.019672 -1,10.059017 0,6.451367 0.35865,9.83736 1,9.440983 0.55241,-0.341409 1,-4.843718 1,-10.059017 z M 142,49 c 0,-0.55 -0.19844,-1 -0.44098,-1 -0.24254,0 -0.7191,0.45 -1.05902,1 -0.33992,0.55 -0.14148,1 0.44098,1 C 141.52344,50 142,49.55 142,49 Z"
       id="path4377"
       inkscape:connector-curvature="0" />
    <path
       style="fill:#2e4ca4"
       d="M 90.324175,177.56051 C 85.763665,176.13452 79,172.27488 79,171.09844 c 0,-0.40614 -1.553781,-2.55369 -3.452846,-4.77232 -3.364782,-3.93099 -3.651708,-4.04855 -11.25,-4.60961 -10.448176,-0.7715 -16.765567,-3.13229 -21.767876,-8.1346 C 34.810886,145.86352 34.942863,147.30424 35.239229,74 L 35.5,9.5 h 65.5 65.5 v 66 66 l -2.62919,5.60696 c -4.35741,9.29254 -12.03447,13.59183 -26.09529,14.61386 -6.66486,0.48445 -8.05141,0.91934 -10.10784,3.17032 -8.95353,9.80063 -10.38775,10.94825 -15.62673,12.50406 -6.42038,1.90665 -15.916539,1.97893 -21.716775,0.16531 z M 79.180449,147.75 c 0.608617,-4.28535 6.806819,-6.22653 19.819551,-6.20717 14.32888,0.0213 19.74695,1.43282 21.17006,5.51517 l 1.02559,2.942 h 13.01875 13.01875 l -0.52045,-2.72258 c -0.41751,-2.18408 0.18551,-3.38838 3.04877,-6.08879 4.50971,-4.2532 3.39979,-5.15228 -6.38647,-5.17332 -10.69921,-0.023 -12.80264,-0.66728 -14.21163,-4.35309 -1.09973,-2.87683 -1.00372,-3.29461 1.0639,-4.62919 1.25,-0.80683 4.24746,-3.39735 6.66101,-5.7567 l 4.38828,-4.28973 -0.55189,-6.08635 C 139.94993,102.35628 136.10051,96.294 129.35838,93 c -2.81433,-1.375 -6.80734,-4.002356 -8.87335,-5.838569 l -3.75637,-3.338568 4.70738,-8.661432 c 6.13071,-11.280313 17.43143,-34.534349 19.15076,-39.407436 1.23061,-3.487934 1.17681,-3.990381 -0.61959,-5.786785 C 138.88524,28.885245 137.52851,28 136.95225,28 c -2.79489,0 -9.6638,10.983907 -23.98237,38.349626 L 105.82759,80 99.663795,79.9836 93.5,79.9672 87,67.313951 C 76.896412,47.645764 67.063107,31.087455 64.482364,29.396488 c -2.968565,-1.945079 -6.486682,-0.375114 -6.473247,2.888696 0.01148,2.789108 8.965362,22.275649 17.613277,38.332191 3.631988,6.743495 6.586512,12.614537 6.56561,13.046762 -0.09452,1.954467 -2.164196,1.031428 -7.062642,-3.149809 -5.585184,-4.767427 -9.798067,-5.818546 -12.117823,-3.023412 -1.479966,1.78325 -0.666637,8.684779 1.52023,12.899969 C 66.470992,94.136452 66.38571,95 64.07258,95 62.108656,95 58,99.339029 58,101.41307 c 0,0.62884 1.505227,4.28424 3.34495,8.12309 2.333972,4.87019 5.054131,8.54184 9,12.14814 3.110277,2.84262 5.65505,5.60276 5.65505,6.13364 0,0.53088 -1.140916,1.2516 -2.53537,1.60158 -1.394453,0.34999 -2.934252,1.68548 -3.421776,2.96776 C 68.979412,135.18435 65.681142,136 55.434017,136 c -4.327291,0 -7.599153,0.45818 -8.00915,1.12157 -0.384131,0.62153 0.738693,2.45976 2.518489,4.12312 2.372125,2.21694 3.065456,3.58407 2.652359,5.22997 -0.307614,1.22563 -0.267492,2.52023 0.08916,2.87688 0.356652,0.35665 6.39216,0.64846 13.412241,0.64846 12.475166,0 12.771008,-0.0509 13.083333,-2.25 z m 23.071541,-76.5 c 0.85907,-0.9625 2.09414,-3.747819 2.74458,-6.189597 1.15398,-4.332083 4.91635,-8.944819 9.89275,-12.12869 2.08504,-1.334004 2.42695,-2.413913 2.68491,-8.480193 0.39471,-9.282151 0.011,-10.216856 -4.71725,-11.490031 -4.64246,-1.250084 -8.12557,0.339137 -10.06303,4.591401 -2.25184,4.942251 -4.617286,2.771422 -9.319659,-8.55289 -3.497985,-8.42389 -5.725705,-10.09913 -7.438619,-5.593825 -0.662223,1.741779 -0.379267,3.81565 1.024751,7.510727 C 88.29874,34.175886 89,38.51424 89,42.916113 c 0,6.360998 0.260208,7.206109 3.361773,10.91844 2.439328,2.919685 3.547774,5.425922 4.039636,9.133766 C 97.189932,68.912495 98.582977,73 99.820262,73 c 0.478368,0 1.572648,-0.7875 2.431728,-1.75 z m -51.900347,-4.341653 1.465051,-2.091653 2.091653,2.091653 c 2.486971,2.486971 5.355072,2.685377 7.520224,0.520224 3.001921,-3.00192 1.302906,-9.110459 -1.814385,-6.523337 C 57.99754,62.246931 57,61.329125 57,58.5 57,55.670875 57.99754,54.753069 59.614186,56.094766 61.514582,57.671954 63,56.298446 63,52.964036 c 0,-2.008975 -0.778767,-3.428198 -2.5,-4.555993 -2.315871,-1.517417 -2.684129,-1.517417 -5,0 -1.375,0.900935 -2.57697,2.190189 -2.671044,2.86501 -0.199013,1.427572 -0.485814,4.411318 -0.687387,7.151261 C 52.009069,60.22535 51.839841,60.198167 49.5,58 46.477152,55.160182 46.387774,54.393363 49,53.710251 c 2.753516,-0.720061 2.507228,-3.331796 -0.5,-5.302208 -2.315871,-1.517417 -2.684129,-1.517417 -5,0 -2.957592,1.937889 -3.320426,5.975623 -0.85347,9.497696 1.528708,2.182536 1.528708,2.416689 0,3.272196 C 39.042112,63.19507 41.912786,69 46.514725,69 c 1.304527,0 3.03114,-0.941244 3.836918,-2.091653 z M 163.15919,67.35885 c 0.77107,-0.426522 0.17574,-12.007913 -0.6892,-13.407407 -0.82156,-1.329319 -3.8342,-1.187229 -5.26999,0.248557 -1.76299,1.762995 -1.46671,2.8 0.8,2.8 2.72368,0 2.51335,1.433619 -0.5,3.408043 -2.66574,1.746662 -3.31807,5.373891 -1.3249,7.367061 1.01359,1.013589 4.80804,0.787439 6.98409,-0.416254 z M 158.15,64.05 c 0.42971,-1.289135 1.80131,-1.520703 1.925,-0.325 0.0413,0.39875 -0.465,0.905 -1.125,1.125 -0.66,0.22 -1.02,-0.14 -0.8,-0.8 z M 142.80425,60.634246 C 142.63691,57.52276 142.05,54.869673 141.5,54.738499 c -1.11111,-0.264998 -1.95223,9.640634 -1.02401,12.059519 1.21378,3.163065 2.62845,-0.582091 2.32826,-6.163772 z m 4.987,-2.981545 c -0.37161,-11.055526 -2.19309,-11.402946 -2.58438,-0.492932 -0.3179,8.863504 0.22328,11.810078 1.86716,10.1662 0.57118,-0.571178 0.88218,-4.765666 0.71722,-9.673268 z M 153,57.440983 C 153,51.813661 152.59605,48 152,48 c -0.60039,0 -1,4.019672 -1,10.059017 0,6.451367 0.35865,9.83736 1,9.440983 0.55241,-0.341409 1,-4.843718 1,-10.059017 z M 142,49 c 0,-0.55 -0.19844,-1 -0.44098,-1 -0.24254,0 -0.7191,0.45 -1.05902,1 -0.33992,0.55 -0.14148,1 0.44098,1 C 141.52344,50 142,49.55 142,49 Z"
       id="path4375"
       inkscape:connector-curvature="0" />
  </g>
</svg>
