<?xml version="1.0" encoding="UTF-8" standalone="no"?>
<!-- Created with Inkscape (http://www.inkscape.org/) -->

<svg
   xmlns:dc="http://purl.org/dc/elements/1.1/"
   xmlns:cc="http://creativecommons.org/ns#"
   xmlns:rdf="http://www.w3.org/1999/02/22-rdf-syntax-ns#"
   xmlns:svg="http://www.w3.org/2000/svg"
   xmlns="http://www.w3.org/2000/svg"
   xmlns:sodipodi="http://sodipodi.sourceforge.net/DTD/sodipodi-0.dtd"
   xmlns:inkscape="http://www.inkscape.org/namespaces/inkscape"
   version="1.1"
   id="svg3741"
   width="349"
   height="286"
   viewBox="0 0 349 286"
   sodipodi:docname="Vipers1.svg"
   inkscape:version="0.92.4 (5da689c313, 2019-01-14)">
  <metadata
     id="metadata3747">
    <rdf:RDF>
      <cc:Work
         rdf:about="">
        <dc:format>image/svg+xml</dc:format>
        <dc:type
           rdf:resource="http://purl.org/dc/dcmitype/StillImage" />
        <dc:title></dc:title>
      </cc:Work>
    </rdf:RDF>
  </metadata>
  <defs
     id="defs3745" />
  <sodipodi:namedview
     pagecolor="#ffffff"
     bordercolor="#666666"
     borderopacity="1"
     objecttolerance="10"
     gridtolerance="10"
     guidetolerance="10"
     inkscape:pageopacity="0"
     inkscape:pageshadow="2"
     inkscape:window-width="1366"
     inkscape:window-height="705"
     id="namedview3743"
     showgrid="false"
     fit-margin-top="0"
     fit-margin-left="0"
     fit-margin-right="0"
     fit-margin-bottom="0"
     inkscape:zoom="0.81375358"
     inkscape:cx="45.46831"
     inkscape:cy="143"
     inkscape:window-x="-8"
     inkscape:window-y="-8"
     inkscape:window-maximized="1"
     inkscape:current-layer="svg3741" />
  <g
     id="g3759"
     transform="translate(-4.2253521e-6,-2.4577468)">
    <path
       style="fill:#e8472c"
       d="m 91.999774,263.4393 c -4.483903,-5.80838 -8.83628,-10.82307 -9.671948,-11.14374 -0.835669,-0.32068 -14.863794,0.20165 -31.173612,1.16073 -16.309817,0.95908 -31.191333,1.58626 -33.070033,1.39375 L 14.668361,254.5 31.834181,238.11771 C 41.275381,229.10745 49,221.14726 49,220.4284 c 0,-0.71886 -7.421625,-7.74683 -16.4925,-15.61771 -9.070875,-7.87088 -16.495875,-14.80293 -16.5,-15.40456 -0.0077,-1.1289 20.996314,-2.39923 39.901494,-2.41324 5.275053,-0.004 12.669469,-0.29781 16.432034,-0.6531 7.903098,-0.74629 7.636571,0.27331 3.617745,-13.83979 -2.963083,-10.4056 -3.291231,-33.12354 -0.633575,-43.86281 4.316918,-17.44415 12.57866,-32.402919 25.110512,-45.465275 8.05847,-8.399605 20.34394,-17.417515 28.86155,-21.185259 2.54095,-1.12398 4.84507,-2.407937 5.12028,-2.853237 0.48768,-0.789071 -0.52574,-2.365298 -7.1138,-11.064587 C 117.7758,35.487554 119.50817,26.238909 132.69861,19.267109 139.65879,15.588313 153.8607,11 158.28727,11 c 1.75121,0 5.60726,1.226047 8.569,2.724548 l 5.38497,2.724549 4.8799,-2.724549 c 5.6742,-3.168018 11.94821,-3.573702 17.66098,-1.141975 2.04483,0.870415 6.41788,2.451655 9.71788,3.513865 12.09321,3.892585 19.48312,11.654908 20.28343,21.305604 0.42994,5.184503 0.20457,5.847039 -4.28741,12.603943 -2.60766,3.922486 -4.79854,7.864503 -4.86861,8.760038 -0.0808,1.032088 2.25372,2.940906 6.37602,5.213427 10.36369,5.713244 15.97423,9.911361 24.02603,17.977593 13.45278,13.476891 22.85505,30.832667 26.51534,48.944997 2.28155,11.28987 1.58754,33.43489 -1.36527,43.56386 -1.11688,3.83124 -1.81263,7.31874 -1.5461,7.75 0.26653,0.43125 14.18305,0.7841 30.92559,0.7841 17.51804,0 30.44098,0.38456 30.44098,0.90585 0,0.49822 -6.75,7.41248 -15,15.36502 -8.25,7.95255 -14.99521,15.08242 -14.98936,15.84415 0.006,0.76174 7.20107,7.68498 15.98936,15.38498 8.78829,7.7 15.9835,14.5625 15.98936,15.25 0.008,0.9733 -6.84017,1.25 -30.93847,1.25 h -30.94911 l -2.39727,3.25 c -1.31849,1.7875 -4.11275,6.175 -6.20945,9.75 -6.37988,10.87807 -5.1258,10.50399 -16.80955,5.01411 -21.98747,-10.33132 -46.15019,-16.01733 -68.03488,-16.01009 -26.02395,0.009 -47.10323,6.12819 -67.22364,19.51585 -4.52988,3.01407 -8.6948,5.48013 -9.2554,5.48013 -0.5606,0 -4.687913,-4.75231 -9.171816,-10.5607 z m 16.633546,-0.53103 c 2.47152,-1.70045 9.0776,-5.28015 14.68018,-7.95488 35.20584,-16.80767 77.28601,-15.66332 121.54424,3.30534 7.64061,3.27469 9.52639,3.75655 10.27676,2.62595 C 258.87041,255.25572 277,224.706 277,224.03966 c 0,-1.27374 -16.09417,-9.25659 -29,-14.38426 -13.81594,-5.48927 -30.61872,-9.94259 -46.09617,-12.21707 C 192.99002,196.1284 186.24218,195.87832 171,196.293 c -22.55271,0.61357 -35.63507,2.90933 -55.53264,9.74516 -19.688785,6.7641 -43.282145,19.39616 -42.079665,22.52977 C 74.717781,232.03408 101.2167,266 102.59078,266 c 0.85188,0 3.57102,-1.39128 6.04254,-3.09173 z M 238.25486,250.51118 C 233.30516,248.35972 230,244.55719 230,241.01407 c 0,-1.81948 0.61613,-3.31327 1.50772,-3.65541 1.87464,-0.71936 6.49228,2.19176 6.49228,4.09296 0,1.83614 2.7447,4.54838 4.60281,4.54838 3.43584,0 2.57667,-3.24908 -2.12014,-8.01759 -3.86304,-3.92202 -4.77224,-5.50271 -4.69654,-8.16519 0.18948,-6.66415 7.2424,-8.75103 15.25511,-4.51381 4.55057,2.4064 7.51542,7.17787 5.99187,9.64301 -1.32438,2.1429 -5.81269,0.38051 -7.5406,-2.96091 C 248.64338,230.34348 247.31175,229 246.53334,229 c -3.21773,0 -2.40092,2.33775 2.38758,6.83343 6.09304,5.72045 6.5951,8.80439 2.156,13.24349 -3.30696,3.30697 -7.44796,3.77018 -12.82206,1.43426 z M 105.36149,241.81205 C 100.21267,236.76278 96,231.85848 96,230.91361 c 0,-1.03645 1.289269,-2.17261 3.25,-2.86404 3.19527,-1.12678 3.34263,-1.04383 8.75,4.92512 3.025,3.33917 5.87128,6.06088 6.32507,6.04826 0.45379,-0.0126 0.51421,-3.99678 0.13426,-8.85369 l -0.69082,-8.83073 3.20811,-1.32884 c 4.40604,-1.82505 4.70152,-1.09843 5.5524,13.65388 0.78116,13.54353 0.52498,14.42475 -4.72558,16.25511 -3.00642,1.04804 -3.30548,0.85318 -12.44195,-8.10663 z m 115.67968,0.82952 c -3.04605,-1.00533 -3.64823,-1.79797 -5.04572,-6.64157 -1.90499,-6.60256 -3.96805,-7.16039 -5.54755,-1.5 -0.86485,3.09929 -1.66039,4.06584 -3.53295,4.29239 -1.32922,0.16081 -3.24736,-0.31497 -4.26255,-1.05729 -1.77733,-1.29962 -1.72693,-1.79258 1.3592,-13.29239 1.76274,-6.56849 3.66584,-12.2311 4.22911,-12.58357 1.90035,-1.18915 18.05424,3.78688 19.96871,6.15115 2.7269,3.36759 2.23336,6.83116 -1.47792,10.37163 -3.11602,2.97261 -3.21195,3.28136 -2.05644,6.61808 1.40254,4.05005 1.65333,7.68468 0.57494,8.33255 -0.4125,0.24783 -2.30648,-0.0631 -4.20883,-0.69098 z m -1.62296,-18.24856 c 2.2211,-0.85231 1.96773,-3.11609 -0.49635,-4.43483 -2.67594,-1.43212 -4.92186,-0.55275 -4.92186,1.9271 0,2.55574 2.39927,3.66621 5.41821,2.50773 z M 134.47665,240.75 c -1.60229,-4.34858 -6.45582,-21.5346 -6.46525,-22.89301 -0.006,-0.90366 0.7004,-1.91616 1.57039,-2.25 C 131.2566,214.9643 136,214.76571 136,215.33827 c 0,0.18605 1.57893,5.69855 3.50874,12.25 3.25677,11.05635 3.38667,12.00149 1.80887,13.16173 -0.93493,0.6875 -2.75298,1.25 -4.04012,1.25 -1.28714,0 -2.54752,-0.5625 -2.80084,-1.25 z m 13.87619,-2.9881 c -0.42334,-0.685 -1.52944,-6.42415 -2.45799,-12.75367 -1.37986,-9.4059 -1.45263,-11.75622 -0.39835,-12.86573 0.88545,-0.93184 4.22384,-1.40218 10.64671,-1.5 L 165.5,210.5 l 1.79086,3.66313 c 3.09776,6.33636 0.22897,11.17238 -7.56591,12.75413 -2.9885,0.60643 -3.24791,0.98172 -3.53808,5.11858 -0.17222,2.45529 -0.62222,4.74356 -1,5.08505 -1.56784,1.41725 -6.09202,1.8416 -6.83403,0.64101 z m 11.44894,-19.57937 c -0.18678,-0.98554 -1.45453,-1.81361 -3.06033,-1.99895 -2.33752,-0.2698 -2.74145,0.0494 -2.74145,2.16666 0,1.3657 0.5625,2.68479 1.25,2.9313 1.9965,0.71587 4.90013,-1.26102 4.55178,-3.09901 z m 23.53577,18.09848 c -3.97265,-0.2025 -7.59023,-0.90306 -8.123,-1.57305 -1.23173,-1.54898 7.7e-4,-24.32328 1.39159,-25.7141 0.66021,-0.66021 4.51892,-0.75054 10.95649,-0.25649 9.83687,0.75492 9.94052,0.78997 10.24925,3.46553 0.30909,2.67877 0.25107,2.70555 -6.5,3 -5.25629,0.22925 -6.81188,0.63965 -6.81188,1.7971 0,1.03891 1.22957,1.58193 4,1.76654 7.20069,0.47983 8.65928,1.09709 8.31492,3.51881 -0.27929,1.96411 -0.99368,2.24914 -6.31492,2.51956 -6.69974,0.34046 -8.46516,1.32721 -6.53517,3.65271 0.8563,1.03178 3.01973,1.54238 6.53517,1.54238 5.94457,0 8.66399,1.92149 6.84116,4.83382 -1.12979,1.80507 -3.06306,2.00486 -14.00361,1.44719 z M 53.5,247.5036 c 16.995123,-0.87233 23.5,-1.64214 23.5,-2.78107 0,-0.57447 -2.492677,-4.35631 -5.539283,-8.40409 -3.046605,-4.04778 -5.780511,-7.98824 -6.075347,-8.75656 -0.330571,-0.86146 2.655347,-4.39711 7.789283,-9.22336 20.747506,-19.50406 26.822563,-25.75754 25.592245,-26.34388 -1.6508,-0.78675 -67.406743,1.30047 -68.266714,2.1669 -0.361133,0.36385 5.694859,6.18821 13.45776,12.94301 7.762901,6.7548 13.985596,12.8122 13.828211,13.46088 C 57.62877,221.21411 51.65,227.24329 44.5,233.9636 c -7.15,6.72032 -13.154954,12.90184 -13.344342,13.73671 -0.288597,1.27222 0.601789,1.42487 5.5,0.94294 C 39.870046,248.32698 47.45,247.81414 53.5,247.5036 Z m 257.02223,-14.80039 c -4.93777,-4.51176 -11.23777,-10.35866 -14,-12.99309 L 291.5,214.92024 304.26124,202.71012 c 7.01868,-6.71557 12.75618,-12.54762 12.75,-12.96012 -0.006,-0.4125 -13.99874,-0.75 -31.09457,-0.75 -18.61755,0 -30.94966,0.371 -30.75,0.92508 0.84691,2.35038 24.6175,28.42907 27.06799,29.69627 1.52094,0.78651 2.76534,1.84136 2.76534,2.34412 0,0.50277 -2.24914,4.65371 -4.99809,9.22432 -2.74895,4.57062 -4.99895,8.64771 -5,9.06021 -0.001,0.4125 10.01059,0.72895 22.24809,0.70321 l 22.25,-0.0468 -8.97777,-8.20322 z M 119.60539,198.43949 C 124.22242,197.0312 128,195.6081 128,195.27703 c 0,-0.33106 -1.324,-2.66633 -2.94223,-5.18948 -13.1182,-20.45399 -14.53708,-43.51601 -3.99331,-64.90623 5.05152,-10.24805 14.13482,-20.20432 23.34898,-25.592964 C 148.03605,97.469776 151,95.372522 151,94.927793 151,93.104163 145.5187,79.041538 142.33427,72.695339 138.44838,64.951178 138.55899,64.971689 129,70.222854 95.796559,88.462926 76.807569,123.4085 80.838272,158.85524 c 1.19667,10.52373 4.088576,21.20576 6.771632,25.01284 1.613076,2.28885 1.967119,2.34475 10.581668,1.67085 C 109.49549,184.65464 110,185.02136 110,194.12244 110,197.9051 110.27242,201 110.60539,201 c 0.33296,0 4.38296,-1.15223 9,-2.56051 z M 93.454416,174.57077 c -0.892429,-1.36201 -1.451706,-3.8881 -1.273053,-5.75 0.271177,-2.82615 0.691005,-3.3046 2.818637,-3.21218 1.399235,0.0608 3.07535,-0.70976 3.806704,-1.75 1.323156,-1.88199 4.779396,-2.43819 6.793596,-1.09328 3.25282,2.17197 4.45729,9.11208 1.9435,11.19834 -2.33952,1.94163 -3.67825,0.26994 -2.93909,-3.67009 0.52067,-2.77542 0.36443,-3.44994 -0.71571,-3.08989 -0.75997,0.25332 -1.63426,2.01391 -1.94285,3.91242 -0.3086,1.89851 -0.89928,3.99906 -1.31263,4.66788 -1.295198,2.09566 -5.473728,1.38954 -7.179104,-1.2132 z m -3.439103,-20.77871 c 0.01672,-5.77919 0.552577,-7.09349 3.307129,-8.11142 2.729827,-1.00879 5.52915,0.96732 6.460213,4.5604 0.573615,2.21364 1.578725,3.37213 3.272615,3.77201 1.56246,0.36884 2.44473,1.28262 2.44473,2.53203 0,1.7466 -0.82584,1.98604 -7.75,2.24698 l -7.75,0.29207 0.01531,-5.29207 z M 96,152.5 c 0,-0.825 -0.45,-1.5 -1,-1.5 -0.55,0 -1,0.675 -1,1.5 0,0.825 0.45,1.5 1,1.5 0.55,0 1,-0.675 1,-1.5 z m 0.242386,-10.97137 c -4.066402,-1.79563 -5.462214,-5.14861 -4.138716,-9.94192 1.38434,-5.01367 5.384087,-7.03053 10.57192,-5.33087 4.95799,1.62437 6.92834,5.3842 5.34144,10.19257 -1.87468,5.68032 -6.19467,7.5442 -11.774644,5.08022 z m 7.572534,-7.24328 c 0.23753,-1.67045 -0.31481,-2.37271 -2.24776,-2.85785 C 98.138506,130.56696 96,131.51107 96,133.88528 c 0,3.78168 7.28106,4.15441 7.81492,0.40007 z M 103.75,122.31757 c -3.17242,-1.99486 -5.735108,-4.33334 -5.716779,-5.21662 0.05561,-2.67971 5.413929,-9.58091 7.696179,-9.91222 1.41565,-0.20551 2.71442,0.559 3.82241,2.25 0.9241,1.41035 2.63758,2.56815 3.8132,2.57658 3.08584,0.0221 4.79741,1.39786 4.07648,3.27657 -0.59937,1.56194 -3.28522,2.94723 -5.08793,2.62422 -3.14153,-0.5629 -3.56828,0.22644 -1.3811,2.55458 1.92551,2.04961 2.10478,2.73133 1.05187,4 -1.67256,2.01531 -1.62604,2.02742 -8.27433,-2.15311 z M 106,114.5 c 0,-0.825 -0.42344,-1.5 -0.94098,-1.5 -1.26098,0 -2.1641,1.56159 -1.36517,2.36052 C 104.82004,116.4867 106,116.04641 106,114.5 Z m 12.03407,-9.08819 c -3.34769,-3.02443 -4.22501,-3.37999 -5.99831,-2.43095 C 109.90099,104.12335 108,103.62301 108,101.91864 108,100.40326 116.10648,92 117.56834,92 c 1.97697,0 2.75593,1.904352 1.43166,3.5 -1.36987,1.650594 -0.64028,3.09036 3.2061,6.32687 1.53664,1.29301 2.7939,3.16277 2.7939,4.15503 0,3.332 -2.91044,3.0938 -6.96593,-0.57009 z m 11.50428,-6.760106 C 127.25245,96.980209 128.31619,95 131.5,95 c 1.31008,0 2.67858,-0.479939 3.04112,-1.066531 1.1393,-1.843427 -0.36214,-2.250247 -3.50315,-0.949195 -2.56207,1.061244 -3.41048,1.001671 -5.53207,-0.388451 -3.36521,-2.204971 -3.15613,-4.870906 0.63201,-8.058409 3.81246,-3.207975 7.47512,-3.097013 7.12388,0.215821 C 133.07273,86.536384 133.52976,87 135.47661,87 c 5.53423,0 5.70636,7.698301 0.24655,11.027281 -3.83702,2.339529 -3.83899,2.339729 -6.18481,0.624423 z M 242.20956,191.75 242.5,183.5 251.4908,183 c 8.43549,-0.46912 9.06628,-0.65804 10.21288,-3.05871 4.81594,-10.08326 6.68872,-32.96345 3.84632,-46.9913 -5.54485,-27.36494 -23.28207,-50.675837 -48.11523,-63.234769 -2.78587,-1.408907 -5.57001,-2.249672 -6.18697,-1.868369 -1.33995,0.828134 -4.19316,7.325199 -8.19075,18.651242 -3.34177,9.467931 -3.70245,8.548787 5.65007,14.398486 16.46723,10.29971 28.25815,32.45751 28.25815,53.10342 0,11.89405 -4.59941,27.05998 -10.88262,35.88393 -3.35747,4.71513 -3.05166,5.2449 4.41735,7.65238 11.59964,3.7389 11.37023,3.85226 11.70956,-5.78631 z m 4.34714,-33.97251 c -2.14163,-3.05761 -2.12394,-12.34584 0.0251,-13.1705 C 247.45177,144.27314 251.22492,144 254.96656,144 h 6.80299 l 0.6618,5.29684 c 0.36399,2.91327 0.37427,6.04614 0.0228,6.96194 -0.77718,2.02529 -3.77344,3.09206 -6.37003,2.26793 -1.05372,-0.33444 -2.20527,-0.13976 -2.55902,0.43261 -1.1351,1.83664 -5.35557,1.12086 -6.96844,-1.18183 z M 252,152.55902 c 0,-0.79254 -0.41891,-1.69988 -0.9309,-2.01631 -1.18889,-0.73478 -2.38461,1.13777 -1.5691,2.45729 0.91956,1.48787 2.5,1.20909 2.5,-0.44098 z M 258.15,151.5 c 0,-0.5225 -0.48375,-1.11125 -1.075,-1.30833 -0.59125,-0.19709 -1.075,0.39166 -1.075,1.30833 0,0.91667 0.48375,1.50542 1.075,1.30833 0.59125,-0.19708 1.075,-0.78583 1.075,-1.30833 z m -12.14436,-11.80987 c -4.75667,-2.37146 -6.59808,-9.93902 -3.17275,-13.0389 2.40311,-2.17478 10.79493,-5.00803 12.68504,-4.28272 0.81514,0.31279 1.48207,1.42436 1.48207,2.47014 0,1.39903 -1.18398,2.23292 -4.481,3.15603 -5.0643,1.41792 -7.03342,3.22237 -6.11844,5.60678 0.45869,1.19533 1.35056,1.45872 3.36188,0.99284 1.50566,-0.34875 4.42506,-0.90939 6.48756,-1.24586 3.37482,-0.55057 3.75,-0.3934 3.75,1.57092 0,3.53656 -9.78146,6.87113 -13.99436,4.77077 z m -9.94216,-19.37162 c -1.66401,-2.65018 -3.03403,-5.35899 -3.04448,-6.01957 -0.0264,-1.67086 12.69187,-8.62387 14.50319,-7.9288 2.74998,1.05527 1.49881,3.69422 -3.04303,6.41834 -3.88246,2.32863 -4.43952,3.06454 -3.94495,5.21152 1.83401,7.96169 -0.24914,9.042 -4.47073,2.31851 z m -7.95341,-11.71402 c -2.77137,-1.53605 -5.02378,-5.1844 -5.07463,-8.21963 -0.0476,-2.840039 3.23019,-6.838032 6.82797,-8.328284 C 235.05234,89.907251 241,94.381474 241,100.43426 c 0,3.60785 -2.84452,3.31019 -4.14984,-0.43426 -1.25981,-3.613872 -4.6002,-4.038673 -7.40313,-0.941464 -2.22668,2.460444 -1.03416,5.249974 2.46625,5.769024 2.67977,0.39737 3.9092,3.03804 1.98244,4.25805 -1.86624,1.1817 -2.94785,1.09176 -5.78565,-0.48112 z m -79.80162,83.30199 c 3.95535,-0.60144 7.5562,-1.43859 8.00189,-1.86034 0.44568,-0.42175 -0.60134,-1.95466 -2.32673,-3.40648 C 151.43324,184.49367 149.82766,184 145.39852,184 c -4.92796,0 -5.54112,0.24486 -6.42327,2.5651 -1.43639,3.77798 -1.19559,6.4349 0.5832,6.4349 0.85714,0 4.79464,-0.49209 8.75,-1.09352 z M 217,192 c 0,-0.55 -0.675,-1 -1.5,-1 -0.825,0 -1.5,0.45 -1.5,1 0,0.55 0.675,1 1.5,1 0.825,0 1.5,-0.45 1.5,-1 z m -81.71808,-4.23776 c 0.38695,-2.463 -0.19622,-4.3845 -2.38032,-7.84297 -1.59107,-2.51939 -3.801,-7.22032 -4.91097,-10.4465 C 125.50555,162.24974 123.44703,159 121.35676,159 c -2.84508,0 -1.31947,10.44348 2.78481,19.06328 3.69395,7.75803 8.47199,14.29358 9.83429,13.45164 0.43645,-0.26974 1.02418,-1.95845 1.30606,-3.75268 z m 88.29967,-6.84825 3.91841,-4.01526 v -9.29676 c 0,-6.25107 -0.4343,-9.8197 -1.32568,-10.89302 -0.72913,-0.87794 -4.21503,-2.55777 -7.74646,-3.73296 l -6.42077,-2.13669 -5.57358,4.76166 c -9.29168,7.93812 -9.43351,8.237 -9.43351,19.87891 0,11.08389 0.21976,11.58464 6.5,14.81101 2.87873,1.4789 3.26606,1.40168 9.58159,-1.91021 3.61988,-1.89828 8.34488,-5.25828 10.5,-7.46668 z M 184.32812,185.5 c -0.0945,-1.65 -0.25311,-11.55 -0.35237,-22 -0.39809,-41.90703 9.71382,-81.53193 28.92018,-113.327722 3.35724,-5.557844 6.09419,-10.68277 6.08211,-11.388725 -0.0587,-3.428924 -4.13746,-9.860677 -7.78338,-12.273429 -4.05113,-2.680912 -14.42072,-6.827838 -21.84009,-8.734121 -3.86753,-0.993697 -4.5823,-0.82078 -10.66248,2.57945 C 175.10771,22.359954 171.65926,24 171.02888,24 c -0.63039,0 -2.9554,-1.453947 -5.16669,-3.230992 -5.09104,-4.09127 -8.3593,-4.074866 -20.36219,0.102205 C 124.76196,28.088162 123.30409,33.2022 137.05363,50.5 c 4.15731,5.230159 12.40962,20.592844 15.46106,28.782655 2.99205,8.030405 3.80572,6.93183 3.25052,-4.388668 -0.61166,-12.471759 -2.787,-18.311186 -8.39531,-22.536098 C 141.79751,48.160034 137,43.070883 137,41.357596 c 0,-0.923366 1.29477,-0.127149 3.36808,2.071202 3.85541,4.087926 5.22613,4.425101 6.15042,1.512906 0.79888,-2.517032 4.97484,-2.318265 4.99425,0.237717 0.0231,3.037992 1.33144,3.127377 11.04517,0.754585 9.47928,-2.31552 9.69362,-2.323434 15.77596,-0.582441 C 189.1589,48.450087 190,48.50502 190,46.113499 c 0,-2.823682 3.97647,-2.9195 4.71025,-0.113499 0.95076,3.635707 7.86156,2.417138 13.03975,-2.299277 1.67964,-1.529858 2.25,-3.160836 2.25,-6.434054 0,-2.668491 0.39141,-4.142799 1,-3.766669 1.53722,0.950054 1.18734,6.235659 -0.64868,9.79966 -0.90677,1.760187 -4.70519,6.356996 -8.44093,10.21513 -7.43257,7.676096 -7.92895,8.900824 -9.81628,24.220238 -0.558,4.529266 -1.6911,9.479266 -2.518,11 -1.40132,2.577123 -1.4668,2.119554 -0.96381,-6.735028 0.76058,-13.389054 2.0282,-19.041569 5.49681,-24.511004 3.38858,-5.343224 2.79708,-7.678546 -1.45422,-5.741523 -3.67295,1.673507 -6.80279,9.259239 -7.77408,18.841875 -0.46862,4.62331 -1.53351,10.037017 -2.36642,12.030459 -2.34648,5.615913 -2.03451,18.939373 0.55666,23.773953 2.62177,4.89164 1.15599,7.2757 -2.33216,3.7932 -2.10315,-2.09974 -2.2692,-3.29273 -2.73889,-19.676615 -0.42479,-14.817752 -0.76217,-17.703341 -2.24286,-19.182994 -1.29804,-1.297133 -2.03195,-1.452542 -2.87557,-0.608919 -1.2256,1.225598 -0.91666,6.9475 1.14904,21.281568 1.35634,9.41177 0.29854,16.27598 -2.68459,17.42072 -2.53248,0.9718 -2.90055,-0.21196 -1.04345,-3.35578 3.19594,-5.41031 1.96475,-12.944733 -3.64605,-22.312314 -1.56392,-2.611056 -3.68857,-8.129139 -4.72146,-12.262407 -1.88713,-7.551672 -3.71059,-12.048027 -4.54684,-11.211776 -0.72186,0.72186 4.45269,27.802109 6.21634,32.532313 0.88399,2.370916 1.35715,4.560872 1.05145,4.866569 -0.3057,0.305696 -1.92836,-0.946931 -3.60591,-2.783618 C 159.37254,93.057021 158,92.074154 158,92.709558 c 0,0.635404 1.32331,6.287585 2.94069,12.560402 1.61737,6.27282 3.71887,16.76573 4.66998,23.31758 0.95111,6.55185 2.1579,12.47496 2.68176,13.16246 0.52385,0.6875 2.19111,1.25 3.70501,1.25 4.38968,0 9.01839,1.16538 8.42731,2.12175 -0.74962,1.21292 -9.16367,1.1097 -9.92475,-0.12175 -1.35078,-2.1856 -2.5,-0.7921 -2.5,3.03138 0,4.54302 0.40932,4.83545 8.25854,5.90008 l 5.24146,0.71093 -2.82049,1.37144 c -2.24893,1.09352 -3.45633,1.13143 -5.95825,0.18706 -3.60222,-1.35969 -5.22606,-0.36673 -4.27917,2.61664 0.50538,1.59233 1.95245,2.209 6.84933,2.91886 6.01804,0.87237 6.12657,0.9401 3.53653,2.2068 -2.07341,1.01403 -3.40275,1.05208 -5.93358,0.16983 -4.49304,-1.56628 -4.86083,-0.65281 -4.87906,12.11793 -0.0147,10.32258 0.0703,10.74956 2.23469,11.22004 4.71778,1.02554 7.36486,1.31745 10.75,1.18547 3.2333,-0.12606 3.4869,-0.36506 3.32812,-3.13646 z M 172.25,138.96884 c -3.47714,-1.39764 -2.82406,-3.33365 0.875,-2.59384 1.71875,0.34375 4.30625,0.63931 5.75,0.6568 2.524,0.0306 2.55031,0.0883 0.68387,1.5 -2.18134,1.64988 -4.01821,1.75972 -7.30887,0.43704 z m 8.49721,-104.554961 c -1.35819,-1.358191 -0.78146,-2.188516 2.00279,-2.883422 1.5125,-0.377497 4.325,-1.663781 6.25,-2.858408 4.73026,-2.935533 10.28757,-4.784477 11.30937,-3.762682 0.45997,0.459975 0.69104,2.356039 0.51347,4.213475 -0.31874,3.334289 -0.399,3.386044 -6.32284,4.077157 -3.3,0.384999 -7.57625,0.983745 -9.50279,1.330545 -1.92653,0.346801 -3.83903,0.294301 -4.25,-0.116665 z m 17.71008,-6.344781 c 0.73955,-1.196602 -1.14162,-2.382227 -2.4736,-1.559017 C 194.86533,27.201265 195.59952,29 197,29 c 0.48508,0 1.14086,-0.418906 1.45729,-0.930902 z M 158.5,33 c -1.1,-0.472686 -5.0375,-0.891058 -8.75,-0.929715 L 143,32 v -4.5 c 0,-4.034642 0.23889,-4.5 2.31002,-4.5 1.27051,0 5.50705,1.575 9.41454,3.5 3.90748,1.925 7.70548,3.506891 8.43998,3.515313 0.7345,0.0084 2.01046,0.458422 2.83546,1 1.33333,0.875277 1.33333,1.094097 0,1.969374 -1.80044,1.181916 -4.77105,1.187981 -7.5,0.01531 z M 148,28 c 0,-0.55 -0.92656,-1 -2.05902,-1 -1.13246,0 -1.7809,0.45 -1.44098,1 0.33992,0.55 1.26648,1 2.05902,1 C 147.35156,29 148,28.55 148,28 Z m 13.78745,146.67386 c 0.29462,-6.6246 0.0846,-10.63492 -0.57851,-11.04473 -1.27839,-0.79008 -6.38942,1.0575 -7.42328,2.68343 -0.41527,0.65309 -0.76193,3.98428 -0.77035,7.40264 -0.0137,5.55594 0.31868,6.5956 3.13335,9.80134 2.12761,2.4232 3.47742,3.25738 4.16243,2.57237 0.55757,-0.55757 1.22193,-5.69434 1.47636,-11.41505 z m 31.99657,-0.0236 c 0.23873,-8.98313 0.0326,-10.78346 -1.29313,-11.29218 -0.86743,-0.33286 -1.79456,-0.38779 -2.0603,-0.12206 -0.26573,0.26573 -0.17778,5.51098 0.19545,11.6561 0.89107,14.67123 2.76546,14.52768 3.15798,-0.24186 z m -33.13374,-15.77504 c 1.55157,-1.28768 1.4914,-3.1687 -0.74769,-23.37527 -1.69413,-15.28865 -1.9635,-15.54737 -11.54312,-11.08696 -6.33781,2.95099 -7.73362,6.263 -7.80817,18.52741 l -0.0513,8.44046 6,4.88052 c 5.18059,4.21399 6.45603,4.80915 9.33923,4.35793 1.83658,-0.28742 4.00155,-1.07226 4.81105,-1.74409 z M 132.39112,155.75 c 3.61491,-3.15451 3.73746,-3.48505 4.17089,-11.25 0.24561,-4.4 1.13152,-10.36018 1.96871,-13.24484 1.38189,-4.76155 1.37325,-5.47208 -0.0937,-7.711 -5.18119,-7.90751 -13.21314,-0.55918 -17.43598,15.95197 -2.61345,10.2185 -2.53296,11.94401 0.74901,16.05727 3.43739,4.30804 5.87794,4.35313 10.64112,0.1966 z m 96.55803,-5.41248 c 1.15187,-1.46437 2.37017,-3.76161 2.70734,-5.105 1.39168,-5.54489 -6.4265,-24.70111 -11.10257,-27.20366 -1.26953,-0.67944 -4.66025,-1.30138 -7.53493,-1.3821 L 207.7923,116.5 l -2.36721,6.96884 -2.36721,6.96883 3.3845,5.03117 c 1.86147,2.76714 3.70353,6.15616 4.09345,7.53116 1.0648,3.75486 2.47637,5.10277 7.96417,7.60499 6.51417,2.9702 7.93092,2.93394 10.44915,-0.26747 z M 198.78072,129.15668 C 200.28322,128.20326 204,118.85524 204,116.02974 204,113.96388 199.31423,109 197.36411,109 c -1.30065,0 -4.81575,17.38065 -3.964,19.60027 0.59082,1.53968 3.37703,1.8278 5.38061,0.55641 z m -57.07883,-16.87149 c 6.07856,-5.33668 7.17988,-7.89783 2.26507,-5.26751 C 138.54034,109.92192 131.64773,118 134.59632,118 c 0.32797,0 3.52548,-2.57166 7.10557,-5.71481 z M 169,55.5 c 0,-6.833333 -0.17778,-7.5 -2,-7.5 -1.64544,0 -1.99901,0.664808 -1.99442,3.75 0.007,4.699977 1.77778,11.25 3.04142,11.25 0.52415,0 0.953,-3.375 0.953,-7.5 z m 16,-0.99113 C 185,52.11174 183.24587,50 181.25469,50 c -0.99872,0 -1.18475,0.966132 -0.72209,3.75 1.07651,6.477441 1.41575,7.014275 3.03882,4.80887 C 184.35714,57.491249 185,55.668749 185,54.50887 Z"
       id="path3763"
       inkscape:connector-curvature="0" />
    <path
       style="fill:#3f4850"
       d="m 91.999774,263.4393 c -4.483903,-5.80838 -8.83628,-10.82307 -9.671948,-11.14374 -0.835669,-0.32068 -14.863794,0.20165 -31.173612,1.16073 -16.309817,0.95908 -31.191333,1.58626 -33.070033,1.39375 L 14.668361,254.5 31.834181,238.11771 C 41.275381,229.10745 49,221.14726 49,220.4284 c 0,-0.71886 -7.421625,-7.74683 -16.4925,-15.61771 -9.070875,-7.87088 -16.495875,-14.80293 -16.5,-15.40456 -0.0077,-1.1289 20.996314,-2.39923 39.901494,-2.41324 5.275053,-0.004 12.669469,-0.29781 16.432034,-0.6531 7.903098,-0.74629 7.636571,0.27331 3.617745,-13.83979 -2.963083,-10.4056 -3.291231,-33.12354 -0.633575,-43.86281 4.316918,-17.44415 12.57866,-32.402919 25.110512,-45.465275 8.05847,-8.399605 20.34394,-17.417515 28.86155,-21.185259 2.54095,-1.12398 4.84507,-2.407937 5.12028,-2.853237 0.48768,-0.789071 -0.52574,-2.365298 -7.1138,-11.064587 C 117.7758,35.487554 119.50817,26.238909 132.69861,19.267109 139.65879,15.588313 153.8607,11 158.28727,11 c 1.75121,0 5.60726,1.226047 8.569,2.724548 l 5.38497,2.724549 4.8799,-2.724549 c 5.6742,-3.168018 11.94821,-3.573702 17.66098,-1.141975 2.04483,0.870415 6.41788,2.451655 9.71788,3.513865 12.09321,3.892585 19.48312,11.654908 20.28343,21.305604 0.42994,5.184503 0.20457,5.847039 -4.28741,12.603943 -2.60766,3.922486 -4.79854,7.864503 -4.86861,8.760038 -0.0808,1.032088 2.25372,2.940906 6.37602,5.213427 10.36369,5.713244 15.97423,9.911361 24.02603,17.977593 13.45278,13.476891 22.85505,30.832667 26.51534,48.944997 2.28155,11.28987 1.58754,33.43489 -1.36527,43.56386 -1.11688,3.83124 -1.81263,7.31874 -1.5461,7.75 0.26653,0.43125 14.18305,0.7841 30.92559,0.7841 17.51804,0 30.44098,0.38456 30.44098,0.90585 0,0.49822 -6.75,7.41248 -15,15.36502 -8.25,7.95255 -14.99521,15.08242 -14.98936,15.84415 0.006,0.76174 7.20107,7.68498 15.98936,15.38498 8.78829,7.7 15.9835,14.5625 15.98936,15.25 0.008,0.9733 -6.84017,1.25 -30.93847,1.25 h -30.94911 l -2.39727,3.25 c -1.31849,1.7875 -4.11275,6.175 -6.20945,9.75 -6.37988,10.87807 -5.1258,10.50399 -16.80955,5.01411 -21.98747,-10.33132 -46.15019,-16.01733 -68.03488,-16.01009 -26.02395,0.009 -47.10323,6.12819 -67.22364,19.51585 -4.52988,3.01407 -8.6948,5.48013 -9.2554,5.48013 -0.5606,0 -4.687913,-4.75231 -9.171816,-10.5607 z m 16.633546,-0.53103 c 2.47152,-1.70045 9.0776,-5.28015 14.68018,-7.95488 35.20584,-16.80767 77.28601,-15.66332 121.54424,3.30534 7.64061,3.27469 9.52639,3.75655 10.27676,2.62595 C 258.87041,255.25572 277,224.706 277,224.03966 c 0,-1.27374 -16.09417,-9.25659 -29,-14.38426 -13.81594,-5.48927 -30.61872,-9.94259 -46.09617,-12.21707 C 192.99002,196.1284 186.24218,195.87832 171,196.293 c -22.55271,0.61357 -35.63507,2.90933 -55.53264,9.74516 -19.688785,6.7641 -43.282145,19.39616 -42.079665,22.52977 C 74.717781,232.03408 101.2167,266 102.59078,266 c 0.85188,0 3.57102,-1.39128 6.04254,-3.09173 z M 53.5,247.5036 c 16.995123,-0.87233 23.5,-1.64214 23.5,-2.78107 0,-0.57447 -2.492677,-4.35631 -5.539283,-8.40409 -3.046605,-4.04778 -5.780511,-7.98824 -6.075347,-8.75656 -0.330571,-0.86146 2.655347,-4.39711 7.789283,-9.22336 20.747506,-19.50406 26.822563,-25.75754 25.592245,-26.34388 -1.6508,-0.78675 -67.406743,1.30047 -68.266714,2.1669 -0.361133,0.36385 5.694859,6.18821 13.45776,12.94301 7.762901,6.7548 13.985596,12.8122 13.828211,13.46088 C 57.62877,221.21411 51.65,227.24329 44.5,233.9636 c -7.15,6.72032 -13.154954,12.90184 -13.344342,13.73671 -0.288597,1.27222 0.601789,1.42487 5.5,0.94294 C 39.870046,248.32698 47.45,247.81414 53.5,247.5036 Z m 257.02223,-14.80039 c -4.93777,-4.51176 -11.23777,-10.35866 -14,-12.99309 L 291.5,214.92024 304.26124,202.71012 c 7.01868,-6.71557 12.75618,-12.54762 12.75,-12.96012 -0.006,-0.4125 -13.99874,-0.75 -31.09457,-0.75 -18.61755,0 -30.94966,0.371 -30.75,0.92508 0.84691,2.35038 24.6175,28.42907 27.06799,29.69627 1.52094,0.78651 2.76534,1.84136 2.76534,2.34412 0,0.50277 -2.24914,4.65371 -4.99809,9.22432 -2.74895,4.57062 -4.99895,8.64771 -5,9.06021 -0.001,0.4125 10.01059,0.72895 22.24809,0.70321 l 22.25,-0.0468 -8.97777,-8.20322 z M 119.60539,198.43949 C 124.22242,197.0312 128,195.6081 128,195.27703 c 0,-0.33106 -1.324,-2.66633 -2.94223,-5.18948 -13.1182,-20.45399 -14.53708,-43.51601 -3.99331,-64.90623 5.05152,-10.24805 14.13482,-20.20432 23.34898,-25.592964 C 148.03605,97.469776 151,95.372522 151,94.927793 151,93.104163 145.5187,79.041538 142.33427,72.695339 138.44838,64.951178 138.55899,64.971689 129,70.222854 95.796559,88.462926 76.807569,123.4085 80.838272,158.85524 c 1.19667,10.52373 4.088576,21.20576 6.771632,25.01284 1.613076,2.28885 1.967119,2.34475 10.581668,1.67085 C 109.49549,184.65464 110,185.02136 110,194.12244 110,197.9051 110.27242,201 110.60539,201 c 0.33296,0 4.38296,-1.15223 9,-2.56051 z M 93.454416,174.57077 c -0.892429,-1.36201 -1.451706,-3.8881 -1.273053,-5.75 0.271177,-2.82615 0.691005,-3.3046 2.818637,-3.21218 1.399235,0.0608 3.07535,-0.70976 3.806704,-1.75 1.323156,-1.88199 4.779396,-2.43819 6.793596,-1.09328 3.25282,2.17197 4.45729,9.11208 1.9435,11.19834 -2.33952,1.94163 -3.67825,0.26994 -2.93909,-3.67009 0.52067,-2.77542 0.36443,-3.44994 -0.71571,-3.08989 -0.75997,0.25332 -1.63426,2.01391 -1.94285,3.91242 -0.3086,1.89851 -0.89928,3.99906 -1.31263,4.66788 -1.295198,2.09566 -5.473728,1.38954 -7.179104,-1.2132 z m -3.439103,-20.77871 c 0.01672,-5.77919 0.552577,-7.09349 3.307129,-8.11142 2.729827,-1.00879 5.52915,0.96732 6.460213,4.5604 0.573615,2.21364 1.578725,3.37213 3.272615,3.77201 1.56246,0.36884 2.44473,1.28262 2.44473,2.53203 0,1.7466 -0.82584,1.98604 -7.75,2.24698 l -7.75,0.29207 0.01531,-5.29207 z M 96,152.5 c 0,-0.825 -0.45,-1.5 -1,-1.5 -0.55,0 -1,0.675 -1,1.5 0,0.825 0.45,1.5 1,1.5 0.55,0 1,-0.675 1,-1.5 z m 0.242386,-10.97137 c -4.066402,-1.79563 -5.462214,-5.14861 -4.138716,-9.94192 1.38434,-5.01367 5.384087,-7.03053 10.57192,-5.33087 4.95799,1.62437 6.92834,5.3842 5.34144,10.19257 -1.87468,5.68032 -6.19467,7.5442 -11.774644,5.08022 z m 7.572534,-7.24328 c 0.23753,-1.67045 -0.31481,-2.37271 -2.24776,-2.85785 C 98.138506,130.56696 96,131.51107 96,133.88528 c 0,3.78168 7.28106,4.15441 7.81492,0.40007 z M 103.75,122.31757 c -3.17242,-1.99486 -5.735108,-4.33334 -5.716779,-5.21662 0.05561,-2.67971 5.413929,-9.58091 7.696179,-9.91222 1.41565,-0.20551 2.71442,0.559 3.82241,2.25 0.9241,1.41035 2.63758,2.56815 3.8132,2.57658 3.08584,0.0221 4.79741,1.39786 4.07648,3.27657 -0.59937,1.56194 -3.28522,2.94723 -5.08793,2.62422 -3.14153,-0.5629 -3.56828,0.22644 -1.3811,2.55458 1.92551,2.04961 2.10478,2.73133 1.05187,4 -1.67256,2.01531 -1.62604,2.02742 -8.27433,-2.15311 z M 106,114.5 c 0,-0.825 -0.42344,-1.5 -0.94098,-1.5 -1.26098,0 -2.1641,1.56159 -1.36517,2.36052 C 104.82004,116.4867 106,116.04641 106,114.5 Z m 12.03407,-9.08819 c -3.34769,-3.02443 -4.22501,-3.37999 -5.99831,-2.43095 C 109.90099,104.12335 108,103.62301 108,101.91864 108,100.40326 116.10648,92 117.56834,92 c 1.97697,0 2.75593,1.904352 1.43166,3.5 -1.36987,1.650594 -0.64028,3.09036 3.2061,6.32687 1.53664,1.29301 2.7939,3.16277 2.7939,4.15503 0,3.332 -2.91044,3.0938 -6.96593,-0.57009 z m 11.50428,-6.760106 C 127.25245,96.980209 128.31619,95 131.5,95 c 1.31008,0 2.67858,-0.479939 3.04112,-1.066531 1.1393,-1.843427 -0.36214,-2.250247 -3.50315,-0.949195 -2.56207,1.061244 -3.41048,1.001671 -5.53207,-0.388451 -3.36521,-2.204971 -3.15613,-4.870906 0.63201,-8.058409 3.81246,-3.207975 7.47512,-3.097013 7.12388,0.215821 C 133.07273,86.536384 133.52976,87 135.47661,87 c 5.53423,0 5.70636,7.698301 0.24655,11.027281 -3.83702,2.339529 -3.83899,2.339729 -6.18481,0.624423 z M 242.20956,191.75 242.5,183.5 251.4908,183 c 8.43549,-0.46912 9.06628,-0.65804 10.21288,-3.05871 4.81594,-10.08326 6.68872,-32.96345 3.84632,-46.9913 -5.54485,-27.36494 -23.28207,-50.675837 -48.11523,-63.234769 -2.78587,-1.408907 -5.57001,-2.249672 -6.18697,-1.868369 -1.33995,0.828134 -4.19316,7.325199 -8.19075,18.651242 -3.34177,9.467931 -3.70245,8.548787 5.65007,14.398486 16.46723,10.29971 28.25815,32.45751 28.25815,53.10342 0,11.89405 -4.59941,27.05998 -10.88262,35.88393 -3.35747,4.71513 -3.05166,5.2449 4.41735,7.65238 11.59964,3.7389 11.37023,3.85226 11.70956,-5.78631 z m 4.34714,-33.97251 c -2.14163,-3.05761 -2.12394,-12.34584 0.0251,-13.1705 C 247.45177,144.27314 251.22492,144 254.96656,144 h 6.80299 l 0.6618,5.29684 c 0.36399,2.91327 0.37427,6.04614 0.0228,6.96194 -0.77718,2.02529 -3.77344,3.09206 -6.37003,2.26793 -1.05372,-0.33444 -2.20527,-0.13976 -2.55902,0.43261 -1.1351,1.83664 -5.35557,1.12086 -6.96844,-1.18183 z M 252,152.55902 c 0,-0.79254 -0.41891,-1.69988 -0.9309,-2.01631 -1.18889,-0.73478 -2.38461,1.13777 -1.5691,2.45729 0.91956,1.48787 2.5,1.20909 2.5,-0.44098 z M 258.15,151.5 c 0,-0.5225 -0.48375,-1.11125 -1.075,-1.30833 -0.59125,-0.19709 -1.075,0.39166 -1.075,1.30833 0,0.91667 0.48375,1.50542 1.075,1.30833 0.59125,-0.19708 1.075,-0.78583 1.075,-1.30833 z m -12.14436,-11.80987 c -4.75667,-2.37146 -6.59808,-9.93902 -3.17275,-13.0389 2.40311,-2.17478 10.79493,-5.00803 12.68504,-4.28272 0.81514,0.31279 1.48207,1.42436 1.48207,2.47014 0,1.39903 -1.18398,2.23292 -4.481,3.15603 -5.0643,1.41792 -7.03342,3.22237 -6.11844,5.60678 0.45869,1.19533 1.35056,1.45872 3.36188,0.99284 1.50566,-0.34875 4.42506,-0.90939 6.48756,-1.24586 3.37482,-0.55057 3.75,-0.3934 3.75,1.57092 0,3.53656 -9.78146,6.87113 -13.99436,4.77077 z m -9.94216,-19.37162 c -1.66401,-2.65018 -3.03403,-5.35899 -3.04448,-6.01957 -0.0264,-1.67086 12.69187,-8.62387 14.50319,-7.9288 2.74998,1.05527 1.49881,3.69422 -3.04303,6.41834 -3.88246,2.32863 -4.43952,3.06454 -3.94495,5.21152 1.83401,7.96169 -0.24914,9.042 -4.47073,2.31851 z m -7.95341,-11.71402 c -2.77137,-1.53605 -5.02378,-5.1844 -5.07463,-8.21963 -0.0476,-2.840039 3.23019,-6.838032 6.82797,-8.328284 C 235.05234,89.907251 241,94.381474 241,100.43426 c 0,3.60785 -2.84452,3.31019 -4.14984,-0.43426 -1.25981,-3.613872 -4.6002,-4.038673 -7.40313,-0.941464 -2.22668,2.460444 -1.03416,5.249974 2.46625,5.769024 2.67977,0.39737 3.9092,3.03804 1.98244,4.25805 -1.86624,1.1817 -2.94785,1.09176 -5.78565,-0.48112 z m -79.80162,83.30199 c 3.95535,-0.60144 7.5562,-1.43859 8.00189,-1.86034 0.44568,-0.42175 -0.60134,-1.95466 -2.32673,-3.40648 C 151.43324,184.49367 149.82766,184 145.39852,184 c -4.92796,0 -5.54112,0.24486 -6.42327,2.5651 -1.43639,3.77798 -1.19559,6.4349 0.5832,6.4349 0.85714,0 4.79464,-0.49209 8.75,-1.09352 z M 217,192 c 0,-0.55 -0.675,-1 -1.5,-1 -0.825,0 -1.5,0.45 -1.5,1 0,0.55 0.675,1 1.5,1 0.825,0 1.5,-0.45 1.5,-1 z m -81.71808,-4.23776 c 0.38695,-2.463 -0.19622,-4.3845 -2.38032,-7.84297 -1.59107,-2.51939 -3.801,-7.22032 -4.91097,-10.4465 C 125.50555,162.24974 123.44703,159 121.35676,159 c -2.84508,0 -1.31947,10.44348 2.78481,19.06328 3.69395,7.75803 8.47199,14.29358 9.83429,13.45164 0.43645,-0.26974 1.02418,-1.95845 1.30606,-3.75268 z m 88.29967,-6.84825 3.91841,-4.01526 v -9.29676 c 0,-6.25107 -0.4343,-9.8197 -1.32568,-10.89302 -0.72913,-0.87794 -4.21503,-2.55777 -7.74646,-3.73296 l -6.42077,-2.13669 -5.57358,4.76166 c -9.29168,7.93812 -9.43351,8.237 -9.43351,19.87891 0,11.08389 0.21976,11.58464 6.5,14.81101 2.87873,1.4789 3.26606,1.40168 9.58159,-1.91021 3.61988,-1.89828 8.34488,-5.25828 10.5,-7.46668 z M 184.32812,185.5 c -0.0945,-1.65 -0.25311,-11.55 -0.35237,-22 -0.39809,-41.90703 9.71382,-81.53193 28.92018,-113.327722 3.35724,-5.557844 6.09419,-10.68277 6.08211,-11.388725 -0.0587,-3.428924 -4.13746,-9.860677 -7.78338,-12.273429 -4.05113,-2.680912 -14.42072,-6.827838 -21.84009,-8.734121 -3.86753,-0.993697 -4.5823,-0.82078 -10.66248,2.57945 C 175.10771,22.359954 171.65926,24 171.02888,24 c -0.63039,0 -2.9554,-1.453947 -5.16669,-3.230992 -5.09104,-4.09127 -8.3593,-4.074866 -20.36219,0.102205 C 124.76196,28.088162 123.30409,33.2022 137.05363,50.5 c 4.15731,5.230159 12.40962,20.592844 15.46106,28.782655 2.99205,8.030405 3.80572,6.93183 3.25052,-4.388668 -0.61166,-12.471759 -2.787,-18.311186 -8.39531,-22.536098 C 141.79751,48.160034 137,43.070883 137,41.357596 c 0,-0.923366 1.29477,-0.127149 3.36808,2.071202 3.85541,4.087926 5.22613,4.425101 6.15042,1.512906 0.79888,-2.517032 4.97484,-2.318265 4.99425,0.237717 0.0231,3.037992 1.33144,3.127377 11.04517,0.754585 9.47928,-2.31552 9.69362,-2.323434 15.77596,-0.582441 C 189.1589,48.450087 190,48.50502 190,46.113499 c 0,-2.823682 3.97647,-2.9195 4.71025,-0.113499 0.95076,3.635707 7.86156,2.417138 13.03975,-2.299277 1.67964,-1.529858 2.25,-3.160836 2.25,-6.434054 0,-2.668491 0.39141,-4.142799 1,-3.766669 1.53722,0.950054 1.18734,6.235659 -0.64868,9.79966 -0.90677,1.760187 -4.70519,6.356996 -8.44093,10.21513 -7.43257,7.676096 -7.92895,8.900824 -9.81628,24.220238 -0.558,4.529266 -1.6911,9.479266 -2.518,11 -1.40132,2.577123 -1.4668,2.119554 -0.96381,-6.735028 0.76058,-13.389054 2.0282,-19.041569 5.49681,-24.511004 3.38858,-5.343224 2.79708,-7.678546 -1.45422,-5.741523 -3.67295,1.673507 -6.80279,9.259239 -7.77408,18.841875 -0.46862,4.62331 -1.53351,10.037017 -2.36642,12.030459 -2.34648,5.615913 -2.03451,18.939373 0.55666,23.773953 2.62177,4.89164 1.15599,7.2757 -2.33216,3.7932 -2.10315,-2.09974 -2.2692,-3.29273 -2.73889,-19.676615 -0.42479,-14.817752 -0.76217,-17.703341 -2.24286,-19.182994 -1.29804,-1.297133 -2.03195,-1.452542 -2.87557,-0.608919 -1.2256,1.225598 -0.91666,6.9475 1.14904,21.281568 1.35634,9.41177 0.29854,16.27598 -2.68459,17.42072 -2.53248,0.9718 -2.90055,-0.21196 -1.04345,-3.35578 3.19594,-5.41031 1.96475,-12.944733 -3.64605,-22.312314 -1.56392,-2.611056 -3.68857,-8.129139 -4.72146,-12.262407 -1.88713,-7.551672 -3.71059,-12.048027 -4.54684,-11.211776 -0.72186,0.72186 4.45269,27.802109 6.21634,32.532313 0.88399,2.370916 1.35715,4.560872 1.05145,4.866569 -0.3057,0.305696 -1.92836,-0.946931 -3.60591,-2.783618 C 159.37254,93.057021 158,92.074154 158,92.709558 c 0,0.635404 1.32331,6.287585 2.94069,12.560402 1.61737,6.27282 3.71887,16.76573 4.66998,23.31758 0.95111,6.55185 2.1579,12.47496 2.68176,13.16246 0.52385,0.6875 2.19111,1.25 3.70501,1.25 4.38968,0 9.01839,1.16538 8.42731,2.12175 -0.74962,1.21292 -9.16367,1.1097 -9.92475,-0.12175 -1.35078,-2.1856 -2.5,-0.7921 -2.5,3.03138 0,4.54302 0.40932,4.83545 8.25854,5.90008 l 5.24146,0.71093 -2.82049,1.37144 c -2.24893,1.09352 -3.45633,1.13143 -5.95825,0.18706 -3.60222,-1.35969 -5.22606,-0.36673 -4.27917,2.61664 0.50538,1.59233 1.95245,2.209 6.84933,2.91886 6.01804,0.87237 6.12657,0.9401 3.53653,2.2068 -2.07341,1.01403 -3.40275,1.05208 -5.93358,0.16983 -4.49304,-1.56628 -4.86083,-0.65281 -4.87906,12.11793 -0.0147,10.32258 0.0703,10.74956 2.23469,11.22004 4.71778,1.02554 7.36486,1.31745 10.75,1.18547 3.2333,-0.12606 3.4869,-0.36506 3.32812,-3.13646 z M 172.25,138.96884 c -3.47714,-1.39764 -2.82406,-3.33365 0.875,-2.59384 1.71875,0.34375 4.30625,0.63931 5.75,0.6568 2.524,0.0306 2.55031,0.0883 0.68387,1.5 -2.18134,1.64988 -4.01821,1.75972 -7.30887,0.43704 z m 8.49721,-104.554961 c -1.35819,-1.358191 -0.78146,-2.188516 2.00279,-2.883422 1.5125,-0.377497 4.325,-1.663781 6.25,-2.858408 4.73026,-2.935533 10.28757,-4.784477 11.30937,-3.762682 0.45997,0.459975 0.69104,2.356039 0.51347,4.213475 -0.31874,3.334289 -0.399,3.386044 -6.32284,4.077157 -3.3,0.384999 -7.57625,0.983745 -9.50279,1.330545 -1.92653,0.346801 -3.83903,0.294301 -4.25,-0.116665 z m 17.71008,-6.344781 c 0.73955,-1.196602 -1.14162,-2.382227 -2.4736,-1.559017 C 194.86533,27.201265 195.59952,29 197,29 c 0.48508,0 1.14086,-0.418906 1.45729,-0.930902 z M 158.5,33 c -1.1,-0.472686 -5.0375,-0.891058 -8.75,-0.929715 L 143,32 v -4.5 c 0,-4.034642 0.23889,-4.5 2.31002,-4.5 1.27051,0 5.50705,1.575 9.41454,3.5 3.90748,1.925 7.70548,3.506891 8.43998,3.515313 0.7345,0.0084 2.01046,0.458422 2.83546,1 1.33333,0.875277 1.33333,1.094097 0,1.969374 -1.80044,1.181916 -4.77105,1.187981 -7.5,0.01531 z M 148,28 c 0,-0.55 -0.92656,-1 -2.05902,-1 -1.13246,0 -1.7809,0.45 -1.44098,1 0.33992,0.55 1.26648,1 2.05902,1 C 147.35156,29 148,28.55 148,28 Z m 13.78745,146.67386 c 0.29462,-6.6246 0.0846,-10.63492 -0.57851,-11.04473 -1.27839,-0.79008 -6.38942,1.0575 -7.42328,2.68343 -0.41527,0.65309 -0.76193,3.98428 -0.77035,7.40264 -0.0137,5.55594 0.31868,6.5956 3.13335,9.80134 2.12761,2.4232 3.47742,3.25738 4.16243,2.57237 0.55757,-0.55757 1.22193,-5.69434 1.47636,-11.41505 z m 31.99657,-0.0236 c 0.23873,-8.98313 0.0326,-10.78346 -1.29313,-11.29218 -0.86743,-0.33286 -1.79456,-0.38779 -2.0603,-0.12206 -0.26573,0.26573 -0.17778,5.51098 0.19545,11.6561 0.89107,14.67123 2.76546,14.52768 3.15798,-0.24186 z m -33.13374,-15.77504 c 1.55157,-1.28768 1.4914,-3.1687 -0.74769,-23.37527 -1.69413,-15.28865 -1.9635,-15.54737 -11.54312,-11.08696 -6.33781,2.95099 -7.73362,6.263 -7.80817,18.52741 l -0.0513,8.44046 6,4.88052 c 5.18059,4.21399 6.45603,4.80915 9.33923,4.35793 1.83658,-0.28742 4.00155,-1.07226 4.81105,-1.74409 z M 132.39112,155.75 c 3.61491,-3.15451 3.73746,-3.48505 4.17089,-11.25 0.24561,-4.4 1.13152,-10.36018 1.96871,-13.24484 1.38189,-4.76155 1.37325,-5.47208 -0.0937,-7.711 -5.18119,-7.90751 -13.21314,-0.55918 -17.43598,15.95197 -2.61345,10.2185 -2.53296,11.94401 0.74901,16.05727 3.43739,4.30804 5.87794,4.35313 10.64112,0.1966 z m 96.55803,-5.41248 c 1.15187,-1.46437 2.37017,-3.76161 2.70734,-5.105 1.39168,-5.54489 -6.4265,-24.70111 -11.10257,-27.20366 -1.26953,-0.67944 -4.66025,-1.30138 -7.53493,-1.3821 L 207.7923,116.5 l -2.36721,6.96884 -2.36721,6.96883 3.3845,5.03117 c 1.86147,2.76714 3.70353,6.15616 4.09345,7.53116 1.0648,3.75486 2.47637,5.10277 7.96417,7.60499 6.51417,2.9702 7.93092,2.93394 10.44915,-0.26747 z M 198.78072,129.15668 C 200.28322,128.20326 204,118.85524 204,116.02974 204,113.96388 199.31423,109 197.36411,109 c -1.30065,0 -4.81575,17.38065 -3.964,19.60027 0.59082,1.53968 3.37703,1.8278 5.38061,0.55641 z m -57.07883,-16.87149 c 6.07856,-5.33668 7.17988,-7.89783 2.26507,-5.26751 C 138.54034,109.92192 131.64773,118 134.59632,118 c 0.32797,0 3.52548,-2.57166 7.10557,-5.71481 z M 169,55.5 c 0,-6.833333 -0.17778,-7.5 -2,-7.5 -1.64544,0 -1.99901,0.664808 -1.99442,3.75 0.007,4.699977 1.77778,11.25 3.04142,11.25 0.52415,0 0.953,-3.375 0.953,-7.5 z m 16,-0.99113 C 185,52.11174 183.24587,50 181.25469,50 c -0.99872,0 -1.18475,0.966132 -0.72209,3.75 1.07651,6.477441 1.41575,7.014275 3.03882,4.80887 C 184.35714,57.491249 185,55.668749 185,54.50887 Z"
       id="path3761"
       inkscape:connector-curvature="0" />
  </g>
</svg>
